<?xml version="1.0" encoding="UTF-8"?>
<svg width="150px" height="150px" viewBox="0 0 150 150" version="1.1" xmlns="http://www.w3.org/2000/svg" xmlns:xlink="http://www.w3.org/1999/xlink">
    <!-- Generator: Sketch 53.2 (72643) - https://sketchapp.com -->
    <title>cari-pengrajin</title>
    <desc>Created with Sketch.</desc>
    <g id="cari-pengrajin" stroke="none" stroke-width="1" fill="none" fill-rule="evenodd">
        <rect id="Rectangle" stroke="#979797" fill="#D8D8D8" opacity="0" x="0.5" y="0.5" width="149" height="149"></rect>
        <rect id="Rectangle" fill="#C18951" x="8" y="97" width="99" height="43"></rect>
        <g id="Group-2-Copy" transform="translate(125.500000, 75.000000) scale(-1, -1) translate(-125.500000, -75.000000) translate(106.500000, 50.000000)">
            <path d="M38,24.2670527 L38,23.3457505 C38,13.2188354 31.8743287,4.09802787 22.5,0.267052696 L22.5,0.267052696" id="Path-33" stroke="#333333" stroke-linejoin="round" transform="translate(30.250000, 12.267053) scale(1, -1) translate(-30.250000, -12.267053) "></path>
            <g id="Group-4" transform="translate(0.000000, 19.000000)">
                <path d="M13.8461538,0.0437188079 L13.8461538,0 L30,0 L30,16.1538462 L29.9562812,16.1538462 C29.3960679,23.5181609 23.5181609,29.3960679 16.1538462,29.9562812 L16.1538462,30 L0,30 L0,13.8461538 L0.0437188079,13.8461538 C0.60393207,6.48183913 6.48183913,0.60393207 13.8461538,0.0437188079 Z" id="Combined-Shape" fill="#C18951"></path>
                <rect id="Rectangle" fill="#9A6836" x="3.04645198e-13" y="16.6666667" width="13.3333333" height="13.3333333"></rect>
            </g>
        </g>
        <g id="Group-15" transform="translate(67.962340, 73.472461) rotate(45.000000) translate(-67.962340, -73.472461) translate(-1.037660, 48.472461)">
            <polygon id="Rectangle-Copy" stroke="#333333" stroke-linejoin="round" points="29.1882381 0.492842936 137.188238 0.492842936 137.188238 29.3163723 130.064642 36.0316671 130.082975 30.7575488 122.953745 36.9805613 122.977712 32.1987253 115.835408 37.9304482 115.872449 33.6399018 108.761379 38.8744227 108.767185 35.0810782 101.649759 39.8234134 101.661922 36.0316671 94.5615512 40.7692799 94.5615512 36.9805613 87.4619282 41.7166697 87.451396 37.9634312 80.3516132 42.6654862 80.3461329 38.8744227 73.2420518 43.6142022 73.2408697 39.8234134 66.144178 44.5613586 66.144178 40.7692799 59.076454 45.5044917 58.890507 41.5850324 51.9247709 46.4588285 51.9250802 43.0075488 44.8423957 47.4039167 44.8198171 43.7281371 38.1892976 48.2917212 29.1882381 49.4928429"></polygon>
            <path d="M0.659540521,0.517969202 L30.6595405,0.517969202 L30.6595405,38.8405498 L24.9452548,44.5179692 L0.659540521,44.5179692 L0.659540521,0.517969202 Z M7.80239766,9.03409823 L7.80239766,36.0018402 L23.5166834,36.0018402 L23.5166834,9.03409823 L7.80239766,9.03409823 Z" id="Combined-Shape-Copy" fill="#C18951"></path>
        </g>
    </g>
</svg>