<?xml version="1.0" encoding="UTF-8"?>
<svg width="150px" height="150px" viewBox="0 0 150 150" version="1.1" xmlns="http://www.w3.org/2000/svg" xmlns:xlink="http://www.w3.org/1999/xlink">
    <!-- Generator: Sketch 53.2 (72643) - https://sketchapp.com -->
    <title>dream-furniture</title>
    <desc>Created with Sketch.</desc>
    <g id="dream-furniture" stroke="none" stroke-width="1" fill="none" fill-rule="evenodd">
        <rect id="Rectangle" stroke="#979797" fill="#D8D8D8" opacity="0" x="0.5" y="0.5" width="149" height="149"></rect>
        <g id="Group" transform="translate(72.500000, 72.500000) rotate(-19.000000) translate(-72.500000, -72.500000) translate(30.000000, 10.000000)">
            <path d="M7.78202456,92.6116748 L63.0919436,92.6116748 C68.121705,92.6116748 72.3851699,88.9112648 73.0928521,83.9315373 L84.0946943,6.51518315 C84.538517,3.39214833 82.3665864,0.500638996 79.2435516,0.0568162858 C78.9773522,0.0189859781 78.7088136,-5.37846189e-15 78.4399395,-5.32907052e-15 L78.4399395,-5.32907052e-15 C74.6488245,-4.63265398e-15 71.4195902,2.75465697 70.8220087,6.49837832 L61.2527355,66.4478468 C60.4702471,71.349971 56.2418054,74.9569891 51.2776227,74.9569891 L10.0915175,74.9569891 C5.03701042,74.9569891 0.760548696,78.6929125 0.0816556179,83.7016195 L0.0704445616,83.784332 C-0.506829672,88.04332 2.47778907,91.9638852 6.73677709,92.5411594 C7.08321346,92.5881163 7.43242035,92.6116748 7.78202456,92.6116748 Z" id="Path-10" fill="#C18951" transform="translate(42.082667, 46.305837) scale(-1, 1) translate(-42.082667, -46.305837) "></path>
            <polyline id="Path-7" stroke="#333333" stroke-linejoin="round" points="7.31872466 124.227224 34.8219549 61.0855946 63.1389373 59.7209502 68.5210097 124.321444"></polyline>
            <path d="M14.0069797,108.372522 L66.5624997,108.046954" id="Path-8" stroke="#333333" stroke-linejoin="round"></path>
        </g>
        <g id="Group-2" transform="translate(58.000000, 12.000000)" fill="#C18951">
            <rect id="Rectangle" x="0" y="7.84615385" width="17" height="1.30769231"></rect>
            <polygon id="Rectangle-Copy" transform="translate(8.500000, 8.500000) rotate(90.000000) translate(-8.500000, -8.500000) " points="0 7.84615385 17 7.84615385 17 9.15384615 1.30192871e-32 9.15384615"></polygon>
        </g>
        <g id="Group-2-Copy" transform="translate(18.000000, 97.000000)" fill="#C18951">
            <rect id="Rectangle" x="0" y="7.84615385" width="17" height="1.30769231"></rect>
            <polygon id="Rectangle-Copy" transform="translate(8.500000, 8.500000) rotate(90.000000) translate(-8.500000, -8.500000) " points="1.50102161e-14 7.84615385 17 7.84615385 17 9.15384615 1.50102161e-14 9.15384615"></polygon>
        </g>
        <g id="Group-2-Copy-2" transform="translate(132.000000, 54.000000)" fill="#C18951">
            <rect id="Rectangle" x="0" y="4.61538462" width="10" height="1"></rect>
            <polygon id="Rectangle-Copy" transform="translate(5.000000, 5.000000) rotate(90.000000) translate(-5.000000, -5.000000) " points="-3.60600459e-14 4.61538462 10 4.61538462 10 5.38461538 -3.60600459e-14 5.38461538"></polygon>
        </g>
        <g id="Group-2-Copy-3" transform="translate(121.000000, 120.000000)" fill="#C18951">
            <rect id="Rectangle" x="0" y="7.84615385" width="17" height="1.30769231"></rect>
            <polygon id="Rectangle-Copy" transform="translate(8.500000, 8.500000) rotate(90.000000) translate(-8.500000, -8.500000) " points="1.50102161e-14 7.84615385 17 7.84615385 17 9.15384615 1.50102161e-14 9.15384615"></polygon>
        </g>
    </g>
</svg>