<?xml version="1.0" encoding="UTF-8"?>
<svg width="150px" height="150px" viewBox="0 0 150 150" version="1.1" xmlns="http://www.w3.org/2000/svg" xmlns:xlink="http://www.w3.org/1999/xlink">
    <!-- Generator: Sketch 53.2 (72643) - https://sketchapp.com -->
    <title>hand</title>
    <desc>Created with Sketch.</desc>
    <g id="hand" stroke="none" stroke-width="1" fill="none" fill-rule="evenodd">
        <rect id="Rectangle" stroke="#979797" fill="#D8D8D8" opacity="0" x="0.5" y="0.5" width="149" height="149"></rect>
        <g id="Group-5" transform="translate(9.000000, 8.000000)">
            <g id="Group-3" transform="translate(24.500000, 0.000000)">
                <g id="Group-2" transform="translate(20.000000, 53.500000) scale(1, -1) translate(-20.000000, -53.500000) translate(0.000000, 18.000000)">
                    <path d="M40,44.2670527 L40,24.686409 C40,14.2312917 33.9608539,4.7169652 24.5,0.267052696 L24.5,0.267052696" id="Path-33" stroke="#333333" stroke-linejoin="round" transform="translate(32.250000, 22.267053) scale(1, -1) translate(-32.250000, -22.267053) "></path>
                    <path d="M13.8461538,41.0437188 L13.8461538,41 L30,41 L30,57.1538462 L29.9562812,57.1538462 C29.3960679,64.5181609 23.5181609,70.3960679 16.1538462,70.9562812 L16.1538462,71 L0,71 L0,54.8461538 L0.0437188079,54.8461538 C0.60393207,47.4818391 6.48183913,41.6039321 13.8461538,41.0437188 Z" id="Combined-Shape" fill="#C18951"></path>
                    <rect id="Rectangle" fill="#9A6836" x="0" y="57.6666667" width="13.3333333" height="13.3333333"></rect>
                </g>
                <g id="Group-2-Copy" transform="translate(59.000000, 63.000000) scale(-1, -1) translate(-59.000000, -63.000000) translate(40.000000, 38.000000)">
                    <path d="M38,24.2670527 L38,23.3457505 C38,13.2188354 31.8743287,4.09802787 22.5,0.267052696 L22.5,0.267052696" id="Path-33" stroke="#333333" stroke-linejoin="round" transform="translate(30.250000, 12.267053) scale(1, -1) translate(-30.250000, -12.267053) "></path>
                    <g id="Group-4" transform="translate(0.000000, 19.000000)">
                        <path d="M13.8461538,0.0437188079 L13.8461538,0 L30,0 L30,16.1538462 L29.9562812,16.1538462 C29.3960679,23.5181609 23.5181609,29.3960679 16.1538462,29.9562812 L16.1538462,30 L0,30 L0,13.8461538 L0.0437188079,13.8461538 C0.60393207,6.48183913 6.48183913,0.60393207 13.8461538,0.0437188079 Z" id="Combined-Shape" fill="#C18951"></path>
                        <rect id="Rectangle" fill="#9A6836" x="3.04645198e-13" y="16.6666667" width="13.3333333" height="13.3333333"></rect>
                    </g>
                </g>
                <path d="M55.5722664,1.89444114 C54.3385697,0.681481502 52.6649702,7.83787367e-15 50.91985,8.8817842e-15 C49.1747298,9.40373946e-15 47.5011303,0.681481502 46.2674337,1.89444114 L44.9996801,3.14030023 L43.7319266,1.89444114 C41.162468,-0.63064212 36.9965525,-0.63064209 34.4270939,1.8944412 C31.8576354,4.4195245 31.8576353,8.5134934 34.4270939,11.0385767 L35.6948474,12.2844358 L44.9996801,21.4285714 L54.3045128,12.2844358 L55.5722664,11.0385767 C56.8065423,9.82618636 57.5,8.18149043 57.5,6.46650894 C57.5,4.75152745 56.8065423,3.10683152 55.5722664,1.89444114 Z" id="Path" stroke="#C18951" fill="#C18951" stroke-linejoin="round"></path>
            </g>
            <g id="Group" transform="translate(0.000000, 57.000000)" stroke="#333333" stroke-linejoin="round">
                <path d="M0,75 L83.3644068,75 L135,1.37642128 L135,1.37642128 C127.542499,-1.59033846 119.02826,0.335681201 113.573721,6.22329452 C102.903314,17.7409003 92.2329071,29.258506 81.5625,40.7761117 C82.4957802,38.0556613 83.0582802,36.1855035 83.25,35.1656383 C83.4332802,34.1906684 83.4332802,33.0685738 83.25,31.7993542 L24,31.7993542 C10.745166,31.7993542 -5.17596268e-15,42.5445202 -3.55271368e-15,55.7993542 L0,75 Z" id="Path-31"></path>
            </g>
        </g>
        <path d="M45,116 L69.3985295,116 C77.944087,116 85.9737449,111.911101 91,105 L91,105" id="Path-19" stroke="#333333" stroke-linejoin="round"></path>
    </g>
</svg>