<?xml version="1.0" encoding="UTF-8"?>
<svg width="150px" height="150px" viewBox="0 0 150 150" version="1.1" xmlns="http://www.w3.org/2000/svg" xmlns:xlink="http://www.w3.org/1999/xlink">
    <!-- Generator: Sketch 53.2 (72643) - https://sketchapp.com -->
    <title>illustation-1</title>
    <desc>Created with Sketch.</desc>
    <g id="illustation-1" stroke="none" stroke-width="1" fill="none" fill-rule="evenodd">
        <rect id="Rectangle" stroke="#979797" fill="#D8D8D8" opacity="0" x="0.5" y="0.5" width="149" height="149"></rect>
        <g id="Group-10" transform="translate(19.500000, 17.500000) scale(-1, 1) translate(-19.500000, -17.500000) translate(-3.000000, -4.000000)">
            <g id="Group-6" transform="translate(22.793422, 21.587764) rotate(-131.000000) translate(-22.793422, -21.587764) translate(11.293422, 2.587764)">
                <polygon id="Path-12" fill="#C18951" points="22.2353719 20.5480202 5.1089063 32.2791862 5.1089063 37.311162 17.9792805 37.311162 17.9792805 32.2791862"></polygon>
                <polygon id="Path-6" stroke="#333333" stroke-linejoin="round" points="11.2534017 0 -4.54747351e-13 19.3358372 5.1089063 32.2791862 5.1089063 37.311162 17.9792805 37.311162 17.9792805 32.2791862 22.5068034 19.9513556"></polygon>
                <path d="M11.2534017,0 L11.2534017,18.655581" id="Path-11" stroke="#333333" stroke-linejoin="round"></path>
                <ellipse id="Oval" stroke="#333333" stroke-linejoin="round" cx="11.5113906" cy="21.2794992" rx="2.58715596" ry="2.5915493"></ellipse>
            </g>
        </g>
        <g id="Group" transform="translate(7.000000, 5.000000)">
            <g id="Group-7">
                <path d="M33.596302,57.0200357 C15.8896657,24 39.9793602,-18.8037838 69.3896657,11.0836812 C125.42169,68.0247816 100.389666,-17.5 141.325445,25.2389955" id="Path-13" stroke="#000000" stroke-dasharray="5" transform="translate(84.444833, 29.002372) scale(-1, 1) translate(-84.444833, -29.002372) "></path>
                <g id="icon-chair-" transform="translate(0.000000, 44.000000)">
                    <rect id="Rectangle-Copy-8" fill="#C18951" x="0.668123354" y="0.993819229" width="41" height="90"></rect>
                    <rect id="Rectangle" stroke="#333333" stroke-linejoin="round" x="1.07072717" y="1.32219761" width="134.169443" height="89.6716216"></rect>
                    <ellipse id="Oval" fill="#E8615C" cx="9.48726053" cy="7.32648427" rx="1.48527059" ry="1.47002658"></ellipse>
                    <ellipse id="Oval-Copy-2" fill="#FFAC66" cx="14.4381625" cy="7.32648427" rx="1.48527059" ry="1.47002658"></ellipse>
                    <ellipse id="Oval-Copy-3" fill="#6DD400" cx="19.3890645" cy="7.32648427" rx="1.48527059" ry="1.47002658"></ellipse>
                    <ellipse id="Oval" stroke="#FFFFFF" stroke-width="0.642857151" cx="10.0914618" cy="24.0709459" rx="3.09146183" ry="3.07094595"></ellipse>
                    <ellipse id="Oval-Copy-6" stroke="#FFFFFF" stroke-width="0.642857151" cx="10.0914618" cy="36.0709459" rx="3.09146183" ry="3.07094595"></ellipse>
                    <ellipse id="Oval-Copy-7" stroke="#FFFFFF" stroke-width="0.642857151" cx="10.0914618" cy="48.0709459" rx="3.09146183" ry="3.07094595"></ellipse>
                    <path d="M64.0660119,64.0433319 L79.0552041,64.0433319 C80.4068928,64.0433319 81.5527757,63.0491674 81.7434729,61.7109982 L84.7211766,40.8157151 C84.8415488,39.971034 84.2543804,39.1887038 83.4096993,39.0683317 C83.337504,39.0580434 83.2646709,39.0528799 83.1917463,39.0528799 L83.1917463,39.0528799 C82.1658081,39.0528799 81.2918181,39.7981007 81.1296662,40.8111436 L78.5395114,56.9931205 C78.3286673,58.3103677 77.1922288,59.2793691 75.8582141,59.2793691 L64.6809569,59.2793691 C63.3225989,59.2793691 62.1732113,60.2831025 61.9902684,61.6290848 L61.9858829,61.6613505 C61.8297374,62.810174 62.6344619,63.8680604 63.7832854,64.024206 C63.8769892,64.036942 63.9714465,64.0433319 64.0660119,64.0433319 Z" id="Path-10" fill="#C18951" transform="translate(73.353896, 51.548106) scale(-1, 1) translate(-73.353896, -51.548106) "></path>
                    <path d="M67.979814,60.1910933 L64.688041,72.971229 L64.675086,73.0125972 L64.6684528,73.0337782 L63.452092,73.0415279 L67.0335657,59.3900894 C67.1474641,58.9559451 67.5398355,58.6532344 67.9886719,58.6532344 L77.730805,58.6532344 C78.1816129,58.6532344 78.5751833,58.9585573 78.6872415,59.3952159 L82.2655195,73.3387446 L81.0588777,73.3535002 L77.7360076,60.1933725 C77.6806513,59.9741356 77.4834344,59.8205255 77.2573169,59.8205255 L68.4579235,59.8205255 C68.2326822,59.8205255 68.0359956,59.9729711 67.979814,60.1910933 Z" id="Path-7-Copy" fill="#000000" fill-rule="nonzero"></path>
                    <path d="M90.4345078,38.1639219 L90.4345078,72.8634914" id="Path-5" stroke="#C18951" stroke-width="0.642857151" stroke-linecap="square"></path>
                    <path d="M66.5010992,68.2084072 L79.9778508,68.2084072" id="Path-8" stroke="#000000" stroke-width="0.987428408" stroke-linecap="square"></path>
                    <path d="M96.741965,64.0433319 L111.731157,64.0433319 C113.082846,64.0433319 114.228729,63.0491674 114.419426,61.7109982 L117.39713,40.8157151 C117.517502,39.971034 116.930333,39.1887038 116.085652,39.0683317 C116.013457,39.0580434 115.940624,39.0528799 115.867699,39.0528799 L115.867699,39.0528799 C114.841761,39.0528799 113.967771,39.7981007 113.805619,40.8111436 L111.215464,56.9931205 C111.00462,58.3103677 109.868182,59.2793691 108.534167,59.2793691 L97.3569099,59.2793691 C95.9985519,59.2793691 94.8491644,60.2831025 94.6662214,61.6290848 L94.6618359,61.6613505 C94.5056904,62.810174 95.3104149,63.8680604 96.4592384,64.024206 C96.5529422,64.036942 96.6473996,64.0433319 96.741965,64.0433319 Z" id="Path-10" fill="#C18951"></path>
                    <path d="M99.8362055,73.6777691 L98.685775,73.6777691 L98.1033906,55.2617937 C98.0861534,54.7167246 98.5140458,54.2608852 99.0591149,54.243648 C99.0695153,54.2433191 99.0799201,54.2431546 99.0903257,54.2431546 L107.487138,54.2431546 C107.858897,54.2431546 108.199149,54.4519561 108.367507,54.7834078 L117.719218,73.1944327 L117.912014,73.8435091 L116.729891,73.8435091 L107.460175,55.6718848 C107.375849,55.5065789 107.20595,55.4025199 107.020379,55.4025199 L99.7781501,55.4025199 C99.5054792,55.4025199 99.2844359,55.6235632 99.2844359,55.8962341 C99.2844359,55.9013415 99.2845151,55.9064486 99.2846736,55.9115535 L99.8362055,73.6777691 Z" id="Path-9-Copy" fill="#000000" fill-rule="nonzero"></path>
                    <path d="M18,24.3070946 L31.6024321,24.3070946" id="Path-4" stroke="#FFFFFF" stroke-width="0.642857151"></path>
                    <path d="M18,36.3070946 L31.6024321,36.3070946" id="Path-4-Copy" stroke="#FFFFFF" stroke-width="0.642857151"></path>
                    <path d="M18,48.3070946 L31.6024321,48.3070946" id="Path-4-Copy-3" stroke="#FFFFFF" stroke-width="0.642857151"></path>
                    <path d="M18.3829134,60.725576 L31.9853455,60.725576" id="Path-4-Copy-2" stroke="#FFFFFF" stroke-width="0.642857151"></path>
                </g>
            </g>
        </g>
    </g>
</svg>