<?xml version="1.0" encoding="UTF-8"?>
<svg width="150px" height="150px" viewBox="0 0 150 150" version="1.1" xmlns="http://www.w3.org/2000/svg" xmlns:xlink="http://www.w3.org/1999/xlink">
    <!-- Generator: Sketch 53.2 (72643) - https://sketchapp.com -->
    <title>profit</title>
    <desc>Created with Sketch.</desc>
    <g id="profit" stroke="none" stroke-width="1" fill="none" fill-rule="evenodd">
        <g id="Group-5-Copy" transform="translate(8.000000, 42.000000)" stroke="#333333" stroke-linejoin="round">
            <g id="Group-3" transform="translate(48.500000, 0.000000)">
                <g id="Group-2" transform="translate(8.000000, 27.000000) scale(1, -1) translate(-8.000000, -27.000000) ">
                    <path d="M16,53.2670527 L16,24.686409 C16,14.2312917 9.96085387,4.7169652 0.5,0.267052696 L0.5,0.267052696" id="Path-33" transform="translate(8.250000, 26.767053) scale(1, -1) translate(-8.250000, -26.767053) "></path>
                </g>
                <g id="Group-2-Copy" transform="translate(24.000000, 31.500000) scale(-1, -1) translate(-24.000000, -31.500000) translate(16.000000, 19.000000)">
                    <path d="M16,24.2670527 L16,23.3457505 C16,13.2188354 9.87432867,4.09802787 0.5,0.267052696 L0.5,0.267052696" id="Path-33" transform="translate(8.250000, 12.267053) scale(1, -1) translate(-8.250000, -12.267053) "></path>
                </g>
            </g>
            <g id="Group" transform="translate(0.000000, 22.000000)">
                <path d="M0,75 L83.3644068,75 L135,1.37642128 L135,1.37642128 C127.542499,-1.59033846 119.02826,0.335681201 113.573721,6.22329452 C102.903314,17.7409003 92.2329071,29.258506 81.5625,40.7761117 C82.4957802,38.0556613 83.0582802,36.1855035 83.25,35.1656383 C83.4332802,34.1906684 83.4332802,33.0685738 83.25,31.7993542 L24,31.7993542 C10.745166,31.7993542 -5.17596268e-15,42.5445202 -3.55271368e-15,55.7993542 L0,75 Z" id="Path-31"></path>
            </g>
        </g>
        <g id="Group-2-Copy" transform="translate(30.000000, 14.000000)">
            <circle id="Oval" fill="#C18951" cx="17.5" cy="17.5" r="17.5"></circle>
            <ellipse id="Oval-Copy" fill="#9A6836" cx="17.5" cy="17.5" rx="14.5" ry="15"></ellipse>
            <path d="M22.0761719,20.8789062 C22.0761719,21.744796 21.7539095,22.4511691 21.109375,22.9980469 C20.4648405,23.5449246 19.5729224,23.8899732 18.4335938,24.0332031 L18.4335938,26.3378906 L17.6425781,26.3378906 L17.6425781,24.0722656 C17.0436168,24.0592447 16.3909541,23.9860033 15.6845703,23.8525391 C14.9781866,23.7190749 14.4166687,23.5546885 14,23.359375 L14,22.3535156 C14.4882837,22.5878918 15.0725877,22.7864575 15.7529297,22.9492188 C16.4332716,23.11198 17.0631481,23.1933594 17.6425781,23.1933594 L17.6425781,18.2324219 C16.698563,17.9459621 15.9987002,17.6595066 15.5429688,17.3730469 C15.0872373,17.0865871 14.7552094,16.7480488 14.546875,16.3574219 C14.3385406,15.9667949 14.234375,15.4915393 14.234375,14.9316406 C14.234375,14.1243449 14.5419891,13.4456408 15.1572266,12.8955078 C15.772464,12.3453749 16.6009063,12.005209 17.6425781,11.875 L17.6425781,10 L18.4335938,10 L18.4335938,11.8554688 C19.7161522,11.9140628 20.8587189,12.1484354 21.8613281,12.5585938 L21.5390625,13.4375 C20.6210892,13.0338521 19.5859433,12.7994795 18.4335938,12.734375 L18.4335938,17.4804688 C19.8203194,17.9101584 20.7740859,18.3789037 21.2949219,18.8867188 C21.8157578,19.3945338 22.0761719,20.0585896 22.0761719,20.8789062 Z M21.0019531,20.8398438 C21.0019531,20.2864556 20.7968771,19.8291034 20.3867188,19.4677734 C19.9765604,19.1064435 19.3255253,18.7955742 18.4335938,18.5351562 L18.4335938,23.1347656 C19.2278686,23.0501298 19.8544899,22.8059916 20.3134766,22.4023438 C20.7724632,21.9986959 21.0019531,21.4778678 21.0019531,20.8398438 Z M15.2988281,14.9316406 C15.2988281,15.4915393 15.4843731,15.950519 15.8554688,16.3085938 C16.2265644,16.6666685 16.8222615,16.9693998 17.6425781,17.2167969 L17.6425781,12.7929688 C16.8678347,12.8971359 16.2835306,13.1445293 15.8896484,13.5351562 C15.4957663,13.9257832 15.2988281,14.3912733 15.2988281,14.9316406 Z" id="$" fill="#FFFFFF" fill-rule="nonzero"></path>
        </g>
        <g id="Group-2-Copy-2" transform="translate(83.000000, 34.000000)">
            <circle id="Oval" fill="#C18951" cx="17.5" cy="17.5" r="17.5"></circle>
            <ellipse id="Oval-Copy" fill="#9A6836" cx="17.5" cy="17.5" rx="14.5" ry="15"></ellipse>
            <path d="M22.0761719,20.8789062 C22.0761719,21.744796 21.7539095,22.4511691 21.109375,22.9980469 C20.4648405,23.5449246 19.5729224,23.8899732 18.4335938,24.0332031 L18.4335938,26.3378906 L17.6425781,26.3378906 L17.6425781,24.0722656 C17.0436168,24.0592447 16.3909541,23.9860033 15.6845703,23.8525391 C14.9781866,23.7190749 14.4166687,23.5546885 14,23.359375 L14,22.3535156 C14.4882837,22.5878918 15.0725877,22.7864575 15.7529297,22.9492188 C16.4332716,23.11198 17.0631481,23.1933594 17.6425781,23.1933594 L17.6425781,18.2324219 C16.698563,17.9459621 15.9987002,17.6595066 15.5429688,17.3730469 C15.0872373,17.0865871 14.7552094,16.7480488 14.546875,16.3574219 C14.3385406,15.9667949 14.234375,15.4915393 14.234375,14.9316406 C14.234375,14.1243449 14.5419891,13.4456408 15.1572266,12.8955078 C15.772464,12.3453749 16.6009063,12.005209 17.6425781,11.875 L17.6425781,10 L18.4335938,10 L18.4335938,11.8554688 C19.7161522,11.9140628 20.8587189,12.1484354 21.8613281,12.5585938 L21.5390625,13.4375 C20.6210892,13.0338521 19.5859433,12.7994795 18.4335938,12.734375 L18.4335938,17.4804688 C19.8203194,17.9101584 20.7740859,18.3789037 21.2949219,18.8867188 C21.8157578,19.3945338 22.0761719,20.0585896 22.0761719,20.8789062 Z M21.0019531,20.8398438 C21.0019531,20.2864556 20.7968771,19.8291034 20.3867188,19.4677734 C19.9765604,19.1064435 19.3255253,18.7955742 18.4335938,18.5351562 L18.4335938,23.1347656 C19.2278686,23.0501298 19.8544899,22.8059916 20.3134766,22.4023438 C20.7724632,21.9986959 21.0019531,21.4778678 21.0019531,20.8398438 Z M15.2988281,14.9316406 C15.2988281,15.4915393 15.4843731,15.950519 15.8554688,16.3085938 C16.2265644,16.6666685 16.8222615,16.9693998 17.6425781,17.2167969 L17.6425781,12.7929688 C16.8678347,12.8971359 16.2835306,13.1445293 15.8896484,13.5351562 C15.4957663,13.9257832 15.2988281,14.3912733 15.2988281,14.9316406 Z" id="$" fill="#FFFFFF" fill-rule="nonzero"></path>
        </g>
        <path d="M44,115 L68.3985295,115 C76.944087,115 84.9737449,110.911101 90,104 L90,104" id="Path-19" stroke="#333333" stroke-linejoin="round"></path>
    </g>
</svg>