<?xml version="1.0" encoding="UTF-8"?>
<svg width="150px" height="150px" viewBox="0 0 150 150" version="1.1" xmlns="http://www.w3.org/2000/svg" xmlns:xlink="http://www.w3.org/1999/xlink">
    <!-- Generator: Sketch 53.2 (72643) - https://sketchapp.com -->
    <title>two-hand</title>
    <desc>Created with Sketch.</desc>
    <g id="two-hand" stroke="none" stroke-width="1" fill="none" fill-rule="evenodd">
        <rect id="Rectangle" stroke="#979797" fill="#D8D8D8" opacity="0" x="0.5" y="0.5" width="149" height="149"></rect>
        <g id="Group-2" transform="translate(-14.000000, 63.000000)" stroke="#333333" stroke-linejoin="round">
            <g id="Group-5" transform="translate(127.000000, 39.000000) rotate(-20.000000) translate(-127.000000, -39.000000) translate(83.000000, 15.000000)">
                <g id="Group" transform="translate(0.000000, -0.000000)">
                    <path d="M9.09494702e-13,48 L54.3412429,48 L88,0.880909621 L88,0.880909621 C83.1248467,-1.02327211 77.5818519,0.222190893 73.989878,4.02886289 C67.0488076,11.3848124 60.1077371,18.740762 53.1666667,26.0967115 C53.7750271,24.3556232 54.1416937,23.1587222 54.2666667,22.5060085 C54.3861382,21.8820278 54.3861382,21.1638872 54.2666667,20.3515867 L15.5519993,20.3515867 C6.96286725,20.3515867 9.17324621e-13,27.3144539 9.18376486e-13,35.9035859 L9.09494702e-13,48 Z" id="Path-31"></path>
                    <path d="M23.7067898,31.5123643 L44.4507797,31.3110413 C47.5343883,31.2811145 50.4317192,29.8301754 52.3027504,27.3788941 L54.4229866,24.6011236" id="Path-2"></path>
                </g>
            </g>
            <g id="Group-5-Copy" transform="translate(51.171010, 38.530154) scale(-1, 1) rotate(-20.000000) translate(-51.171010, -38.530154) translate(6.171010, 14.030154)">
                <g id="Group" transform="translate(0.030154, 0.828990)">
                    <path d="M0,48 L54.9587571,48 L89,0.880909621 L89,0.880909621 C84.0608939,-1.02657539 78.4591529,0.226708218 74.8037762,4.05704618 C67.7927952,11.4036013 60.7818143,18.7501564 53.7708333,26.0967115 C54.3861069,24.3556232 54.7569403,23.1587222 54.8833333,22.5060085 C55.0041625,21.8820278 55.0041625,21.1638872 54.8833333,20.3515867 L15.5519993,20.3515867 C6.96286725,20.3515867 -1.0518653e-15,27.3144539 0,35.9035859 L0,48 Z" id="Path-31"></path>
                    <path d="M24.2067898,31.5123643 L44.9507797,31.3110413 C48.0343883,31.2811145 50.9317192,29.8301754 52.8027504,27.3788941 L54.9229866,24.6011236" id="Path-2"></path>
                </g>
            </g>
        </g>
        <g id="Group-3" transform="translate(35.500000, 11.000000)">
            <g id="Group-2" transform="translate(20.000000, 53.500000) scale(1, -1) translate(-20.000000, -53.500000) translate(0.000000, 18.000000)">
                <path d="M40,44.2670527 L40,24.686409 C40,14.2312917 33.9608539,4.7169652 24.5,0.267052696 L24.5,0.267052696" id="Path-33" stroke="#333333" stroke-linejoin="round" transform="translate(32.250000, 22.267053) scale(1, -1) translate(-32.250000, -22.267053) "></path>
                <path d="M13.8461538,41.0437188 L13.8461538,41 L30,41 L30,57.1538462 L29.9562812,57.1538462 C29.3960679,64.5181609 23.5181609,70.3960679 16.1538462,70.9562812 L16.1538462,71 L0,71 L0,54.8461538 L0.0437188079,54.8461538 C0.60393207,47.4818391 6.48183913,41.6039321 13.8461538,41.0437188 Z" id="Combined-Shape" fill="#C18951"></path>
                <rect id="Rectangle" fill="#9A6836" x="0" y="57.6666667" width="13.3333333" height="13.3333333"></rect>
            </g>
            <g id="Group-2-Copy" transform="translate(59.000000, 78.000000) scale(-1, -1) translate(-59.000000, -78.000000) translate(40.000000, 39.000000)">
                <path d="M38,53.2670527 L38,23.3457505 C38,13.2188354 31.8743287,4.09802787 22.5,0.267052696 L22.5,0.267052696" id="Path-33" stroke="#333333" stroke-linejoin="round" transform="translate(30.250000, 26.767053) scale(1, -1) translate(-30.250000, -26.767053) "></path>
                <g id="Group-4" transform="translate(0.000000, 48.000000)">
                    <path d="M13.8461538,0.0437188079 L13.8461538,0 L30,0 L30,16.1538462 L29.9562812,16.1538462 C29.3960679,23.5181609 23.5181609,29.3960679 16.1538462,29.9562812 L16.1538462,30 L0,30 L0,13.8461538 L0.0437188079,13.8461538 C0.60393207,6.48183913 6.48183913,0.60393207 13.8461538,0.0437188079 Z" id="Combined-Shape" fill="#C18951"></path>
                    <rect id="Rectangle" fill="#9A6836" x="3.04645198e-13" y="16.6666667" width="13.3333333" height="13.3333333"></rect>
                </g>
            </g>
            <path d="M55.5722664,1.89444114 C54.3385697,0.681481502 52.6649702,7.83787367e-15 50.91985,8.8817842e-15 C49.1747298,9.40373946e-15 47.5011303,0.681481502 46.2674337,1.89444114 L44.9996801,3.14030023 L43.7319266,1.89444114 C41.162468,-0.63064212 36.9965525,-0.63064209 34.4270939,1.8944412 C31.8576354,4.4195245 31.8576353,8.5134934 34.4270939,11.0385767 L35.6948474,12.2844358 L44.9996801,21.4285714 L54.3045128,12.2844358 L55.5722664,11.0385767 C56.8065423,9.82618636 57.5,8.18149043 57.5,6.46650894 C57.5,4.75152745 56.8065423,3.10683152 55.5722664,1.89444114 Z" id="Path" stroke="#C18951" fill="#C18951" stroke-linejoin="round"></path>
        </g>
    </g>
</svg>