<?xml version="1.0" encoding="UTF-8"?>
<svg width="105px" height="80px" viewBox="0 0 105 80" version="1.1" xmlns="http://www.w3.org/2000/svg" xmlns:xlink="http://www.w3.org/1999/xlink">
    <!-- Generator: Sketch 53.2 (72643) - https://sketchapp.com -->
    <title>design-consul-light</title>
    <desc>Created with Sketch.</desc>
    <g id="design-consul-light" stroke="none" stroke-width="1" fill="none" fill-rule="evenodd">
        <g id="Group-11">
            <rect id="Rectangle-Copy-48" x="0" y="0" width="105" height="80"></rect>
            <rect id="Rectangle" fill="#C18951" x="40" y="28" width="26" height="23"></rect>
            <g id="Group-8" transform="translate(40.000000, 28.000000)">
                <path d="M1.10000002,0 L52.9,-2.44249065e-15 C53.5075132,-2.55408903e-15 54,0.492486786 54,1.10000002 L54,36 L54,45 L44.2340426,36 L1.10000002,36 C0.492486786,36 -5.21547529e-17,35.5075132 -6.66133815e-16,34.9 L0,1.10000002 C-7.43989142e-17,0.492486786 0.492486786,1.11598371e-16 1.10000002,0 Z" id="Rectangle" stroke="#FFFFFF" stroke-width="2" stroke-linecap="square"></path>
                <ellipse id="Oval-Copy-8" fill="#C18951" cx="34.1632653" cy="17.5609756" rx="3.30612245" ry="3.29268293"></ellipse>
            </g>
            <g id="Group-8" transform="translate(9.000000, 12.000000)" stroke="#FFFFFF" stroke-linecap="square" stroke-width="2">
                <path d="M2.20000005,0 L54.8,0 C56.0150264,-2.23196743e-16 57,0.984973572 57,2.20000005 L57,48 L46.6914894,38.4 L2.20000005,38.4 C0.984973572,38.4 -5.48398716e-16,37.4150264 -1.77635684e-15,36.2 L0,2.20000005 C-1.48797828e-16,0.984973572 0.984973572,2.23196743e-16 2.20000005,0 Z" id="Rectangle-Copy-9" transform="translate(28.500000, 24.000000) scale(-1, 1) translate(-28.500000, -24.000000) "></path>
                <ellipse id="Combined-Shape" cx="21.9230769" cy="19.6363636" rx="3.28846154" ry="3.27272727"></ellipse>
            </g>
        </g>
    </g>
</svg>