<?xml version="1.0" encoding="UTF-8"?>
<svg width="105px" height="80px" viewBox="0 0 105 80" version="1.1" xmlns="http://www.w3.org/2000/svg" xmlns:xlink="http://www.w3.org/1999/xlink">
    <!-- Generator: Sketch 53.2 (72643) - https://sketchapp.com -->
    <title>icon-chair-dark</title>
    <desc>Created with Sketch.</desc>
    <g id="icon-chair-dark" stroke="none" stroke-width="1" fill="none" fill-rule="evenodd">
        <g id="icon-chair-">
            <rect id="Rectangle" x="0" y="0" width="105" height="80"></rect>
            <path d="M9.61412608,60 L34.5227172,60 C37.2619019,60 39.5835783,57.9843677 39.9682215,55.2723237 L44.9681106,20.019084 C45.1734202,18.5714864 44.1663467,17.2315403 42.718749,17.0262307 C42.5956038,17.0087653 42.4713807,17 42.3470031,17 L42.3470031,17 C40.590433,17 39.0943354,18.2766302 38.817994,20.0113273 L34.4918546,47.1681062 C34.0665364,49.8379862 31.763886,51.8028533 29.0603412,51.8028533 L10.7229615,51.8028533 C8.35417733,51.8028533 6.35017774,53.5540218 6.03264216,55.9014267 L6.03264216,55.9014267 C5.76507645,57.8794256 7.15165656,59.6998154 9.12965551,59.9673812 C9.29023186,59.9891025 9.45208726,60 9.61412608,60 Z" id="Path-10" fill="#C18951" transform="translate(25.500000, 38.500000) scale(-1, 1) translate(-25.500000, -38.500000) "></path>
            <path d="M16.512118,53.248612 L10.8543425,75.0320033 L10.8319597,75.1028824 L10.8204994,75.1391733 L8.71895277,75.1524513 L14.8469969,51.988495 C15.0791105,51.1111074 15.8729101,50.5 16.7804815,50.5 L33.1639163,50.5 C34.0755088,50.5 34.8717592,51.1164273 35.1001364,51.998949 L41.2235317,75.6616932 L39.1387767,75.6869749 L33.4268813,53.2532601 C33.314059,52.8101458 32.9150513,52.5 32.4577996,52.5 L17.4800044,52.5 C17.0245399,52.5 16.6266163,52.8077741 16.512118,53.248612 Z" id="Path-7-Copy" fill="#000000" fill-rule="nonzero"></path>
            <path d="M54.5,15.1570418 L54.5,75" id="Path-5" stroke="#C18951" stroke-linecap="square"></path>
            <path d="M13.6095138,67 L36.9416287,67" id="Path-8" stroke="#000000" stroke-width="2" stroke-linecap="square"></path>
            <path d="M65.6141261,60 L90.5227172,60 C93.2619019,60 95.5835783,57.9843677 95.9682215,55.2723237 L100.968111,20.019084 C101.17342,18.5714864 100.166347,17.2315403 98.718749,17.0262307 C98.5956038,17.0087653 98.4713807,17 98.3470031,17 L98.3470031,17 C96.590433,17 95.0943354,18.2766302 94.817994,20.0113273 L90.4918546,47.1681062 C90.0665364,49.8379862 87.763886,51.8028533 85.0603412,51.8028533 L66.7229615,51.8028533 C64.3541773,51.8028533 62.3501777,53.5540218 62.0326422,55.9014267 L62.0326422,55.9014267 C61.7650764,57.8794256 63.1516566,59.6998154 65.1296555,59.9673812 C65.2902319,59.9891025 65.4520873,60 65.6141261,60 Z" id="Path-10" fill="#C18951"></path>
            <path d="M70.9736668,76.0263018 L69.0006794,76.0263018 L68.0114986,44.562847 C67.9767891,43.458823 68.8436398,42.5356971 69.9476639,42.5009877 C69.9686064,42.5003293 69.989558,42.5 70.0105109,42.5 L83.9036302,42.5 C84.658315,42.5 85.3487375,42.9248131 85.6889198,43.5984786 L101.643022,75.1925069 L101.973667,76.3122169 L99.9463273,76.3122169 L84.0908748,45.0477001 C83.9204838,44.7117151 83.5757303,44.5 83.1990089,44.5 L71.0320275,44.5 C70.4797428,44.5 70.0320275,44.9477153 70.0320275,45.5 C70.0320275,45.5102844 70.0321862,45.5205682 70.0325034,45.5308477 L70.9736668,76.0263018 Z" id="Path-9-Copy" fill="#000000" fill-rule="nonzero"></path>
        </g>
    </g>
</svg>