<svg xmlns="http://www.w3.org/2000/svg" width="209.061" height="271.291" viewBox="0 0 209.061 271.291">
  <g id="Group_2" data-name="Group 2" transform="translate(1 -0.425)">
    <g id="Group_2-2" data-name="Group 2" transform="translate(65)">
      <path id="Combined_Shape" data-name="Combined Shape" d="M30.726,110.723H30.7l-14.411-.311c-.261-.678-.725-1.91-1.343-3.562l-.055-.147,0-.005c-.2-.743-4.827-18.433-8.8-39.414C4.909,61.023,3.885,55.009,3.052,49.412A4.5,4.5,0,0,0,1.864,40.7C1.571,38.32,1.315,36,1.1,33.807-.074,21.712-.092,12.082,1.049,5.183l.757-3.946A.994.994,0,0,1,2.794.425a.974.974,0,0,1,.9.578l6.322,13.576a4.5,4.5,0,0,0,1.3,2.785L33.1,64.154A83.141,83.141,0,0,0,27.039,74.42c-2.66,5.368-5.625,13.067-4.649,19.266a30.357,30.357,0,0,0,7.467,15.174c.8.949,1.281,1.522,1.175,1.751C31,110.687,30.9,110.723,30.726,110.723Z" fill="#c18951"/>
      <path id="Path_15" data-name="Path 15" d="M14,56s-.948-9.421-2.5-17A231.391,231.391,0,0,0,0,0" transform="translate(10 26.686)" fill="none" stroke="#fff" stroke-miterlimit="10" stroke-width="1"/>
      <path id="Path" d="M0,33.323l8.142-.582A28,28,0,0,0,33.182,12.1L36.444,0h6.944l-9.5,39.2h-32Z" transform="translate(15.5 110.863)" fill="#c18951"/>
      <path id="Path_11" data-name="Path 11" d="M0,0H50.5L41,39.364H9Z" transform="translate(8.389 110.699)" fill="none" stroke="#333" stroke-linejoin="round" stroke-miterlimit="10" stroke-width="2"/>
      <path id="Path_18" data-name="Path 18" d="M0,.5H121.626" transform="translate(5.5 150.5)" fill="none" stroke="#333" stroke-miterlimit="10" stroke-width="1"/>
      <path id="Path_13" data-name="Path 13" d="M27.5,109.494s12-9.5,16.5-22,2-42.5,4-51.5,3.225-18,3.225-22c0,0-5.225,1-6.725-2-1.791-3.583.633-5.041,3-8,0,0-11.611-7.988-20,0s-3,22.013-3,31-.5,6.5-16.5,32,0,42.5,0,42.5Z" transform="translate(22.389 1.205)" fill="none" stroke="#333" stroke-linejoin="round" stroke-miterlimit="10" stroke-width="2"/>
      <path id="Path_8" data-name="Path 8" d="M.151,108.677S-1.436,83,13.66,60,20.548,0,20.548,0" transform="translate(37.34 2.186)" fill="none" stroke="#333" stroke-miterlimit="10" stroke-width="1"/>
      <path id="Path_9" data-name="Path 9" d="M0,4S9.278,0,13.889,0" transform="translate(45 69.186)" fill="none" stroke="#333" stroke-miterlimit="10" stroke-width="1"/>
      <path id="Path_10" data-name="Path 10" d="M2.885,8S2.56,2,0,0" transform="translate(49.06 52.186)" fill="none" stroke="#333" stroke-miterlimit="10" stroke-width="1"/>
      <path id="Path_14" data-name="Path 14" d="M8.835,8.5S4,0,0,0" transform="translate(51.944 18.186)" fill="none" stroke="#333" stroke-miterlimit="10" stroke-width="1"/>
      <path id="Path_16" data-name="Path 16" d="M0,13A58.64,58.64,0,0,0,1.389,0" transform="translate(21 50.186)" fill="none" stroke="#fff" stroke-miterlimit="10" stroke-width="1"/>
      <path id="Path_17" data-name="Path 17" d="M7,4.5S1.5,3,0,0" transform="translate(8.5 37.186)" fill="none" stroke="#fff" stroke-miterlimit="10" stroke-width="1"/>
    </g>
    <g id="Group_1" data-name="Group 1">
      <ellipse id="Oval" cx="8.5" cy="21" rx="8.5" ry="21" transform="translate(124 247) rotate(180)" fill="#c18951"/>
      <path id="_404" data-name="404" d="M197.58,87.6H184.74V69.24H145.5V64.08L191.7,1.8h5.88V60.84h9.481v8.4H197.58V87.6ZM184.74,25.8,158.46,60.84h26.28ZM52.08,87.6H39.24V69.24H0V64.08L46.2,1.8H52.08V60.84h9.48v8.4H52.08V87.6ZM39.24,25.8,12.96,60.84H39.24Zm66.63,61.8a27.72,27.72,0,0,1-13.125-3.074A28.9,28.9,0,0,1,82.65,75.3a45.115,45.115,0,0,1-6.435-14.025A66.8,66.8,0,0,1,74.07,43.8a67.207,67.207,0,0,1,2.145-17.55A44.747,44.747,0,0,1,82.65,12.24a28.863,28.863,0,0,1,10.1-9.18A29.745,29.745,0,0,1,119,3.045,28.8,28.8,0,0,1,129.09,12.18a44.328,44.328,0,0,1,6.435,14A67.572,67.572,0,0,1,137.67,43.8a66.729,66.729,0,0,1-2.146,17.475A45.106,45.106,0,0,1,129.09,75.3,28.91,28.91,0,0,1,119,84.525,27.722,27.722,0,0,1,105.87,87.6Zm0-80.519c-5.175,0-9.253,3.593-12.119,10.679S89.43,33.608,89.43,43.8s1.453,18.953,4.32,26.04,6.944,10.68,12.119,10.68,9.254-3.593,12.12-10.68,4.32-15.848,4.32-26.04-1.453-18.954-4.32-26.041S111.046,7.08,105.87,7.08Z" transform="translate(0 183)" fill="rgba(193,137,81,0)" stroke="#333" stroke-miterlimit="10" stroke-width="2"/>
    </g>
  </g>
</svg>
