<?xml version="1.0" encoding="UTF-8"?>
<svg width="100px" height="100px" viewBox="0 0 100 100" version="1.1" xmlns="http://www.w3.org/2000/svg" xmlns:xlink="http://www.w3.org/1999/xlink">
    <!-- Generator: Sketch 54.1 (76490) - https://sketchapp.com -->
    <title>Ico Copy</title>
    <desc>Created with Sketch.</desc>
    <g id="Ico-Copy" stroke="none" stroke-width="1" fill="none" fill-rule="evenodd">
        <path d="M20,14 L81,14 C86.5228475,14 91,18.4771525 91,24 L91,78 L91,86.4135753 C91,87.5181448 90.1045695,88.4135753 89,88.4135753 C88.4951772,88.4135753 88.0090287,88.2226695 87.6390978,87.8791622 L77,78 L20,78 C14.4771525,78 10,73.5228475 10,68 L10,24 C10,18.4771525 14.4771525,14 20,14 Z M33,52 C35.7614237,52 38,49.7614237 38,47 C38,44.2385763 35.7614237,42 33,42 C30.2385763,42 28,44.2385763 28,47 C28,49.7614237 30.2385763,52 33,52 Z M50,52 C52.7614237,52 55,49.7614237 55,47 C55,44.2385763 52.7614237,42 50,42 C47.2385763,42 45,44.2385763 45,47 C45,49.7614237 47.2385763,52 50,52 Z M67,52 C69.7614237,52 72,49.7614237 72,47 C72,44.2385763 69.7614237,42 67,42 C64.2385763,42 62,44.2385763 62,47 C62,49.7614237 64.2385763,52 67,52 Z" id="Combined-Shape" fill="#FFFFFF"></path>
    </g>
</svg>