<?xml version="1.0" encoding="UTF-8"?>
<svg width="27px" height="27px" viewBox="0 0 27 27" version="1.1" xmlns="http://www.w3.org/2000/svg" xmlns:xlink="http://www.w3.org/1999/xlink">
    <!-- Generator: Sketch 53.2 (72643) - https://sketchapp.com -->
    <title>icon-trash</title>
    <desc>Created with Sketch.</desc>
    <g id="Symbols" stroke="none" stroke-width="1" fill="none" fill-rule="evenodd">
        <g id="icon-trash">
            <rect id="Rectangle" x="0" y="0" width="27" height="27"></rect>
            <g id="trash-2" transform="translate(3.000000, 3.000000)" stroke="#333333">
                <polyline id="Path" points="0 4.5 2.44444444 4.5 22 4.5"></polyline>
                <path d="M19,4.4 L19,19.8 C19,21.0150264 17.9766509,22 16.7142857,22 L5.28571429,22 C4.02334914,22 3,21.0150264 3,19.8 L3,4.4 M6.42857143,4.4 L6.42857143,2.2 C6.42857143,0.98497355 7.45192057,0 8.71428571,0 L13.2857143,0 C14.5480794,0 15.5714286,0.98497355 15.5714286,2.2 L15.5714286,4.4" id="Shape"></path>
                <path d="M8.5,10 L8.5,17" id="Path"></path>
                <path d="M13.5,10 L13.5,17" id="Path"></path>
            </g>
        </g>
    </g>
</svg>