<?xml version="1.0" encoding="UTF-8"?>
<svg width="27px" height="27px" viewBox="0 0 27 27" version="1.1" xmlns="http://www.w3.org/2000/svg" xmlns:xlink="http://www.w3.org/1999/xlink">
    <!-- Generator: Sketch 53.2 (72643) - https://sketchapp.com -->
    <title>icon-contact-active</title>
    <desc>Created with Sketch.</desc>
    <g id="Symbols" stroke="none" stroke-width="1" fill="none" fill-rule="evenodd" stroke-linejoin="round">
        <g id="icon-contact-active" stroke="#C18951">
            <g id="phone" transform="translate(3.000000, 3.000000)">
                <path d="M21.9993092,16.4712204 L21.9993092,19.7831061 C22.0018377,20.4047969 21.7416286,20.998743 21.2826082,21.4190285 C20.8235877,21.839314 20.2082969,22.0469877 19.5878955,21.99103 C16.1840788,21.6219101 12.9144731,20.4610983 10.0417945,18.6018669 C7.36913858,16.9069142 5.10319289,14.6454571 3.40487609,11.9780954 C1.53545313,9.0980839 0.372073168,5.81908581 0.00898616379,2.40674552 C-0.0469041998,1.78948987 0.159723864,1.17721061 0.578395912,0.719473371 C0.997067959,0.261736131 1.58923007,0.000692194259 2.21023078,0.000108540369 L5.52868999,0.000108540369 C6.6391173,-0.0107987769 7.58558256,0.801548995 7.74099613,1.89892304 C7.88106057,2.95879984 8.14081456,3.99946106 8.51530328,5.00105603 C8.81920225,5.80791423 8.62482911,6.71750294 8.0175344,7.33041568 L6.61272,8.73244732 C8.18739026,11.4962666 10.4803335,13.7846678 13.2496384,15.3562188 L14.6544528,13.9541872 C15.2685821,13.3480955 16.1799761,13.1541074 16.9884358,13.4574043 C17.9920188,13.8311512 19.0347455,14.0903907 20.0967259,14.2301777 C21.2090322,14.3867861 22.0271732,15.35047 21.9993092,16.4712204 Z" id="Path"></path>
            </g>
        </g>
    </g>
</svg>