<?xml version="1.0" encoding="UTF-8"?>
<svg width="27px" height="27px" viewBox="0 0 27 27" version="1.1" xmlns="http://www.w3.org/2000/svg" xmlns:xlink="http://www.w3.org/1999/xlink">
    <!-- Generator: Sketch 53.2 (72643) - https://sketchapp.com -->
    <title>social - twitter</title>
    <desc>Created with Sketch.</desc>
    <g id="Symbols" stroke="none" stroke-width="1" fill="none" fill-rule="evenodd">
        <g id="social---twitter">
            <rect id="Rectangle-Copy-3" x="0" y="0" width="27" height="27"></rect>
            <path d="M26,3.98338303 C24.9553291,4.73626041 23.7986631,5.3120908 22.5745455,5.68869896 C21.2287559,4.10770145 19.06004,3.55328041 17.1440889,4.30043073 C15.2281378,5.04758104 13.9725094,6.93737016 14,9.0324557 L14,10.1470413 C10.1061798,10.2501988 6.42039125,8.3547548 4.18181818,5.09796861 C4.18181818,5.09796861 -0.181818182,15.1292388 9.63636364,19.5875811 C7.38966643,21.1457342 4.71326209,21.9270175 2,21.8167523 C11.8181818,27.3896802 23.8181818,21.8167523 23.8181818,8.99901813 C23.8171772,8.68855437 23.7879609,8.37885647 23.7309091,8.0739121 C24.8442943,6.952074 25.6299935,5.53568062 26,3.98338303 Z" id="Path" stroke="#333333"></path>
        </g>
    </g>
</svg>