<svg xmlns="http://www.w3.org/2000/svg" width="26.838" height="21.809" viewBox="0 0 26.838 21.809">
  <path id="Path" d="M24,.011a11.788,11.788,0,0,1-3.425,1.705A4.819,4.819,0,0,0,15.144.328,4.993,4.993,0,0,0,12,5.061V6.175A11.551,11.551,0,0,1,2.182,1.126s-4.364,10.031,5.455,14.49A12.5,12.5,0,0,1,0,17.845c9.818,5.573,21.818,0,21.818-12.818a5.121,5.121,0,0,0-.087-.925A8.653,8.653,0,0,0,24,.011Z" transform="translate(2.041 1.18)" fill="none" stroke="#333" stroke-miterlimit="10" stroke-width="1"/>
</svg>
