<?xml version="1.0" encoding="UTF-8"?>
<svg width="145px" height="37px" viewBox="0 0 145 37" version="1.1" xmlns="http://www.w3.org/2000/svg" xmlns:xlink="http://www.w3.org/1999/xlink">
    <!-- Generator: Sketch 53.2 (72643) - https://sketchapp.com -->
    <title>logo</title>
    <desc>Created with Sketch.</desc>
    <defs>
        <path d="M-1.42108547e-14,20.469697 L-1.42108547e-14,0.346564234 L3.7944183,0.346564234 L3.7944183,9.91143833 L11.9881622,0.318181818 L16.1675214,0.318181818 L8.68866799,9.25864277 L16.6349498,20.469697 L12.3731031,20.469697 L6.29653471,11.7562953 L3.7944183,14.4526248 L3.7944183,20.469697 L-1.42108547e-14,20.469697 Z M74.4176802,20.469697 L74.4176802,0.346564234 L78.2120985,0.346564234 L78.2120985,9.91143833 L86.4058423,0.318181818 L90.5852016,0.318181818 L83.1063482,9.25864277 L91.05263,20.469697 L86.7907833,20.469697 L80.7142149,11.7562953 L78.2120985,14.4526248 L78.2120985,20.469697 L74.4176802,20.469697 Z M25.3554913,0.318181818 L28.709977,0.318181818 L36.1338389,20.469697 L31.9170146,20.469697 L27.0189863,5.7900213 L22.3182522,20.469697 L17.9041336,20.469697 L25.3554913,0.318181818 Z M63.6684249,17.0312566 C64.566625,17.0312566 65.3227515,16.8433656 65.9368271,16.4675779 C66.5509027,16.0917902 67.0458219,15.6032735 67.4215995,15.0020131 C67.7973771,14.4007528 68.063167,13.7102532 68.2189772,12.9304937 C68.3747875,12.1507343 68.4526914,11.3475001 68.4526914,10.5207671 L68.4526914,0.318181818 L72.2196139,0.318181818 L72.2196139,10.5207671 C72.2196139,11.8923923 72.0592235,13.1794458 71.7384377,14.3819665 C71.4176519,15.5844872 70.9135676,16.636677 70.2261695,17.5385675 C69.5387715,18.440458 68.6543326,19.1544439 67.5728263,19.6805467 C66.49132,20.2066495 65.1990311,20.469697 63.6959206,20.469697 C62.1378184,20.469697 60.8134513,20.1925577 59.7227797,19.6382708 C58.6321082,19.0839839 57.7476693,18.3512089 57.0694365,17.4399237 C56.3912038,16.5286385 55.9008672,15.4717514 55.598412,14.2692308 C55.2959569,13.0667101 55.1447316,11.8172347 55.1447316,10.5207671 L55.1447316,0.318181818 L58.9391499,0.318181818 L58.9391499,10.5207671 C58.9391499,11.3662895 59.0170538,12.1789182 59.1728641,12.9586777 C59.3286743,13.7384372 59.5944642,14.4289367 59.9702418,15.0301971 C60.3460194,15.6314574 60.836356,16.1152768 61.4412663,16.4816698 C62.0461766,16.8480629 62.7885554,17.0312566 63.6684249,17.0312566 Z M100.767646,17.0312566 C101.665847,17.0312566 102.421973,16.8433656 103.036049,16.4675779 C103.650124,16.0917902 104.145043,15.6032735 104.520821,15.0020131 C104.896599,14.4007528 105.162389,13.7102532 105.318199,12.9304937 C105.474009,12.1507343 105.551913,11.3475001 105.551913,10.5207671 L105.551913,0.318181818 L109.318836,0.318181818 L109.318836,10.5207671 C109.318836,11.8923923 109.158445,13.1794458 108.837659,14.3819665 C108.516874,15.5844872 108.012789,16.636677 107.325391,17.5385675 C106.637993,18.440458 105.753554,19.1544439 104.672048,19.6805467 C103.590542,20.2066495 102.298253,20.469697 100.795142,20.469697 C99.23704,20.469697 97.9126729,20.1925577 96.8220013,19.6382708 C95.7313298,19.0839839 94.8468909,18.3512089 94.1686581,17.4399237 C93.4904254,16.5286385 93.0000888,15.4717514 92.6976336,14.2692308 C92.3951785,13.0667101 92.2439532,11.8172347 92.2439532,10.5207671 L92.2439532,0.318181818 L96.0383715,0.318181818 L96.0383715,10.5207671 C96.0383715,11.3662895 96.1162754,12.1789182 96.2720856,12.9586777 C96.4278959,13.7384372 96.6936858,14.4289367 97.0694634,15.0301971 C97.445241,15.6314574 97.9355776,16.1152768 98.5404879,16.4816698 C99.1453982,16.8480629 99.8877769,17.0312566 100.767646,17.0312566 Z M44.5691019,17.0358534 C45.4831556,17.0387729 46.2520296,16.8535993 46.875747,16.4803272 C47.4994644,16.107055 48.0015632,15.6208225 48.3820584,15.0216149 C48.7625537,14.4224073 49.0308357,13.7337263 49.1869126,12.9555514 C49.3429894,12.1773765 49.4197102,11.3755061 49.4170771,10.5499162 L49.3845828,0.361437543 L53.2179928,0.373681415 L53.2504871,10.5621601 C53.2548556,11.9318888 53.0957333,13.2166415 52.7731155,14.4164568 C52.4504977,15.6162722 51.9408672,16.6653687 51.2442088,17.5637779 C50.5475504,18.4621871 49.6497748,19.1723111 48.5508551,19.6941712 C47.4519355,20.2160313 46.137675,20.4745147 44.6080341,20.469629 C43.0224308,20.4645646 41.6738056,20.1835038 40.5621179,19.6264383 C39.4504303,19.0693727 38.5480469,18.3347361 37.8549408,17.4225064 C37.1618346,16.5102766 36.6594773,15.4532571 36.3478538,14.251416 C36.0362303,13.0495749 35.8783564,11.8013356 35.8742272,10.5066605 L35.8417329,0.318181818 L39.703124,0.330515062 L39.7356183,10.5189938 C39.7383112,11.3633471 39.8201784,12.1751054 39.9812221,12.9542932 C40.1422659,13.733481 40.4149463,14.4238898 40.7992715,15.0255402 C41.1835967,15.6271906 41.6841288,16.1119349 42.3008829,16.4797875 C42.917637,16.8476401 43.6737024,17.0329935 44.5691019,17.0358534 Z M49.5,10 L53.25,10 L53.25,30.35 L49.5,30.35 L49.5,10 Z" id="path-1"></path>
    </defs>
    <g id="logo" stroke="none" stroke-width="1" fill="none" fill-rule="evenodd">
        <g id="Group" transform="translate(-0.500000, 0.000000)">
            <g id="Group-3" transform="translate(1.000000, 1.000000)">
                <g id="KAYUKU.-Copy-2" transform="translate(35.000000, 4.680000)">
                    <mask id="mask-2" fill="white">
                        <use xlink:href="#path-1"></use>
                    </mask>
                    <use id="KAYUKU.-Copy" fill="#9A6836" fill-rule="nonzero" xlink:href="#path-1"></use>
                </g>
                <g id="Group-2" transform="translate(15.000000, 15.000000) scale(1, -1) translate(-15.000000, -15.000000) ">
                    <path d="M13.8461538,0.0437188079 L13.8461538,0 L30,0 L30,16.1538462 L29.9562812,16.1538462 C29.3960679,23.5181609 23.5181609,29.3960679 16.1538462,29.9562812 L16.1538462,30 L0,30 L0,13.8461538 L0.0437188079,13.8461538 C0.60393207,6.48183913 6.48183913,0.60393207 13.8461538,0.0437188079 Z" id="Combined-Shape" fill="#C18951"></path>
                    <rect id="Rectangle" fill="#9A6836" x="0" y="16.6666667" width="13.3333333" height="13.3333333"></rect>
                    <rect id="Rectangle-Copy" fill="#9A6836" x="0" y="16.6666667" width="13.3333333" height="13.3333333"></rect>
                    <path d="M25.6066017,4.39339828 C25.6084671,4.39526363 25.6103319,4.39712948 25.6121963,4.39899581 L4.39532091,25.608524 C4.39467998,25.6078833 4.3940391,25.6072425 4.39339828,25.6066017 L0,30 L0,13.8461538 L0.0437188079,13.8461538 C0.60393207,6.48183913 6.48183913,0.60393207 13.8461538,0.0437188079 L13.8461538,0 L30,0 L25.6066017,4.39339828 Z" id="Combined-Shape-Copy-3" fill="#FFFFFF" opacity="0.100000001"></path>
                </g>
            </g>
        </g>
    </g>
</svg>