<?xml version="1.0" encoding="UTF-8"?>
<svg width="27px" height="27px" viewBox="0 0 27 27" version="1.1" xmlns="http://www.w3.org/2000/svg" xmlns:xlink="http://www.w3.org/1999/xlink">
    <!-- Generator: Sketch 53.2 (72643) - https://sketchapp.com -->
    <title>icons-tebal</title>
    <desc>Created with Sketch.</desc>
    <g id="icons-tebal" stroke="none" stroke-width="1" fill="none" fill-rule="evenodd">
        <rect id="Rectangle" x="0" y="0" width="27" height="27"></rect>
        <g id="Group-Copy" transform="translate(4.000000, 5.000000)" stroke="#C18951">
            <path d="M2.5,13.5 L17.5,13.5 L17.5,3 C17.5,1.61928813 16.3807119,0.5 15,0.5 L5,0.5 C3.61928813,0.5 2.5,1.61928813 2.5,3 L2.5,13.5 Z" id="Rectangle"></path>
            <path d="M7.5,1 L7.5,13" id="Path"></path>
            <polyline id="Path-Copy" points="12.5 1 12.5 6 12.5 13"></polyline>
            <path d="M2.30901699,13.5 L0.809016994,16.5 L19.190983,16.5 L17.690983,13.5 L2.30901699,13.5 Z" id="Rectangle"></path>
        </g>
        <g id="Group" transform="translate(5.500000, 18.000000)">
            <path d="M0,2.25 L0.778390639,0.601643352 C0.951850328,0.234316953 1.3216289,3.79957422e-16 1.72785168,6.66133815e-16 L15.2721483,1.33226763e-14 C15.6783711,1.46912476e-14 16.0481497,0.234316953 16.2216094,0.601643352 L17,2.25 L0,2.25 Z" id="Path-30" fill="#9A6836"></path>
            <path d="M0,3 L0,2.54999995 C-7.10171406e-17,1.97010099 0.470100991,1.5 1.04999995,1.5 L15.95,1.5 C16.529899,1.5 17,1.97010099 17,2.54999995 L17,3" id="Path-28" fill="#895C2E"></path>
        </g>
    </g>
</svg>