<?xml version="1.0" encoding="UTF-8"?>
<svg width="27px" height="27px" viewBox="0 0 27 27" version="1.1" xmlns="http://www.w3.org/2000/svg" xmlns:xlink="http://www.w3.org/1999/xlink">
    <!-- Generator: Sketch 53.2 (72643) - https://sketchapp.com -->
    <title>icons-tiang-bulat</title>
    <desc>Created with Sketch.</desc>
    <g id="icons-tiang-bulat" stroke="none" stroke-width="1" fill="none" fill-rule="evenodd">
        <rect id="Rectangle" x="0" y="0" width="27" height="27"></rect>
        <g id="Group" transform="translate(14.000000, 13.500000) rotate(-40.000000) translate(-14.000000, -13.500000) translate(12.000000, 0.000000)" fill="#9A6836">
            <g id="Group-2">
                <path d="M3.94709816,1.99930023 L3.30919027,26.1075248 C3.2960482,26.6041984 2.8896351,27 2.39278761,27 L2.39278761,27 C1.89190045,27 1.47826127,26.6087029 1.45047705,26.108587 L0.110940039,1.99692071 C0.0529789833,0.953621699 0.851753217,0.060874026 1.89505222,0.00291297006 C1.93000114,0.000971363909 1.9649972,5.24223423e-15 2,5.32907052e-15 L2,5.32907052e-15 C3.075729,7.99778017e-15 3.94777966,0.87205066 3.94777966,1.94777966 C3.94777966,1.96495544 3.94755248,1.98213046 3.94709816,1.99930023 Z" id="Rectangle"></path>
            </g>
        </g>
    </g>
</svg>