<?xml version="1.0" encoding="UTF-8"?>
<svg width="200px" height="200px" viewBox="0 0 200 200" version="1.1" xmlns="http://www.w3.org/2000/svg" xmlns:xlink="http://www.w3.org/1999/xlink">
    <!-- Generator: Sketch 53.2 (72643) - https://sketchapp.com -->
    <title>Illustrasi-upload</title>
    <desc>Created with Sketch.</desc>
    <g id="Illustrasi-upload" stroke="none" stroke-width="1" fill="none" fill-rule="evenodd">
        <g id="Group" transform="translate(13.000000, 29.750000)">
            <path d="M100.666667,120.25 L131.850234,120.25 L132.485077,120.224889 C149.497003,119.551997 163,105.462706 163,88.282967 C163,71.0616861 149.433919,56.9524557 132.374092,56.3368509 L130.963181,56.285938 L131.479395,54.9718661 C133.23484,50.5032194 134.147541,45.7212319 134.147541,40.8104396 C134.147541,19.512874 116.979,2.25 95.8032787,2.25 C74.6275577,2.25 57.4590164,19.512874 57.4590164,40.8104396 C57.4590164,41.9972542 57.5123021,43.1774064 57.6182052,44.3485544 L57.7595351,45.9114749 L56.2832002,45.3793754 C52.1686319,43.8964058 47.8093756,43.1291209 43.3442623,43.1291209 C22.1685413,43.1291209 5,60.3919948 5,81.6895604 C5,101.551547 20.0014218,118.112126 39.5091738,120.059616 L40.4098361,120.14953 L40.4098361,120.25 L74.3333333,120.25 L74.3333333,98.9772727 L48.6864791,98.9772727 L88.3865839,56.7718383 L126.240172,98.9772727 L100.666667,98.9772727 L100.666667,120.25 Z" id="Combined-Shape" stroke="#333333" stroke-width="2"></path>
            <path d="M79.6791006,66.4883381 L51,96.9772727 L75.3333333,96.9772727 L75.3333333,121.25 L39.4098361,121.25 L39.4098361,121.054669 C19.5279107,119.069825 4,102.203025 4,81.6895604 C4,59.840933 21.6150262,42.1291209 43.3442623,42.1291209 C59.7166412,42.1291209 73.7532984,52.1844816 79.6791006,66.4883381 Z M102.280556,72.7608483 C107.801046,62.379223 118.686728,55.3159341 131.213115,55.3159341 C149.320811,55.3159341 164,70.0757775 164,88.282967 C164,106.048511 150.024311,120.531922 132.5246,121.224108 L132.52459,121.25 L99.6666667,121.25 L99.6666667,96.9772727 L124,96.9772727 L102.280556,72.7608483 Z" id="Combined-Shape-Copy" fill="#C18951"></path>
            <path d="M22.9187518,8.31990132 C25.7963368,8.76208024 28,11.2486936 28,14.25 C28,17.5637085 25.3137085,20.25 22,20.25 L8,20.25 L8,20.1791111 C7.67339702,20.225828 7.33952134,20.25 7,20.25 C3.13400675,20.25 0,17.1159932 0,13.25 C0,9.38400675 3.13400675,6.25 7,6.25 C7.70761168,6.25 8.39070052,6.35499479 9.03453734,6.55025519 C9.38562624,3.01280698 12.370169,0.25 16,0.25 C19.8659932,0.25 23,3.38400675 23,7.25 C23,7.61378221 22.9722501,7.97108309 22.9187518,8.31990132 Z" id="Combined-Shape" fill="#C18951"></path>
            <path d="M170.918752,130.319901 C173.796337,130.76208 176,133.248694 176,136.25 C176,139.563708 173.313708,142.25 170,142.25 L156,142.25 L156,142.179111 C155.673397,142.225828 155.339521,142.25 155,142.25 C151.134007,142.25 148,139.115993 148,135.25 C148,131.384007 151.134007,128.25 155,128.25 C155.707612,128.25 156.390701,128.354995 157.034537,128.550255 C157.385626,125.012807 160.370169,122.25 164,122.25 C167.865993,122.25 171,125.384007 171,129.25 C171,129.613782 170.97225,129.971083 170.918752,130.319901 Z" id="Combined-Shape-Copy-2" fill="#C18951" transform="translate(162.000000, 132.250000) scale(-1, 1) translate(-162.000000, -132.250000) "></path>
            <polygon id="Rectangle-Copy" stroke="#333333" stroke-width="2" stroke-linejoin="round" points="88.8809524 57 125 96.3090909 100.333333 96.3090909 100.333333 151 75.6666667 151 75.6666667 96.3090909 51 96.3090909"></polygon>
        </g>
    </g>
</svg>