<?xml version="1.0" encoding="UTF-8"?>
<svg width="289px" height="164px" viewBox="0 0 289 164" version="1.1" xmlns="http://www.w3.org/2000/svg" xmlns:xlink="http://www.w3.org/1999/xlink">
    <!-- Generator: Sketch 53.2 (72643) - https://sketchapp.com -->
    <title>Group 17</title>
    <desc>Created with Sketch.</desc>
    <defs>
        <rect id="path-1" x="0" y="42" width="233" height="71"></rect>
        <filter x="-22.7%" y="-43.7%" width="145.5%" height="249.3%" filterUnits="objectBoundingBox" id="filter-2">
            <feOffset dx="0" dy="22" in="SourceAlpha" result="shadowOffsetOuter1"></feOffset>
            <feGaussianBlur stdDeviation="14" in="shadowOffsetOuter1" result="shadowBlurOuter1"></feGaussianBlur>
            <feColorMatrix values="0 0 0 0 0   0 0 0 0 0   0 0 0 0 0  0 0 0 0.07 0" type="matrix" in="shadowBlurOuter1"></feColorMatrix>
        </filter>
    </defs>
    <g id="main" stroke="none" stroke-width="1" fill="none" fill-rule="evenodd">
        <g id="Homepage" transform="translate(-373.000000, -3497.000000)">
            <g id="Tentang-" transform="translate(203.000000, 3361.000000)">
                <g id="Group-4">
                    <g id="Group-17" transform="translate(198.000000, 137.000000)">
                        <g id="Rectangle">
                            <use fill="black" fill-opacity="1" filter="url(#filter-2)" xlink:href="#path-1"></use>
                            <use fill="#FFFFFF" fill-rule="evenodd" xlink:href="#path-1"></use>
                        </g>
                        <circle id="Oval" fill="#C18951" cx="63.5" cy="74.5" r="15.5"></circle>
                        <text id="Buka" stroke="#000000" stroke-width="2" font-family="OpenSans-Bold, Open Sans" font-size="24" font-weight="bold" fill="#333333" fill-opacity="0">
                            <tspan x="16" y="89">Buka </tspan>
                        </text>
                        <g id="Group-8" transform="translate(105.000000, 0.000000)">
                            <path d="M0,107.5 L128,107.5" id="Path-3" stroke="#333333"></path>
                            <rect id="Rectangle" stroke="#333333" stroke-width="2" stroke-linejoin="round" x="7" y="28" width="92" height="79"></rect>
                            <g id="Group" transform="translate(94.000000, 83.000000)">
                                <path d="M2.07692308,4.16666667 L2.07692308,25" id="Line-2" stroke="#333333" stroke-width="2" stroke-linejoin="round"></path>
                                <path d="M24.2307692,4.16666667 L24.2307692,24.3842371" id="Line-2-Copy" stroke="#333333" stroke-width="2" stroke-linejoin="round"></path>
                                <path d="M2.08069063,3.06376231 C2.19519424,2.69156822 2.36694966,2.13327708 2.59595688,1.38888889 C5.98536211,3.19616639 9.26980471,4.09466364 12.4553357,4.09466364 C15.6408667,4.09466364 20.3099247,3.19616639 23.6993299,1.38888889 C23.9339362,2.15147682 24.1098909,2.72341778 24.2271941,3.10471174 C24.388112,3.62777558 19.3846154,7.63888889 13.1476434,7.63888889 C6.91067145,7.63888889 1.91557342,3.60047596 2.08069063,3.06376231 Z" id="Path-23" fill="#C18951"></path>
                                <ellipse id="Oval-Copy" fill="#9A6836" cx="24.5769231" cy="2.43055556" rx="2.42307692" ry="2.43055556"></ellipse>
                                <ellipse id="Oval" fill="#9A6836" cx="2.42307692" cy="2.43055556" rx="2.42307692" ry="2.43055556"></ellipse>
                            </g>
                            <rect id="Rectangle" fill="#C18951" x="18" y="69" width="24" height="37"></rect>
                            <circle id="Oval" stroke="#333333" stroke-width="2" stroke-linejoin="round" cx="38" cy="88" r="2"></circle>
                            <rect id="Rectangle-Copy-8" stroke="#333333" stroke-width="2" stroke-linejoin="round" x="53" y="65" width="39" height="25"></rect>
                            <g id="Group-7" transform="translate(0.000000, 19.000000)">
                                <polygon id="Path-22" fill="#C18951" points="8.48 0 97.8733333 0 106 32.7786885 0 32.7786885"></polygon>
                                <polygon id="Path-22-Copy" fill="#C18951" points="8.48 -1.42108547e-14 24.7333333 -1.42108547e-14 21.2 32.7786885 0 32.7786885"></polygon>
                                <path d="M42.3942221,32.7786885 C42.207843,38.455261 37.5359784,43 31.8,43 C26.0640216,43 21.392157,38.455261 21.2057779,32.7786885 L21.2,32.7786885 L21.2044912,32.7370242 C21.2015039,32.63379 21.2,32.5301849 21.2,32.4262295 L21.2379928,32.4262295 L24.7333333,-3.55271368e-14 L43.1066667,-3.55271368e-14 L42.4,32.7786885 L42.3942221,32.7786885 Z" id="Combined-Shape" fill="#FFFFFF"></path>
                                <path d="M31.8,42.295082 C37.2639371,42.295082 41.6933333,37.8766462 41.6933333,32.4262295 L21.9066667,32.4262295 C21.9066667,37.8766462 26.3360629,42.295082 31.8,42.295082 Z" id="Oval-Copy-7" fill="#F0F0F0"></path>
                                <path d="M84.7620072,32.4262295 L84.8,32.4262295 C84.8,32.5301849 84.7984961,32.63379 84.7955088,32.7370242 L84.8,32.7786885 L84.7942221,32.7786885 C84.607843,38.455261 79.9359784,43 74.2,43 C68.4640216,43 63.792157,38.455261 63.6057779,32.7786885 L63.6,32.7786885 L62.8933333,-3.55271368e-14 L81.2666667,-3.55271368e-14 L84.7620072,32.4262295 Z" id="Combined-Shape" fill="#FFFFFF"></path>
                                <polygon id="Path-22-Copy-2" fill="#C18951" transform="translate(93.633333, 16.389344) scale(-1, 1) translate(-93.633333, -16.389344) " points="89.7466667 -1.42108547e-14 106 -1.42108547e-14 102.466667 32.7786885 81.2666667 32.7786885"></polygon>
                                <path d="M10.6,43 C16.4542183,43 21.2,38.2659617 21.2,32.4262295 L0,32.4262295 C0,38.2659617 4.74578165,43 10.6,43 Z" id="Oval" fill="#9A6836"></path>
                                <path d="M10.6,43 C16.4542183,43 21.2,38.2659617 21.2,32.4262295 L0,32.4262295 C0,38.2659617 4.74578165,43 10.6,43 Z" id="Oval" fill="#9A6836"></path>
                                <path d="M53,43 C58.8542183,43 63.6,38.2659617 63.6,32.4262295 L42.4,32.4262295 C42.4,38.2659617 47.1457817,43 53,43 Z" id="Oval-Copy-3" fill="#9A6836"></path>
                                <path d="M74.2,42.295082 C79.6639371,42.295082 84.0933333,37.8766462 84.0933333,32.4262295 L64.3066667,32.4262295 C64.3066667,37.8766462 68.7360629,42.295082 74.2,42.295082 Z" id="Oval-Copy-6" fill="#F0F0F0"></path>
                                <path d="M95.4,43 C101.254218,43 106,38.2659617 106,32.4262295 L84.8,32.4262295 C84.8,38.2659617 89.5457817,43 95.4,43 Z" id="Oval-Copy-5" fill="#9A6836"></path>
                            </g>
                            <rect id="Rectangle" stroke="#333333" stroke-width="2" fill="#FFFFFF" stroke-linejoin="round" x="20" y="0" width="65" height="18"></rect>
                            <path d="M27,9.5 L46,9.5" id="Path-24" stroke="#333333" stroke-width="2" stroke-linejoin="round"></path>
                        </g>
                    </g>
                </g>
            </g>
        </g>
    </g>
</svg>