<?xml version="1.0" encoding="utf-8"?>
<!-- Generator: Adobe Illustrator 23.0.0, SVG Export Plug-In . SVG Version: 6.00 Build 0)  -->
<svg version="1.1" id="Layer_1" xmlns="http://www.w3.org/2000/svg" xmlns:xlink="http://www.w3.org/1999/xlink" x="0px" y="0px"
	 viewBox="0 0 533.5 170.1" style="enable-background:new 0 0 533.5 170.1;" xml:space="preserve">
<style type="text/css">
	.st0{fill:#C18951;}
	.st1{fill:#FFFFFF;}
</style>
<g>
	<path class="st0" d="M328.5,170.1h155.2c-159-12.3-244.4-14.4-314.2-97.1C92.5-18.1,0.7,14.3,0.7,14.3v44.1
		c4.5,4.5,9,9.3,13.5,14.6C84,155.7,169.4,157.8,328.5,170.1z"/>
	<path class="st0" d="M303.4,169.5C159.1,158.6,79.6,152.6,13.2,73.9C9.1,69,4.9,64.5,0.7,60.3v109.8h310.1
		C308.3,169.9,305.9,169.7,303.4,169.5z"/>
	<path class="st1" d="M303.4,169.5c2.4,0.2,4.9,0.4,7.4,0.6h17.7C169.4,157.8,84,155.7,14.2,73c-4.5-5.3-9-10.1-13.5-14.6
		c0,0-0.1-0.1-0.1-0.1c0,0.6,0,1.2-0.2,1.7c0.1,0.1,0.2,0.2,0.3,0.3c4.2,4.2,8.3,8.7,12.5,13.6C79.6,152.6,159.1,158.6,303.4,169.5z
		"/>
</g>
</svg>
