<?xml version="1.0" encoding="UTF-8"?>
<svg width="108px" height="70px" viewBox="0 0 108 70" version="1.1" xmlns="http://www.w3.org/2000/svg" xmlns:xlink="http://www.w3.org/1999/xlink">
    <!-- Generator: Sketch 53.2 (72643) - https://sketchapp.com -->
    <title>Group 10</title>
    <desc>Created with Sketch.</desc>
    <g id="main" stroke="none" stroke-width="1" fill="none" fill-rule="evenodd">
        <g id="Homepage" transform="translate(-454.000000, -3403.000000)">
            <g id="Tentang-" transform="translate(203.000000, 3361.000000)">
                <g id="Group-4">
                    <g id="Group-10" transform="translate(252.000000, 41.000000)">
                        <g id="Group-6" transform="translate(91.637833, 16.684264) rotate(-131.000000) translate(-91.637833, -16.684264) translate(82.637833, 2.184264)">
                            <polygon id="Path-12" fill="#C18951" points="17.1890464 15.8577112 3.9494382 24.9111111 3.9494382 28.7944837 13.8988764 28.7944837 13.8988764 24.9111111"></polygon>
                            <polygon id="Path-6" stroke="#333333" stroke-linejoin="round" points="8.6994382 0 -4.54747351e-13 14.9222222 3.9494382 24.9111111 3.9494382 28.7944837 13.8988764 28.7944837 13.8988764 24.9111111 17.3988764 15.3972418"></polygon>
                            <path d="M8.6994382,0 L8.6994382,14.3972418" id="Path-11" stroke="#333333" stroke-linejoin="round"></path>
                            <circle id="Oval" stroke="#333333" stroke-linejoin="round" cx="8.8988764" cy="16.4222222" r="2"></circle>
                        </g>
                        <path d="M27.9922601,70.1568 C1.21822761,20.3345778 -6.34918812,-2.17282963 5.29001288,2.63457778 C22.7488144,9.84568889 61.2900129,56.3790222 78.7900129,29.3790222" id="Path-13" stroke="#000000" stroke-dasharray="5"></path>
                    </g>
                </g>
            </g>
        </g>
    </g>
</svg>