<?xml version="1.0" encoding="utf-8"?>
<!-- Generator: Adobe Illustrator 23.0.0, SVG Export Plug-In . SVG Version: 6.00 Build 0)  -->
<svg version="1.1" id="Layer_1" xmlns="http://www.w3.org/2000/svg" xmlns:xlink="http://www.w3.org/1999/xlink" x="0px" y="0px"
	 viewBox="0 0 1017.8 1030.6" style="enable-background:new 0 0 1017.8 1030.6;" xml:space="preserve">
<style type="text/css">
	.st0{opacity:0.1;}
	.st1{fill:#231F20;}
</style>
<g id="ab42cb18-1376-4335-b2b0-bf5289072932" class="st0">
	<g id="e6bf1a22-7d74-43c6-a201-a8a48d66ed10">
		<path class="st1" d="M525.7,5.3c1.1,7,2.9,14,4.6,20.7c1.1,4.3,2.2,8.8,3.2,13.3c1.3,6.3,0.1,12.5-3.2,16.6
			c-3.2,4-8.3,6.1-14.8,6.1c-4.7,0-9.5-0.3-14.2-0.6l-5.2-0.3c-13.4-0.8-23.7-1.4-33.5-2c-9.8-0.5-19.3-4.1-26.9-10.3
			C419.7,35.7,405.9,20,395,2.4c-0.5-0.8-0.9-1.6-1.2-2.5h-2.2c0.5,1.2,1.1,2.4,1.7,3.5c11,17.8,24.9,33.6,41.1,46.8
			c7.9,6.5,17.8,10.3,28,10.8c9.8,0.6,20.1,1.2,33.5,2l5.2,0.3c4.6,0.3,9.3,0.6,13.9,0.6h0.4c7.1,0,12.7-2.4,16.3-6.8
			c3.7-4.6,5.1-11.5,3.6-18.3c-1-4.5-2.1-9-3.2-13.3c-1.7-6.7-3.5-13.7-4.6-20.6c0-0.1,0-0.2-0.1-0.2c0-0.1-0.7-1.8-1.6-4.7h-2
			C524.8,2.9,525.5,4.9,525.7,5.3z"/>
		<path class="st1" d="M270.8,630l-0.1,0.1c-8.3,9.8-11.8,19.7-10.6,30.2c0.8,7.3,6.2,11.5,11.5,14.7c4.8,2.9,9.9,5.3,14.8,7.8
			l2.8,1.3l4.2,2.1c6.1,3,12.4,6.2,18.8,8.9c8,3.5,17,3.7,25.2,0.7c5.3-1.9,10.7-3.7,16-5.3c2.8-0.9,5.6-1.8,8.5-2.7
			c3.3-1.1,6.6-2.2,9.9-3.2c8.1-2.6,16.5-5.3,24.6-8.4c11.3-4.3,22.2-11.6,33.3-22.2c5.1-4.9,9.8-10.3,14.4-15.5
			c2-2.3,4.1-4.7,6.2-7l0.1-0.1c4-5.4,5-10.7,3.1-15.7c-7.8-19.7-59-29-61.1-29.4c-16.5-3.8-29.9-10.7-41-20.9
			c-7.2-6.7-10.6-14.2-10.4-23.2c0.1-8.3-0.6-16.5-2-24.7c-1.1-6.4-6.9-12.9-15.4-12.4c-6.3,0.4-13.4,5.3-14.2,13
			c-0.4,3.7,0.7,7.7,1.9,11.3C311.3,529.8,324.7,582.5,270.8,630L270.8,630z M313.4,562c3.3-19.4-0.2-32.5-0.4-33.2
			c-1.2-3.5-2.2-7.2-1.9-10.5c0.7-6.5,7-10.9,12.4-11.2c7.3-0.5,12.3,5.2,13.3,10.8c1.4,8,2.1,16.1,2,24.3
			c-0.1,9.5,3.5,17.6,11.1,24.7c11.3,10.5,25,17.5,41.9,21.4c0.5,0.1,52.3,9.5,59.7,28.2c1.7,4.4,0.8,8.9-2.8,13.8
			c-2.1,2.3-4.2,4.6-6.2,7c-4.6,5.2-9.3,10.5-14.3,15.3c-10.9,10.4-21.6,17.6-32.6,21.8c-8,3.1-16.4,5.8-24.5,8.4
			c-3.3,1.1-6.6,2.1-9.9,3.2c-2.8,0.9-5.6,1.8-8.4,2.7c-5.3,1.7-10.8,3.4-16.1,5.4c-7.7,2.9-16.2,2.7-23.8-0.6
			c-6.4-2.7-12.6-5.8-18.7-8.8l-4.2-2.1l-2.8-1.4c-4.9-2.4-9.9-4.8-14.6-7.7s-9.8-6.7-10.5-13.2c-1-9.9,2.3-19.3,10.2-28.7
			C300.8,606.2,310.4,579.7,313.4,562L313.4,562z"/>
		<path class="st1" d="M258.7,443.4c7.1,2.5,14.8,3.4,24.4,2.9c10.6-0.6,20.5-2.9,29.7-5.2c17.7-4.6,34.6-11.7,50.3-21.1
			c4.3-2.6,8.9-4.5,13.7-5.8c4.2-1.1,7.1,1,9.8,6.8c1.5,3.3,3,6.6,4.5,9.8c3.3,7.2,6.8,14.7,9.9,22.2l0.8,2c3.5,8.1,7,16.5,9.5,25
			c1.3,4.6,1.7,9.6,2.1,14.5c0.2,2.1,0.3,4.2,0.6,6.3l0.2,1.8c0.8,7,1.6,14.3,6.6,20.3c4.3,5.1,10.1,7.6,17.6,7.6
			c1.8,0,3.5-0.1,5.3-0.4c17.1-2.4,29.6-8,39.1-17.6c7.3-7.4,9.8-17,12.1-26.3l0.6-2.3c2.4-9.6,5-19.6,6.4-29.5
			c1.6-11.2-2-21.5-10.6-30.8c-8.9-9.6-20.3-14.9-31.4-19.3c-13-5.1-27.4-8.9-45.2-11.9c-6.2-1-12.4-1.3-18.7-1
			c-5.3,0.2-9-2.3-11.4-7.6c-2.5-5.7-4.3-11.6-5.5-17.7c-0.9-4.5-1.4-9.2-2-13.7c-0.4-3-0.7-6.2-1.2-9.2
			c-1.3-8.4-9.8-13.8-16.6-12.9c-2.1,0.2-4.2,0.2-6.4,0.1c-1,0-2-0.1-3-0.1c-0.1,0-0.2,0-0.3,0c-0.2-0.1-0.4-0.1-0.6,0l-7.4,2.6
			c-5.5,1.9-11.1,3.9-16.6,5.9c-11.2,4.2-19.5,13-25.4,27.1c-6.7,15.9-16.4,31.6-30.5,49.2c-4.2,5.2-9,11.3-13.5,17.6
			c-1.7,2.4-2.3,4.7-1.7,6.7C254.5,440.6,255.6,442.4,258.7,443.4L258.7,443.4z M257.4,433.7c4.5-6.2,9.3-12.3,13.4-17.5
			c14.2-17.8,24-33.6,30.8-49.7c5.8-13.7,13.5-22,24.3-26c5.5-2,11.1-4,16.5-5.9l7.4-2.6c0.1,0,0.2,0,0.3,0c1,0,2,0,2.9,0.1
			c2.2,0.1,4.5,0.1,6.7-0.1c7-0.9,13.4,5.3,14.4,11.2c0.5,3,0.8,6.1,1.2,9.2c0.5,4.6,1.1,9.3,2,13.9c1.2,6.2,3.1,12.3,5.6,18.2
			c2.7,6.1,7.2,9,13.3,8.8c6.1-0.3,12.2,0,18.3,1c17.7,3,31.9,6.7,44.8,11.8c10.8,4.3,22,9.5,30.6,18.8c8.2,8.8,11.5,18.6,10.1,29.2
			c-1.4,9.9-3.9,19.7-6.3,29.3l-0.6,2.3c-2.3,9-4.7,18.4-11.6,25.4c-9.2,9.3-21.3,14.7-38,17.1c-9.4,1.3-16.2-0.8-21-6.5
			c-4.6-5.5-5.3-12.1-6.1-19.2l-0.2-1.8c-0.2-2.1-0.4-4.2-0.6-6.2c-0.2-5-1-10-2.2-14.9c-2.5-8.6-6.1-17-9.6-25.2l-0.8-2
			c-3.2-7.5-6.6-15-10-22.2c-1.5-3.3-3-6.5-4.5-9.8c-1.7-3.7-4.4-8.2-9.6-8.2c-0.9,0-1.7,0.1-2.5,0.3c-5,1.3-9.8,3.3-14.3,6
			c-15.5,9.3-32.3,16.3-49.8,20.8c-9.1,2.3-18.9,4.5-29.3,5.1c-9.3,0.5-16.8-0.3-23.6-2.7c-1.3-0.5-2.9-1.3-3.4-2.9
			C255.5,437.3,256,435.6,257.4,433.7z"/>
		<path class="st1" d="M315.8,414.1c0.6,0,1.2,0,1.8-0.1c11.5-1.6,19.9-7.7,24.8-18c3-6.2,3.5-13,1.5-20.7
			c-1.3-5.5-6.3-9.3-11.9-9.2c-0.1,0-0.2,0-0.3,0c-0.2,0-0.4,0-0.5,0c-6.1,1.7-10.9,6.1-14.5,13.1c-3.6,7.5-6.6,15.2-9.1,23.1
			c-1.1,3.3-0.7,6.5,1.3,8.8C310.6,413.1,313.2,414.2,315.8,414.1L315.8,414.1z M309.5,402.9c2.5-7.8,5.5-15.4,9-22.8
			c3.2-6.4,7.7-10.5,13.2-12.1c0.1,0,0.2,0,0.2,0c4.7-0.1,8.9,3.1,10,7.8c1.8,7.3,1.4,13.6-1.4,19.3c-4.6,9.6-12.5,15.3-23.3,16.9
			c-2.9,0.4-5.4-0.4-6.9-2.2C308.9,407.8,308.6,405.2,309.5,402.9L309.5,402.9z"/>
		<path class="st1" d="M424.8,447.1c6.5,9.7,13.5,19.4,20.3,28.7l0.6,0.9c2.1,2.9,5.4,4.7,9,4.7h0.4c4.2-0.3,8-2.6,10.2-6.2
			c4.8-7.8,9.5-17.2,7.2-28.7c-2.2-11.1-9.3-18.9-21.7-23.6c-3.7-1.3-7.6-2.2-11.5-2.7c-1.7-0.3-3.5-0.6-5.1-1c-0.3,0-0.7,0-1,0
			c-11,3.5-13.2,6.8-12.1,17.5C421.5,440.4,422.8,443.9,424.8,447.1L424.8,447.1z M433.8,421.1c1.7,0.4,3.5,0.7,5.2,1
			c3.8,0.5,7.5,1.4,11.1,2.6c11.7,4.5,18.4,11.7,20.5,22.1c2.1,10.8-2.3,19.8-6.9,27.3c-1.8,3.1-5,5.1-8.6,5.3
			c-3.1,0.1-6-1.3-7.7-3.8l-0.6-0.9c-6.8-9.3-13.8-18.9-20.3-28.6c-1.8-2.9-3-6.1-3.3-9.5C422,426.8,423.7,424.3,433.8,421.1
			L433.8,421.1z"/>
		<path class="st1" d="M221,457.8c0.6-0.5,1.1-1.2,1.3-2c0.4-1.6,0.7-3.1,0.8-4.7c0.1-0.6,0.2-1.2,0.3-1.9c0.1-0.5-0.3-1.1-0.8-1.1
			c0,0,0,0,0,0c-0.6-0.1-1.3-0.3-2-0.4c-1.6-0.5-3.2-0.7-4.9-0.5c-3,0.6-5.9,1.5-8.8,2.3c-3.3,0.9-6.8,1.9-10.2,2.5
			c-10.8,2-21.8,3.7-32.4,5l-5,0.6c-11.1,1.4-22.6,2.9-33.9,3.3c-19.5,0.7-37.5-5.8-53.4-19.5c-7.1-6.2-14.9-12.4-24.3-15.7
			c-3.3-1.1-6.7-1.9-10.1-2.6c-1.5-0.3-3-0.6-4.5-1c-0.2,0-0.3,0-0.5,0c-0.1,0-0.3,0-0.5,0c-5.7,1.1-10.2,4.4-14.2,10.4
			C13.7,439,8.2,446.2,0,451v2.3c9.1-5.1,15.1-12.8,19.8-19.8c3.7-5.5,7.7-8.5,12.9-9.5h0.1c1.5,0.4,3,0.7,4.6,1
			c3.3,0.7,6.6,1.5,9.8,2.5c9.1,3.1,16.7,9.3,23.6,15.3c16.3,14,34.7,20.8,54.8,20c11.4-0.4,22.9-1.9,34.1-3.3l5-0.6
			c10.7-1.3,21.7-3,32.6-5c3.5-0.6,7-1.6,10.4-2.6c2.8-0.8,5.8-1.6,8.7-2.2c1.3-0.1,2.7,0,4,0.4c0.4,0.1,0.8,0.2,1.2,0.3
			c0,0.3-0.1,0.6-0.1,1c-0.2,1.5-0.4,3-0.8,4.5c-0.2,0.4-0.5,0.8-0.9,1.1c-0.3,0.3-0.7,0.7-0.9,1.1c-11,16.6-14.3,35.4-10,57.7
			c1.5,7.6,3.7,15.2,5.8,22.6c1,3.6,2.1,7.3,3.1,11c2.6,9.9-4.4,25.5-11.5,30c-2.5,1.5-4.4,1.5-6.3-0.1c-3.1-2.7-6-5.6-8.8-8.7
			l-0.7-0.7c-5.4-5.7-12-10-19.4-12.7c-9.1-3.4-18.6-5.6-28.2-6.7c-5.4-0.6-10.8-1-16.2-1c-6.7,0-13.4,0.5-20.1,1.6
			c-2.7,0.4-5.5,0.9-8.1,1.4c-8.5,1.6-17.2,3.2-26.1,2.2c-7-0.8-14.2-2-19.3-7.4c-5.1-5.2-9.6-11-13.4-17.2
			C31,515,19,504.6,2.9,497.6l-1.2-0.5L0,496.4v2.2l1,0.4l1.2,0.5c15.7,6.8,27.4,16.9,35.7,31c3.8,6.4,8.4,12.3,13.6,17.7
			c5.5,5.9,13.2,7.2,20.5,8c9.2,1.1,18.1-0.6,26.7-2.2c2.7-0.5,5.4-1,8.1-1.4c11.8-1.8,23.9-2,35.8-0.6c9.5,1.1,18.8,3.3,27.7,6.6
			c7.1,2.6,13.5,6.8,18.7,12.2l0.7,0.7c2.8,3.1,5.8,6,9,8.8c1.2,1.1,2.7,1.7,4.3,1.7c1.6-0.1,3.1-0.5,4.4-1.4
			c7.8-4.9,15.2-21.4,12.4-32.2c-1-3.7-2.1-7.4-3.1-11c-2.1-7.3-4.3-14.9-5.7-22.4c-4.2-21.7-1-40.1,9.7-56.2
			C220.6,458.3,220.8,458.1,221,457.8L221,457.8z"/>
		<path class="st1" d="M268.4,6.1c1.1-1.9,2-4,2.7-6.1h-2.1c-0.6,1.8-1.4,3.5-2.3,5.1c-8.9,16.3-18.6,29.6-29.4,40.7
			c-13.3,13.5-17.6,30.4-13.6,52.9c0.5,2.9,1.1,5.8,1.6,8.6c2.2,11.4,4.5,23.2,3.8,35.2c-1.1,18.6-11,23.6-19.2,24.5
			c-5.4,0.6-10.9,1-16.4,1h-0.2c-13,0-22.2-8.4-23.4-21.5c-1.3-14.6-3.7-26.4-7.6-37.2c-4.7-13.3-9.5-27.4-11.2-42.3
			c-1.9-16.8-5.8-29.9-12.3-41.3c-4.8-8.5-6.3-17-4.6-25.6h-2c-1.7,8.9-0.1,17.9,4.8,26.6c6.3,11.2,10.2,24.1,12.1,40.6
			c1.7,15.1,6.5,29.4,11.3,42.8c3.8,10.6,6.2,22.3,7.5,36.7c1.3,14.2,11.2,23.4,25.3,23.4h0.2c5.6,0,11.1-0.4,16.6-1
			c12.6-1.5,20-10.8,20.9-26.4c0.7-12.2-1.6-24.1-3.8-35.7c-0.6-2.9-1.1-5.7-1.6-8.6c-3.9-21.8,0.3-38.1,13-51.2
			C249.6,36,259.3,22.6,268.4,6.1L268.4,6.1z"/>
		<path class="st1" d="M90.9,533c11.2,0.6,22.8,1.1,34.6,1.1c4.3,0,8.7-0.1,13-0.3c8.6-0.3,20-1.3,30.9-5.2
			c7.4-2.7,16.3-8.9,16.6-23.5c0-0.9,0.1-1.8,0.1-2.7c0.3-2.5,0.2-5-0.3-7.5c-2.6-11.5-8.4-16.9-19.7-18.6c-5.8-0.7-11.6-1.1-17.4-1
			c-2.5,0-5.1-0.1-7.7-0.2c-0.1,0-0.2,0-0.3,0c-0.1,0-0.3,0-0.4,0L134,476c-4.6,0.6-9.4,1.3-14.1,2.1c-12.5,2.2-26.7,4.6-38.9,13.1
			c-9.4,6.5-13.3,15.5-10.9,25.1C72.2,525.2,81.4,532.5,90.9,533z M82.1,492.9c11-7.6,23.2-10.2,38.1-12.8c4.7-0.8,9.4-1.5,14.1-2.1
			l6.4-0.9h0.3c2.6,0.1,5.2,0.1,7.8,0.2c5.7-0.1,11.4,0.3,17.1,1c10.6,1.6,15.6,6.4,18.1,17.1c0.4,2.3,0.5,4.6,0.2,6.9
			c-0.1,0.9-0.1,1.9-0.1,2.8c-0.2,10.8-5.4,18.1-15.3,21.7c-10.6,3.8-21.8,4.7-30.3,5.1c-15.9,0.7-32.1-0.1-47.4-0.9
			c-8.6-0.4-17.1-7.2-19.1-15.1C69.8,507.1,73.4,498.9,82.1,492.9L82.1,492.9z"/>
		<path class="st1" d="M10.1,161.9c-0.7-5.5-1-10.9-1-16.4c0-2.6-0.1-5.3-0.2-8c-0.3-6.6-0.6-13.1-1-19.5c-0.4-6.6-3.2-12.8-8-17.4
			v2.9c3.6,4.1,5.7,9.2,6,14.6c0.4,6.4,0.7,12.9,1,19.5c0.1,2.6,0.2,5.3,0.2,7.9c0,5.6,0.3,11.1,1,16.7c1.6,11.8,1.1,20.8-1.7,29
			c-1.6,4.6-3.8,9.1-6.4,13.2v3.6c3.5-5,6.3-10.4,8.4-16.1C11.3,183.3,11.8,174.1,10.1,161.9L10.1,161.9z"/>
		<path class="st1" d="M484.2,177.2c1.5,2.1,3.3,4,5,5.9l1.5,1.7c5,5.6,10.6,8.4,16.6,8.4c4.5,0,9.3-1.6,14.2-4.8
			c3.2-2.2,6.2-4.6,9.1-7.2l1.6-1.4c7.3-6.3,8-14.6,2.1-23.3c-2.3-3.3-4.9-6.4-7.6-9.4c-1-1.1-1.9-2.2-2.9-3.3
			c-2.5-2.9-5-5.8-7.6-8.7c-4.8-5.5-9.7-11.1-14.4-16.8c-8.8-10.8-20.2-17.2-34.6-19.5c-9.4-1.5-18.7-3.8-27.8-7
			c-5.4-2-10.4-5.2-14.6-9.2c-5.4-5-10.5-10.4-15.5-15.7c-3.1-3.3-6.4-6.8-9.7-10.1c-4.3-4.3-9.6-9-17-10.8
			c-1.7-0.4-3.5-0.7-5.3-0.8c-0.8-0.1-1.6-0.2-2.3-0.3c-0.1,0-0.3,0-0.4,0c-0.2,0-0.3,0-0.5,0c-12.1,2.9-16.9,12.3-19.8,20.1
			c-4.4,12.1-6.8,25.3-7.4,40.3c-0.4,11.6,3.4,21.9,11.2,29.7c5.1,5.1,10.5,10,16.1,14.6c4.6,3.7,10.5,5.5,17.1,5.2
			c4-0.2,8-0.5,11.9-0.8c6.8-0.7,13.7-1,20.6-0.9C446,153.9,468.7,156.3,484.2,177.2L484.2,177.2z M421.2,151.2
			c-6,0-12.1,0.5-17.9,1c-3.9,0.3-7.9,0.6-11.8,0.8c-5.7,0.4-11.3-1.3-15.8-4.8c-5.6-4.5-10.9-9.3-15.9-14.4
			c-7.3-7.4-11-17.1-10.6-28.2c0.5-14.8,2.9-27.8,7.2-39.7c4-11,9.6-16.8,18.3-18.9h0.1c0.8,0.1,1.6,0.2,2.4,0.3
			c1.7,0.1,3.4,0.4,5,0.8c6.8,1.7,11.9,6.1,16,10.2c3.3,3.3,6.5,6.7,9.7,10.1c5,5.3,10.1,10.7,15.5,15.8c4.4,4.2,9.6,7.5,15.3,9.6
			c9.1,3.2,18.6,5.6,28.1,7.1c14,2.2,24.9,8.3,33.4,18.8c4.7,5.7,9.6,11.4,14.4,16.9c2.5,2.9,5.1,5.8,7.6,8.7c1,1.1,1.9,2.2,2.9,3.3
			c2.7,2.9,5.2,6,7.5,9.2c5.4,7.9,4.8,15-1.8,20.6l-1.6,1.4c-2.8,2.5-5.7,4.9-8.8,7c-10.5,6.8-20.2,5.7-28.2-3.3l-1.6-1.7
			c-1.7-1.8-3.3-3.7-4.9-5.7c-16-21.6-40.3-24.1-61.8-24.7C423.1,151.2,422.1,151.2,421.2,151.2L421.2,151.2z"/>
		<path class="st1" d="M385.7,89.6c-0.2,0-0.3,0-0.5,0c-0.2-0.1-0.4-0.1-0.6,0c-4.9,2.1-4,6.3-3.2,9.3c0.1,0.3,0.1,0.6,0.2,0.9
			c0.9,3.9,3.7,6.3,7.8,6.7c0.3,0,0.6,0,0.8,0c1.1,0.1,2.3-0.3,3.2-1c1.1-1,1.7-2.4,1.6-3.9C395.4,95.6,391.9,91.1,385.7,89.6z
			 M393,101.5c0,0.9-0.3,1.8-1,2.5c-0.7,0.5-1.6,0.7-2.5,0.5c-3.3-0.3-5.4-2.1-6.1-5.2l-0.2-0.9c-0.8-3.4-1.1-5.5,2-6.9
			C390.5,92.8,393.4,96.4,393,101.5L393,101.5z"/>
		<path class="st1" d="M470,5.1c0.1,2.3-0.9,4.6-2.8,6c-1.9,1.2-4.3,1.4-6.4,0.6c-3.9-1.3-7.7-5.9-7.8-9.6c0-0.8-0.1-1.4-0.1-2h-2
			c0,0.7,0,1.4,0.1,2.1c0.2,4.5,4.4,9.8,9.2,11.4c1.1,0.4,2.3,0.6,3.5,0.6c1.7,0,3.3-0.5,4.7-1.5c2.4-1.8,3.7-4.6,3.6-7.6
			c0-1.7-0.1-3.4-0.5-5.1h-2C469.9,1.7,470,3.4,470,5.1z"/>
		<path class="st1" d="M70.1,129.1c-0.1,0-0.2,0-0.3,0c-0.2-0.1-0.5,0-0.7,0.1c-4.2,1.9-7,4.6-8.1,7.7c-0.9,2.7-0.7,5.6,0.6,8.2
			c1,2.3,3,3.9,5.4,4.5c0.5,0.1,0.9,0.1,1.4,0.1c1.7,0,3.4-0.7,4.7-1.9c3.5-3,4.9-6.5,4.3-10.4C76.9,134.1,75.6,129.7,70.1,129.1z
			 M71.8,146.3c-1.2,1.1-2.8,1.6-4.4,1.3c-1.8-0.4-3.3-1.7-4-3.4c-1.1-2-1.3-4.4-0.5-6.6c0.9-2.5,3.3-4.8,6.9-6.5h0.1
			c3.3,0.4,4.9,2.3,5.6,6.7C76,140.9,74.8,143.7,71.8,146.3z"/>
		<path class="st1" d="M47.5,8.7c-0.9,7.8-5.2,14.7-11.4,18C23.8,33.3,12,36,0,34.9v2c1.7,0.1,3.3,0.2,5,0.2c10.6,0,21.3-2.9,32-8.5
			C43.8,25,48.5,17.4,49.5,9c0.3-3,0.2-6.1-0.5-9h-2.1C47.6,2.9,47.8,5.8,47.5,8.7z"/>
		<path class="st1" d="M68.2,11.5c-1,9-2.5,19.5-6.2,29.7c-4.2,11.7-11.6,17.5-22.6,17.8c-3.2,0.1-6.3,0.2-9.4,0.4
			C23.1,59.7,16,60,9,60c-3.3,0-6.3-0.2-9-0.4v2c2.8,0.3,5.7,0.4,9,0.4h1.8c6.4,0,13-0.3,19.3-0.5c3.1-0.1,6.3-0.3,9.4-0.4
			c11.9-0.4,19.8-6.6,24.4-19.2c3.8-10.4,5.3-21.1,6.3-30.2c0.4-3.9,0.5-7.8,0.2-11.7h-2C68.8,3.8,68.7,7.7,68.2,11.5z"/>
		<path class="st1" d="M301.5,269.3c0.9,0,1.8-0.1,2.7-0.3l0.8-0.1c3.3-0.6,6.7-1.3,9.5-3c8.3-5.3,16.7-11.2,25.1-17.5
			c2.1-1.6,4-3.3,3.6-5.1c-0.3-1.5-1.9-2.5-5.4-3.5c-4-1-8.1-1.6-12.2-2c-1.8-0.2-3.6-0.4-5.3-0.7c-0.1,0-0.3,0-0.4,0
			c-0.1,0-0.3,0-0.4,0l-3.3,0.6c-2.4,0.5-4.8,0.9-7.2,1.4c-6,1.1-11.4,4.5-15.1,9.4c-3.2,4.1-4,9.6-2,14.4
			C293.3,266.9,297.2,269.4,301.5,269.3L301.5,269.3z M295.3,249.7c3.3-4.6,8.3-7.7,13.8-8.7c2.4-0.4,4.9-0.9,7.2-1.4l3.3-0.6h0.2
			c1.8,0.3,3.6,0.5,5.4,0.7c4,0.4,8,1,11.9,2c3.5,1,4,1.7,4,1.9s-0.1,1-2.8,3.1c-8.3,6.3-16.7,12.1-25,17.4
			c-2.4,1.6-5.7,2.2-8.8,2.8l-0.8,0.1c-4.8,0.9-8.6-0.9-10.2-4.9C291.8,258,292.5,253.3,295.3,249.7z"/>
		<path class="st1" d="M191.5,29.8c2.1,1.6,4.6,2.5,7.2,2.5c3.7,0,7.4-1.6,10.8-3.2c12.7-6.2,21.3-15.9,25.6-29H233
			c-4.3,12.2-12.4,21.4-24.4,27.2c-5.3,2.6-10.9,4.8-15.9,1c-9.2-6.9-15.5-17-17.9-28.2h-2C175.2,11.9,181.8,22.5,191.5,29.8z"/>
		<path class="st1" d="M88.2,0h-2c-0.1,2.7-0.2,5.3-0.4,8c-0.8,9.5-1.3,20.7,0.8,31.8c1.6,8.1,5.1,15.9,11,24.5
			c3.7,5.3,7.1,11,9.9,16.8c6.1,12.7,8.1,27,5.5,40.8c-0.8,4.9-1.6,9.9-2.3,14.7c-1.1,7.7-2.3,15.6-3.9,23.3
			c-2.5,11.7-9,20-19.3,24.9c-10.9,5.1-22.8,7.7-34.9,7.5h-0.2c-8,0-12.8-3.1-14.9-9.5c-3.1-9.6-6.7-20.5-8.3-31.3
			c-1.1-7.4-0.5-15.3,0-23c0.1-1.3,0.2-2.5,0.3-3.8c0.5-7.2,0.5-15.7-3-24.5C21.9,88.8,12.3,84,2.8,80.1c-0.9-0.3-1.8-0.7-2.8-1v2.2
			c0.7,0.3,1.4,0.5,2.1,0.8c9.1,3.7,18.3,8.2,22.6,18.8c3.4,8.4,3.4,16.7,2.9,23.6c-0.1,1.3-0.2,2.5-0.3,3.8
			c-0.6,7.7-1.1,15.7,0,23.4c1.6,11,5.2,22,8.4,31.7c2.3,7.2,8,10.9,16.8,10.9h0.2c12.3,0.1,24.5-2.5,35.7-7.7
			c10.9-5.1,17.7-13.9,20.4-26.3c1.7-7.7,2.8-15.7,3.9-23.4c0.7-4.8,1.4-9.8,2.3-14.6c2.6-14.3,0.6-29-5.7-42.1
			c-2.9-6-6.3-11.7-10.1-17.1c-5.8-8.3-9.2-15.8-10.7-23.7C86.5,28.5,87,17.5,87.7,8.1C87.9,5.4,88.1,2.7,88.2,0L88.2,0z"/>
		<path class="st1" d="M119.6,411.8c5.8,3,11.2,4.5,16.3,4.5c5.9,0,11.7-2.2,16.1-6.1c3.8-3.2,6.8-7.7,9.2-11.7
			c2.1-3.5,3.9-7.2,5.7-10.8c1.1-2.2,2.2-4.5,3.4-6.7c5.8-10.9,15.8-17.2,31.3-20.1c6.5-1.1,12.8-2.6,19.1-4.6
			c7.1-2.3,14.8-11.1,15.4-22.8c1-21.1-11.4-28.9-24.2-35c-12.5-6-26.4-8.8-43.9-8.9c-7.4-0.2-14.8-0.9-22.2-2.1
			c-4.2-0.6-8.5-1.2-12.7-1.6c-3.2-0.2-6.5-0.3-9.7-0.1c-1.5,0-2.9,0.1-4.4,0.1c-0.1,0-0.2,0-0.3,0c-0.1,0-0.3,0-0.4,0
			c-19,3.9-34.7,15.5-48,35.5c-11.5,17.3-11.3,33.6,0.6,49.9C82.5,387.5,98.9,401,119.6,411.8L119.6,411.8z M72,322.7
			c13-19.5,28.3-30.9,46.7-34.7c0.1,0,0.2,0,0.3,0c1.5,0,2.9,0,4.4-0.1c3.2-0.1,6.3-0.1,9.5,0.1c4.2,0.4,8.5,1,12.6,1.6
			c7.4,1.2,14.9,1.9,22.4,2.1c17.2,0.1,30.9,2.8,43.1,8.6c12.7,6.1,24,13.1,23.1,33.1c-0.4,8.2-5.7,18.3-14,21
			c-6.2,1.9-12.5,3.4-18.9,4.5c-16.1,2.9-26.5,9.6-32.7,21.1c-1.2,2.2-2.3,4.5-3.4,6.8c-1.8,3.5-3.6,7.2-5.6,10.6
			c-2.3,3.8-5.2,8.2-8.8,11.2c-8.3,7-18.5,7.4-30.2,1.4c-20.4-10.6-36.6-24-48-39.7S60.8,339.5,72,322.7L72,322.7z"/>
		<path class="st1" d="M502,1.6c0.2,2.6,0.6,5.2,1,7.7s0.8,4.9,0.9,7.3c1.1,15.9-4.3,23.7-17.6,25.4c-6.2,0.9-12.5,1.2-18.8,0.9
			c-5.4-0.3-10.6-1.4-15.6-3.4c-11.8-4.8-19.7-14.2-26.6-23.5c-3.6-4.9-6.5-10.3-8.6-16h-2.1c2.1,6.2,5.2,11.9,9.1,17.1
			c7,9.6,15.2,19.2,27.4,24.2c5.2,2,10.7,3.2,16.3,3.5c1.5,0.1,3,0.1,4.5,0.1c4.9,0,9.8-0.4,14.6-1c19-2.3,20.1-16.8,19.3-27.5
			c-0.2-2.5-0.6-5-1-7.4s-0.8-5-0.9-7.6c0-0.6,0-1,0-1.6h-2C502,0.5,502,1.1,502,1.6z"/>
		<path class="st1" d="M98.9,368.8c4.6,4.1,10.4,6.6,16.5,7.2h1.2c4.9,0,9.4-2.4,12.1-6.4c8.2-12,14.2-21.4,19.5-30.6
			c2.6-4.4,3.4-7.8,2.6-10.8s-3.4-5.8-8.3-8.5s-10.1-2.8-14.6-2.6c-0.1,0-0.1,0-0.2,0c-0.2-0.1-0.4-0.1-0.6,0
			c-13.9,4.5-25.6,13.9-33,26.5C88.7,352.8,92.5,363.5,98.9,368.8L98.9,368.8z M95.9,344.6c7.1-12.1,18.5-21.2,31.9-25.6
			c0.1,0,0.2,0,0.3,0c4.2-0.2,9.1-0.1,13.5,2.3s6.7,4.8,7.4,7.3s-0.1,5.4-2.3,9.3c-5.3,9.1-11.3,18.5-19.5,30.4
			c-2.5,3.8-6.9,5.9-11.5,5.6c-5.7-0.5-11.1-2.9-15.4-6.7C95.6,363.4,90.4,353.9,95.9,344.6L95.9,344.6z"/>
		<path class="st1" d="M1017.8,311v-2.6c-4-3.3-7.4-7.3-10-11.8c-5-9.1-5.9-15.5,4.4-21.3c1.9-1.1,3.8-2.3,5.5-3.6v-2.5
			c-2.1,1.6-4.3,3-6.5,4.3c-11.7,6.5-10.5,14.3-5.2,24C1009.1,302.7,1013.1,307.3,1017.8,311L1017.8,311z"/>
		<path class="st1" d="M48.8,370.9c-6.8-7.2-12.2-16.5-16.1-27.7c-4.6-13-13.8-20.8-23-27.4C6.2,313.4,3,311,0,308.4v2.6
			c2.7,2.2,5.5,4.3,8.4,6.4c9,6.4,18,14,22.3,26.5c4,11.4,9.6,20.9,16.6,28.4s14.6,15.3,22.6,22.5c10.9,9.8,21,18.3,31.1,26
			c11.6,9,23.3,13.3,35.6,13.3h2c16.9-0.6,30.6-7.3,40.8-19.8c2.6-3.2,5.4-6.5,8.5-10c7.1-8,16.5-12.6,28.9-14.3
			c7.7-0.9,15.3-2.6,22.7-5.1c13.4-4.8,21.8-15.4,25.7-32.6c0.2-0.9,0.4-1.8,0.6-2.7c0.7-2.9,1.4-5.9,1.8-8.9
			c2-13.8,10.5-22.7,25.8-27.1s27.3-9.9,37.8-17.1l1.1-0.7c6.8-4.6,13.9-9.5,21.3-13.1c6.6-3.2,13.5-6,20.2-8.7
			c4.3-1.8,8.8-3.6,13.2-5.5c16.5-7.2,27.8-15.9,35.5-27.3c1.5-2.2,2.9-4.4,4.4-6.5c4-5.9,8.1-11.9,12-18.1c1.7-2.7,2.8-5.7,3.1-8.9
			c0.6-5.2-1.4-10.3-5.5-13.6c-4.3-3.4-10.4-4.3-16.2-2.3c-3.4,1.1-6.6,2.6-9.8,4.1c-2.5,1.1-5.2,2.3-7.8,3.3
			c-9,3.4-18.8,4.4-30.6,3.3c-6.7-0.8-13.4-2-20-3.6c-6.1-1.5-12.3-2.6-18.5-3.5c-7-0.7-13.9-1-20.9-1c-4.3,0-8.8-0.1-13.1-0.3
			c-7.1-0.4-16.1-1.6-23.4-8.1c-5.2-4.6-8.4-10.8-10.5-20.1c-2.6-11.4-2.4-21.5,0.6-31c2.4-7.6,8.5-10.9,17.1-9.4
			c5.8,1.2,11.7,1.7,17.7,1.6c9-0.4,15.7-5.6,20.4-15.9c5.1-11.4,8.3-23.4,9.7-35.8c0.2-1.5,0.4-2.9,0.5-4.4c1-8.7,2-17.7,6.6-25.8
			c4.6-8.5,11.3-15.7,19.3-21c8.3-5.4,17.2-5.4,25.8,0.1c5.5,3.4,10.6,7.4,15.4,11.8c5.2,4.9,10.3,10,15.2,15
			c3.4,3.4,6.9,7,10.4,10.4c10,9.7,21.9,14.9,36.6,16c10.7,0.8,21.3,2.2,31.8,4.5c11.5,2.4,20.8,9.5,27.9,20.9
			c5.7,9.3,12.8,19.9,23.8,26.8c0.3,0.2,32,23.6,65,4.1c11.2-5.8,15.6-15,13.4-28c-1.6-9.8-9.9-17.6-21.5-20.3
			c-22.6-7.5-27-20.2-39.7-81.7c-0.2-1.1-0.4-2.3-0.6-3.4h-2c0.2,1.3,0.4,2.5,0.7,3.8C572.4,66.2,577,79.2,600.6,87
			c10.9,2.6,18.6,9.7,20.1,18.7c2.1,12.3-1.9,20.5-12.4,25.9c-31.8,18.9-62.4-3.7-62.8-4c-10.7-6.7-17.6-17-23.2-26.2
			c-7.3-12-17.1-19.3-29.2-21.8c-10.6-2.2-21.3-3.8-32.1-4.5c-14.2-1-25.8-6-35.3-15.4c-3.5-3.4-7-6.9-10.3-10.3
			c-4.9-5-10-10.2-15.3-15.1c-4.8-4.5-10.1-8.6-15.6-12.1c-9.3-5.9-19-5.9-28,0c-8.3,5.5-15.2,13-20,21.8
			c-4.8,8.4-5.8,17.7-6.8,26.6c-0.2,1.5-0.3,2.9-0.5,4.4c-1.4,12.2-4.6,24-9.6,35.2c-4.4,9.7-10.3,14.4-18.7,14.8
			c-5.8,0.2-11.6-0.3-17.3-1.4c-9.6-1.7-16.6,2.2-19.3,10.7c-3.1,9.8-3.4,20.3-0.7,32.1c1.5,6.5,4.1,14.8,11.1,21.1
			c7.8,6.9,17.3,8.3,24.7,8.6c4.4,0.2,8.9,0.3,13.2,0.3c6.9,0,13.8,0.3,20.7,0.9c6.1,0.8,12.2,2,18.3,3.4c6.7,1.6,13.4,2.8,20.3,3.7
			c12.1,1.2,22.1,0.1,31.5-3.4c2.7-1,5.3-2.2,7.9-3.4c3.1-1.4,6.4-2.9,9.6-4c5.2-1.8,10.5-1,14.3,2c3.5,2.9,5.3,7.3,4.8,11.9
			c-0.3,2.8-1.3,5.6-2.8,8c-3.9,6.1-8,12.1-12,18c-1.5,2.2-3,4.3-4.4,6.5c-7.5,11.1-18.5,19.5-34.6,26.6c-4.3,1.9-8.8,3.7-13.1,5.5
			c-6.7,2.7-13.7,5.5-20.3,8.8c-7.6,3.7-14.7,8.5-21.6,13.2l-1.1,0.7c-10.4,7.1-22.2,12.4-37.3,16.8c-16.1,4.7-25,14.1-27.2,28.8
			c-0.4,2.9-1.1,5.8-1.8,8.7c-0.2,0.9-0.4,1.8-0.6,2.7c-3.8,16.4-11.8,26.6-24.4,31.1c-7.2,2.5-14.7,4.1-22.3,5
			c-12.9,1.7-22.7,6.6-30.1,15c-3.1,3.5-5.9,6.8-8.5,10c-9.8,12.1-23,18.5-39.3,19.1c-12.6,0.5-24.5-3.7-36.3-12.9
			c-10-7.7-20.1-16.2-30.9-25.9C63.3,386.1,55.7,378.3,48.8,370.9z"/>
		<path class="st1" d="M108.1,31.5l0.7,1.5c1.7,3.8,3.4,7.8,6,11.1c14.2,18.5,19.8,40.5,23.4,59.6c2.5,13.5,1,26.6-0.7,37.7
			c-2.2,13.4-1.8,25.2,1.1,35.9c3.6,13.1,9.9,18.3,25.3,20.7c5.3,0.8,10.8,1.4,16,1.9c7.9,0.8,16,1.7,23.9,3.3
			c17.8,3.7,29.5,14.8,33.7,32.1c3.2,12.9,1.2,22.6-6.2,30.6c-2.6,2.9-6.3,4.4-10.2,4.1c-6.1-0.5-12.4-1.1-18.4-1.7l-7.1-0.7
			c-0.5,0-1-0.1-1.6-0.2c-1-0.2-2-0.3-3-0.3h-31.5c-18.2-0.2-32.3-7.7-40.9-21.6c-7.9-12.9-19.5-16.7-34.5-18.3l-0.9-0.1
			c-3.3-0.4-6.8-0.8-10.2-0.9c-13.2-0.5-25.9,3.8-37.6,12.8c-5,3.8-9.7,8.1-14.3,12.2c-3,2.7-6.2,5.5-9.4,8.2
			c-1.2,1-2.5,2.1-3.7,3.2c-2.7,2.3-5.3,4.5-8.1,6.7v2.5c3.3-2.4,6.4-5,9.4-7.7c1.2-1,2.4-2.1,3.7-3.1c3.2-2.7,6.4-5.5,9.4-8.3
			c4.6-4.1,9.3-8.3,14.2-12.1c10.7-8.2,22.2-12.4,34.2-12.4c0.7,0,1.4,0,2.1,0.1c3.3,0.1,6.7,0.5,10,0.9l0.9,0.1
			c14.4,1.6,25.5,5.1,33,17.4c8.9,14.6,23.7,22.4,42.6,22.6c6.3,0.1,12.7,0,18.8,0H191c0.9,0,1.9,0.1,2.8,0.3
			c0.6,0.1,1.1,0.2,1.6,0.2c2.4,0.2,4.7,0.5,7.1,0.7c6,0.6,12.3,1.3,18.4,1.7c4.5,0.4,8.8-1.4,11.8-4.8c7.8-8.4,10-18.9,6.7-32.4
			c-4.4-18.1-16.6-29.7-35.3-33.6c-8-1.5-16-2.6-24.1-3.3c-5.2-0.6-10.7-1.1-15.9-1.9c-14.6-2.2-20.4-6.9-23.7-19.2
			c-2.8-10.4-3.2-21.9-1.1-35.1c1.8-11.3,3.3-24.6,0.7-38.4c-3.6-19.3-9.3-41.6-23.8-60.5c-2.4-3.1-4.1-7-5.8-10.7l-0.7-1.5
			c-4.3-9.7-3.5-19.9-2-29.4c0.1-0.4,0.2-0.8,0.2-1.3h-2c0,0.3-0.1,0.6-0.2,0.9C104.4,10.8,103.6,21.3,108.1,31.5L108.1,31.5z"/>
		<path class="st1" d="M974,362.8c-4.1-3.4-9.2-5.5-16-6.7c-0.1,0-0.3,0-0.4,0c-0.1,0-0.3,0-0.4,0c-8.8,1.3-14.8,5.4-18.3,12.5
			s-3.2,14,0.7,19.9c2.6,4,6.6,6,12.1,6c2.1,0,4.2-0.3,6.3-0.7c9.2-1.9,15.5-6.1,19.3-12.7C981.3,374.1,980.1,367.8,974,362.8
			L974,362.8z M975.5,380.1c-3.5,6.1-9.3,9.9-18,11.7c-8,1.7-13.2,0.3-16.3-4.4c-3.5-5.4-3.7-11.4-0.5-18s8.6-10.2,16.8-11.4h0.2
			c6.4,1.1,11.2,3.1,15.1,6.3C978.2,368.8,979.1,373.9,975.5,380.1L975.5,380.1z"/>
		<path class="st1" d="M1000.9,490.3c5.4,3.1,11.1,5.9,16.9,8.2v-2.2c-5.4-2.2-10.7-4.8-15.8-7.7c-7.8-4.7-12.6-10.5-14.7-17.8
			c-0.7-2.2-0.4-4.6,0.6-6.6c0.8-1.4,2.1-2.4,3.7-2.7c0.9-0.2,1.7-0.5,2.5-0.8c0.7-0.3,1.3-0.5,2-0.7c1.9-0.5,3.8-0.9,5.7-1.3
			c5.2-1.2,10.6-2.4,15.6-5.1l0.4-0.2v-2.3l-1.3,0.8c-4.8,2.6-9.8,3.7-15.1,4.9c-1.9,0.4-3.8,0.9-5.7,1.4c-0.8,0.2-1.5,0.5-2.2,0.7
			c-0.7,0.3-1.5,0.5-2.3,0.7c-2.1,0.5-3.9,1.8-4.9,3.6c-1.4,2.5-1.7,5.4-0.8,8.1C987.6,479.2,992.7,485.4,1000.9,490.3L1000.9,490.3
			z"/>
		<path class="st1" d="M713.3,10.1h1.6c6.7,0,13.2-1.5,19.5-2.9c2.6-0.6,5.4-1.2,8-1.7l4.4-0.8c6-1.1,12.2-2.2,18.2-3.8
			c1-0.3,2-0.6,2.9-0.9h-7.4c-4.7,1.1-9.5,2-14.1,2.8l-4.4,0.8c-2.7,0.5-5.5,1.1-8.1,1.7c-6.7,1.5-13.6,3.1-20.7,2.8
			c-4.9,0-9.6-2.5-12.3-6.6c-0.4-0.5-0.8-1-1.1-1.6h-2.3c0.5,1,1.1,1.9,1.8,2.8C703.1,7.6,707.4,9.9,713.3,10.1L713.3,10.1z"/>
		<path class="st1" d="M696.4,536.8c1.6-7.8-0.8-14.9-7-20.8c-9.6-9.1-20.9-13.8-33.5-13.9c-0.1,0-0.2,0-0.3,0c-0.1,0-0.3,0-0.4,0
			c-12.5,2.1-23.4,8.4-33.5,19.4c-9.9,10.7-14.2,20.8-13.7,31.7c0.7,14.4,9.4,23.1,23.9,23.9c2.5,0.1,5.1,0.2,7.8,0.2
			c8,0.2,16-1.1,23.6-3.7C681.9,566.7,692.7,554.6,696.4,536.8L696.4,536.8z M631.9,575c-13.3-0.7-21.3-8.7-22-22
			c-0.5-10.3,3.7-19.9,13.2-30.2c9.8-10.6,20.4-16.7,32.4-18.8h0.1c0.1,0,0.2,0,0.2,0c12.1,0.1,22.9,4.6,32.2,13.4
			c3.9,3.7,8.2,10,6.4,18.9c-3.5,17.1-14,28.6-31.9,35.3C652.1,575.5,641.2,575.5,631.9,575L631.9,575z"/>
		<path class="st1" d="M993.3,101.8c-14.2-8.8-27.2-16.3-42.3-19.2c-2.3-0.4-4.7-0.5-7-0.5c-1,0-2.1,0-3.1-0.1c-0.1,0-0.2,0-0.3,0
			c-0.1,0-0.3,0-0.5,0c-13.6,2.8-20.8,11.6-22.3,26.9c-0.5,5.2-0.8,9.8-1,14c-0.2,5.5-0.4,11.1-0.6,16.5
			c-0.4,10.7-0.7,21.7-1.5,32.5c-1.3,17.9,0.4,33.3,5.3,46.9c4.4,12.3,13.1,20.5,25.1,23.6c2.1,0.6,4.3,0.8,6.5,0.9
			c7.1,0,13.8-3.1,19.9-9.1c11.9-12,24.2-25.1,33.2-40.7c3.9-7,6-14.9,6.2-22.9c0.2-7.5,0.2-15,0-22.1s-0.6-14.7-1.5-22.1
			C1008.1,116.2,1002.2,107.1,993.3,101.8z M1008.8,170.6c-0.1,7.7-2.1,15.3-5.9,22c-8.8,15.3-21,28.4-32.8,40.3
			c-7.4,7.4-15.6,10-24.5,7.8c-11.3-2.9-19.5-10.7-23.7-22.4c-4.8-13.3-6.5-28.4-5.2-46.1c0.8-10.8,1.2-21.9,1.5-32.6
			c0.2-5.4,0.4-11,0.6-16.5c0.2-4.2,0.5-8.8,1-13.9c1.3-14.3,8.1-22.5,20.7-25.1h0.2c1.1,0,2.1,0.1,3.2,0.1c2.2,0,4.5,0.1,6.7,0.5
			c14.8,2.8,27.6,10.2,41.6,18.9c8.3,5,13.9,13.6,15,23.2c1,7.3,1.3,14.8,1.5,21.9S1009,163.1,1008.8,170.6L1008.8,170.6z"/>
		<path class="st1" d="M890.5,212.1c-1.8,3.2-3.6,6.4-5.3,9.6l-2.7,4.9c-7.2,13-2.9,21.2,5.7,29.6c7.5,7.3,17.1,10.1,27.9,12.8
			l6.5,1.6c9.5,2.4,19.3,4.9,29.1,6.2c4.6,0.6,9.3,0.9,13.9,0.9c4.9,0,9.9-0.3,14.8-0.9c8.7-1.1,10.2-5.2,11.4-13.6
			c0.2-1.6,0.4-3.3,0.6-5c0.3-2.5,0.5-5,1-7.5c1.9-10.2,6.8-19.8,15.8-31.1c3.1-3.9,6-7.7,8.7-11.6v-3.6c-3.2,4.8-6.6,9.5-10.2,14
			c-9.2,11.6-14.2,21.4-16.2,31.9c-0.5,2.5-0.8,5.1-1,7.6c-0.2,1.6-0.3,3.3-0.6,4.9c-1.2,8.4-2.6,11-9.7,11.9
			c-9.4,1.2-18.8,1.2-28.2,0c-9.7-1.3-19.5-3.8-28.9-6.1l-6.5-1.6c-10.5-2.6-19.8-5.3-27-12.3c-9.7-9.4-11.2-16.8-5.4-27.2l2.7-4.9
			c1.8-3.2,3.5-6.4,5.3-9.6c7.9-14.1,9.4-29.6,10.5-46.9c0.5-8.9-0.1-17.9-0.6-26.7c-0.1-1.5-0.2-2.9-0.3-4.4
			c-0.3-5.2-1-10.5-1.7-15.6c-0.3-2-0.5-4-0.8-6c-0.4-3.2-0.8-6.5-1.2-9.7c-0.8-6.2-1.6-12.5-2.2-18.8c-1-9.7,5.1-14.5,10.4-16.8
			c3.8-1.6,7.8-2.8,11.8-3.7c1.8-0.4,3.6-0.9,5.5-1.4h0.2c1.8,0.2,3.7,0.3,5.5,0.4c4,0.1,7.9,0.5,11.9,1.2
			c11.8,2.3,22.7,7.8,31.8,12.7c5.1,2.8,10.3,5.4,15.3,8c7,3.5,14.2,7.2,21,11.2c3.2,1.8,6.1,4.1,8.5,6.9v-2.9
			c-2.3-2.2-4.8-4.1-7.5-5.7c-6.9-4-14.1-7.7-21.1-11.3c-5-2.6-10.3-5.2-15.3-8c-9.2-5.1-20.3-10.5-32.3-12.9
			c-4-0.7-8.1-1.1-12.1-1.3c-1.8-0.1-3.6-0.2-5.5-0.4c-0.1,0-0.2,0-0.3,0c-0.2,0-0.4,0-0.5,0c-1.8,0.5-3.6,1-5.4,1.4
			c-4.1,0.9-8.2,2.2-12.2,3.8c-8.3,3.8-12.5,10.5-11.6,19c0.6,6.3,1.4,12.7,2.2,18.8c0.4,3.2,0.8,6.5,1.2,9.7c0.2,2,0.5,4,0.8,6
			c0.7,5.1,1.3,10.3,1.7,15.5c0.1,1.5,0.2,2.9,0.3,4.4c0.6,8.7,1.1,17.7,0.6,26.4C899.7,183.1,898.2,198.3,890.5,212.1L890.5,212.1z
			"/>
		<path class="st1" d="M960.6,107.1c-0.8-0.2-1.5-0.4-2.3-0.6l-1.1-0.3c-0.2,0-0.3,0-0.5,0c-0.1,0-0.2,0-0.4,0
			c-13.1,1.3-17.1,11-19.4,21.3c-3.5,15.3-7.4,32.6-6.9,50.3c0.3,10.5,2.8,18.9,7.7,25.5c4.3,5.9,9.2,9.2,14.5,10
			c0.8,0.1,1.5,0.2,2.3,0.2c4.8,0,9.8-2,15-6.1c15.1-11.8,22.9-28.1,22.4-47.1c-0.1-8.7-0.8-17.5-2-26.1
			C987.4,118,973.1,109.6,960.6,107.1L960.6,107.1z M968.1,205.6c-5.6,4.3-10.9,6.2-15.8,5.5s-9.2-3.8-13.1-9.2
			c-4.6-6.3-7-14.3-7.3-24.4c-0.5-17.4,3.4-34.6,6.9-49.8c2.5-11,6.5-18.6,17.7-19.7h0.2l1.1,0.3c0.8,0.3,1.6,0.5,2.5,0.7
			c11.9,2.4,25.4,10.3,27.6,25.2c1.2,8.6,1.9,17.2,2,25.9C990.2,178.8,983,194.1,968.1,205.6L968.1,205.6z"/>
		<path class="st1" d="M853.2,177.6c7.1-11.4,6.3-21.5-2.7-32.6c-7.4-9.1-17.8-14.9-32-17.9c-3.1-0.6-6.2-0.9-9.4-0.9
			c-1.4-0.1-2.8-0.1-4.2-0.2c-0.1,0-0.2,0-0.3,0c-0.1,0-0.3,0-0.4,0c-10.3,1.8-17.1,8.3-19.6,18.8c-1.6,6.6-2.9,14.5-0.8,22.5
			c0.6,2.5,0.9,5.1,1,7.7c0.1,2.2,0.3,4.5,0.7,6.7c1.8,9.4,6.6,16.3,13.8,19.8c3.7,1.8,7.8,2.7,12,2.7c5.4-0.1,10.8-1.3,15.6-3.8
			C838.6,194.8,847.2,187.3,853.2,177.6z M800.2,199.8c-6.6-3.3-11-9.7-12.7-18.4c-0.4-2.1-0.6-4.3-0.7-6.4c-0.1-2.7-0.4-5.4-1-8.1
			c-2-7.6-0.7-15.1,0.8-21.5c2.3-9.7,8.5-15.7,18-17.3h0.3c1.4,0.1,2.9,0.2,4.3,0.2c3,0,6.1,0.3,9.1,0.9
			c13.7,2.8,23.7,8.4,30.8,17.2c8.5,10.4,9.2,19.5,2.5,30.2c-5.8,9.3-14.2,16.6-25.6,22.1C817.1,203,807.5,203.4,800.2,199.8
			L800.2,199.8z"/>
		<path class="st1" d="M1011.2,35.9c2.2,0.4,4.4,0.7,6.6,0.9v-2c-2.1-0.2-4.2-0.5-6.2-0.9c-8.5-1.7-14.4-5.8-16.7-11.4
			c-2.2-5.5-0.9-12.2,3.8-18.9c0.9-1.3,1.8-2.5,2.7-3.6h-2.5c-0.6,0.8-1.2,1.6-1.8,2.5c-5,7.3-6.4,14.7-4,20.8
			C995.6,29.6,1002,34.1,1011.2,35.9z"/>
		<path class="st1" d="M1008.2,59.9c3.2,0.8,6.4,1.3,9.7,1.6v-2c-3.1-0.3-6.1-0.8-9.2-1.5c-19.2-4.9-32.9-13.7-42-27
			c-4.5-6.6-5.3-13.7-2.3-20.5c1.6-3.6,3.5-7.1,5.5-10.5h-2.3c-1.9,3.1-3.6,6.4-5,9.7c-3.3,7.3-2.4,15.3,2.5,22.4
			C974.4,45.8,988.5,54.9,1008.2,59.9L1008.2,59.9z"/>
		<path class="st1" d="M921.9,4.3c-0.7,0.7-1.4,1.4-2.2,2c-3.2,2.5-4.9,5.5-5,8.9c-0.2,3.7,1.6,7.4,5,10.6
			c4.6,4.2,9.5,8.1,14.6,11.6c21.4,14.5,39.6,25.2,57.2,33.5c5.6,2.6,11.5,4.8,17.2,6.9c3,1.1,6.1,2.2,9.1,3.4v-2.2
			c-2.8-1.1-5.6-2.2-8.4-3.2c-5.7-2.1-11.5-4.2-17-6.8c-17.5-8.3-35.6-18.9-56.9-33.4c-5.1-3.5-9.9-7.3-14.4-11.4
			c-3-2.7-4.5-5.9-4.4-9c0.2-3,1.8-5.7,4.3-7.4c0.8-0.7,1.6-1.4,2.3-2.1c0.8-0.8,1.7-1.6,2.7-2.3c1.6-1.1,3.2-2.3,4.7-3.4h-3.4
			c-0.8,0.6-1.7,1.2-2.5,1.8C923.8,2.6,922.8,3.4,921.9,4.3z"/>
		<path class="st1" d="M1013.1,373.3c-4.5-14.2-14.5-25.3-29.8-33.1l-0.9-0.5c-7.7-4.1-15.6-7.7-23.7-10.9
			c-3.7-1.2-7.6-1.9-11.5-2.1c-1.7-0.2-3.4-0.4-5.1-0.6c-0.1,0-0.3,0-0.4,0c-0.2,0-0.3,0-0.5,0c-19.7,4.2-31.7,17.4-36.6,40.3
			c-2.6,11.9-0.2,23.9,6.9,35.7c7.2,12,15.7,20.6,26,26.2c6.1,3.4,13.1,6.5,20.8,6.5c2.3,0,4.6-0.3,6.9-0.9c3.6-1,7-2.7,9.9-5.2
			c9.6-8.7,17.7-15.7,27.4-21.3C1019.4,397.8,1017.7,387.7,1013.1,373.3L1013.1,373.3z M973.6,427.2c-2.6,2.2-5.7,3.9-9,4.8
			c-9.5,2.6-18.2-1.1-26.2-5.4c-10-5.5-18.2-13.8-25.3-25.5c-6.9-11.4-9.1-22.9-6.7-34.3c4.8-22.1,16.2-34.8,35.1-38.8h0.1
			c1.7,0.3,3.5,0.4,5.2,0.6c3.7,0.2,7.4,0.9,11,2c8,3.2,15.9,6.8,23.5,10.8l0.9,0.5c14.8,7.5,24.5,18.3,28.8,31.9
			c4.8,15.1,5.4,23.1-9.9,31.8C991.5,411.4,983.3,418.5,973.6,427.2L973.6,427.2z"/>
		<path class="st1" d="M648.8,18.5c0,4.8-2.8,8.9-8.4,11.8c-7.9,4.1-15.5,4.4-20.5,0.6s-6.7-10.7-4.9-19.2c0.2-0.9,1.7-7.8,5.9-11.7
			h-2.8c-3.5,4.2-4.8,9.9-5.1,11.3c-1.9,9.3,0.1,17.1,5.7,21.2c2.9,2.1,6.3,3.1,9.8,3.1c4.5-0.1,8.9-1.3,12.8-3.5
			c7.9-4.1,9.5-9.7,9.5-13.6C650.7,12.1,646.1,5,639.1,0h-3.7C643.3,4.6,648.7,12,648.8,18.5z"/>
		<path class="st1" d="M652.7,330c-16.2-4.5-21-14.8-26.5-26.7c-2.6-5.6-5.3-11.3-9.3-16.9c-5.8-8-15.8-11.2-29.7-9.7
			c-12.5,1.4-25.1,6.5-31.5,9.3c-15.8,7.1-4.8,36.7,1,52.6c0.4,1.1,0.8,2,1.1,2.9c9.2,25.4,22.6,42.2,39.7,49.9
			c7.9,3.5,16.4,5.2,25,5.1c18.3,0,35.9-6.8,47.9-11.5c3.9-1.5,7.3-2.8,10-3.6c6-1.8,9.2-5.9,9.1-11.7
			C689.3,355.4,670.4,335,652.7,330L652.7,330z M679.7,379.5c-2.7,0.8-6.2,2.1-10.1,3.7c-17.2,6.7-46,17.9-71.3,6.4
			c-16.6-7.5-29.6-23.9-38.7-48.8c-0.3-0.9-0.7-1.9-1.1-2.9c-5.3-14.2-16.2-43.7-2.1-50c10.4-4.7,45.5-18.6,58.8-0.3
			c3.9,5.4,6.6,11.1,9.2,16.6c5.5,11.8,10.8,23,27.8,27.8c18,5.1,35.2,25.6,35.3,37.8C687.5,374.7,684.9,378,679.7,379.5
			L679.7,379.5z"/>
		<path class="st1" d="M595.4,329.9c-7.6-0.7-13.1,0.6-16.5,3.9c-2.1,1.9-3.2,4.6-3.2,7.4c1.2,26.8,16.7,29.4,28,31.2
			c1.8,0.3,3.5,0.6,5.1,0.9c1,0.2,2.1,0.4,3.2,0.4c2.6,0.1,5-0.9,6.9-2.6c4.9-4.5,5.5-13.4,4.5-20.2
			C621.4,338.7,611.8,331.4,595.4,329.9L595.4,329.9z M617.4,369.7c-2.1,2-4.9,2.5-8.3,1.8c-1.6-0.4-3.3-0.7-5.2-1
			c-11.2-1.9-25.2-4.2-26.3-29.4c0-2.2,1-4.3,2.6-5.9c2.4-2.3,6.4-3.5,11.6-3.5c1.1,0,2.2,0,3.4,0.2c15.6,1.4,24.3,7.9,26.1,19.3
			C622.5,359.2,621,366.4,617.4,369.7L617.4,369.7z"/>
		<path class="st1" d="M562.5,506.1c4.6,0,9.1-4.1,11.2-6.3c10.2-10.8,14.3-18.1,13.2-23.8c-0.7-3.9-3.9-7-9.8-9.8
			c-10.9-5.1-13.8-0.1-16.7,5.1c-0.8,1.5-1.7,2.9-2.6,4.2c-5.8,7.8-7.1,22.9-0.1,28.7C558.9,505.4,560.7,506.1,562.5,506.1z
			 M559.3,476.7c1-1.4,1.9-2.9,2.8-4.4c2-3.5,3.5-6.2,7.3-6.2c2.4,0.2,4.8,0.8,6.9,2c5.3,2.5,8.1,5.1,8.7,8.4
			c0.9,4.9-3.1,11.9-12.6,22.1c-5.3,5.6-10,7.1-13.4,4.3C552.8,497.6,554,483.7,559.3,476.7L559.3,476.7z"/>
		<path class="st1" d="M568.8,991.7c15-17.4,43.8-16.1,44.1-16.1c3.9,0.1,6.9-1.2,8.6-3.6s2-5.6,0.8-9.2c-0.7-1.9-1.5-3.6-2.5-5.3
			c-0.3-0.6-0.7-1.2-1-1.8c-1.2-2.3-2.5-4.7-3.8-6.9c-2.8-4.8-5.4-9.8-7.5-15c-3.9-9.9-7.2-20.3-10.3-30.3l-1.3-4
			c-0.4-2.3-8.6-50-50.3-51.8c-20.9-0.9-37.3,8.4-50,28.4c-2.4,3.7-5,7.3-7.7,10.8c-1.7,2.3-3.5,4.8-5.2,7.2
			c-5,7.1-12.3,11.2-22.3,12.5c-19,2.4-32.4,10.3-41.9,24.9c-7.2,11.1-15.5,21.8-23.5,32.1c-3.4,4.4-6.9,9-10.3,13.5l-2.6,3.4
			c-3.7,5-7.5,10.1-11.4,15c-8.3,10.5-18.4,15.5-31.2,15.3h-1.4c-9.1-0.1-18.6-0.3-27.2-3.6c-11.4-4.4-19.8-12.7-27.2-21.1
			c-9.1-10.3-17.5-19.3-28.7-25.8c-9.2-5.2-19.5-8.1-30-8.6c-4.8-0.2-9.5-0.5-14.3-0.7c-8.3-0.4-16.8-0.8-25.2-1.3
			c-17.6-1.1-32.3,6-44.9,21.8c-2.8,3.5-6,6.9-9.1,10.1c-2.6,2.7-5.3,5.5-7.8,8.5c-9,10.7-14.8,24-17.6,40.5h2
			c2.8-16,8.4-28.9,17.1-39.2c2.4-2.9,5.1-5.7,7.7-8.4c3.1-3.3,6.4-6.7,9.2-10.3c12.4-15.5,26.1-22.2,43.2-21.1
			c8.4,0.5,17,1,25.2,1.3c4.8,0.2,9.5,0.5,14.3,0.7c10.3,0.4,20.3,3.3,29.2,8.3c10.9,6.3,19.2,15.2,28.2,25.4
			c7.5,8.6,16.2,17.1,28,21.6c9,3.5,18.6,3.6,27.9,3.7h1.4c13.4,0.2,24.1-5,32.8-16c3.9-5,7.8-10.1,11.5-15.1l2.6-3.4
			c3.4-4.5,6.9-9.1,10.3-13.5c8-10.4,16.3-21.1,23.5-32.2c9.2-14.1,22.1-21.7,40.5-24c10.5-1.3,18.5-5.8,23.7-13.3
			c1.7-2.4,3.5-4.8,5.2-7.1c2.6-3.5,5.4-7.2,7.8-11c12.3-19.4,28-28.4,48.2-27.5c40.9,1.7,48.4,49.7,48.5,50.1c0,0.1,0,0.1,0,0.2
			l1.3,4.1c3.2,10.1,6.4,20.5,10.4,30.4c2.2,5.3,4.8,10.4,7.6,15.3c1.3,2.3,2.5,4.6,3.7,6.9c0.3,0.6,0.7,1.2,1,1.8
			c0.9,1.6,1.8,3.3,2.4,5c1,2.9,0.8,5.5-0.5,7.3s-3.8,2.8-7,2.8c-5.7-0.1-11.3,0.4-16.9,1.5c-8.6,1.7-20.6,5.8-28.8,15.3
			c-8.4,9.8-11.2,23.3-8.4,40.2h2C558.1,1014.2,560.7,1001.1,568.8,991.7L568.8,991.7z"/>
		<path class="st1" d="M102.8,888.2c-8.3-12.9-18.8-24.2-31.2-33.3c-8.3-6.2-17.8-7-28-2.1c-2.6,1.2-5.3,2.6-7.8,3.8
			c-6.2,3.1-12.6,6.3-19.1,8.4c-5.5,1.7-11,3.1-16.6,4.2v2c5.8-1.1,11.6-2.6,17.2-4.3c6.7-2.1,13.2-5.4,19.4-8.5
			c2.5-1.3,5.2-2.6,7.8-3.8c9.7-4.5,18.2-3.9,26,1.9c12.1,9,22.5,20.1,30.7,32.8c6.2,9.7,8,21.6,4.8,32.6
			c-2.1,7.6-6.1,15.2-12.2,23.2s-14.6,12-25.2,11.5c-15.8-0.5-31.6,0.5-47.2,3.2C14,961,6.9,961.9,0,962.6v2
			c7-0.7,14.2-1.6,21.7-2.8c15.4-2.6,31.1-3.7,46.8-3.2c11.2,0.5,20.3-3.7,26.9-12.3c6.3-8.2,10.3-16,12.5-23.9
			C111.1,910.8,109.3,898.3,102.8,888.2L102.8,888.2z"/>
		<path class="st1" d="M391.1,1019.1c-0.9-12.1,4.4-22.7,10.3-32.3c8.6-14.1,20.6-25.6,32.2-36.8l5.7-5.5c5.1-5,10.6-7.8,16.3-8.3
			c8.5-0.7,17.1-1.1,25.5-1.5l1.5-0.1c7.5-0.3,12.7-3,15.7-8.1c2.7-4.5,4.9-9.3,6.6-14.2c0.1-0.2,6.1-21.6,23.4-29.8
			c4.5-2.1,9.4-3.2,14.4-3.2c6.6,0,13.7,1.7,21.3,5.1c10.3,5.6,16.3,15.1,18.8,29.8c1.3,7.8,1.6,13.8,0.9,19.1
			c-1.5,10.5-8.2,17.1-19.5,19.2h-0.1c-19,6-31.9,16.4-38.5,30.7c-8.3,18-4.3,37.8-1.6,47.2h2.1c-2.7-8.8-6.9-28.6,1.3-46.3
			c6.4-13.8,18.9-23.7,37.3-29.6c12.2-2.3,19.5-9.5,21-20.9c0.8-5.5,0.5-11.8-0.9-19.8c-2.7-15.4-9-25.3-19.9-31.2h-0.1
			c-14.1-6.3-26.7-7-37.4-2c-18.1,8.5-24.2,30.1-24.5,31c-1.6,4.8-3.7,9.4-6.4,13.8c-2.7,4.5-7.2,6.8-14.1,7.1l-1.5,0.1
			c-8.4,0.4-17.1,0.7-25.6,1.5c-6.2,0.5-12.1,3.5-17.5,8.8l-5.7,5.5c-11.7,11.2-23.8,22.9-32.5,37.2c-6,9.9-11.5,20.9-10.5,33.5
			c0.2,3.9,1.1,7.7,2.4,11.4h2.2C392.3,1026.9,391.4,1023.1,391.1,1019.1L391.1,1019.1z"/>
		<path class="st1" d="M244.9,477.3c7.7-4.4,16.2-6.4,24.3-8.3c3.6-0.9,7.4-1.8,11-2.9c8.5-2.5,17.3-4.9,25.7-7.1l7.3-1.9l3.2-0.9
			c12.3-3.3,25-6.8,38.1-7.1c10.7-0.3,18.6,4.4,24.1,14.5c5.3,9.9,8.5,20.9,9.4,32.1c1.1,11.4,2.3,23.5,4,35.5
			c2,13.2,9.8,21,22.8,22.6c9.2,1.1,18.8,0.7,28,0.4l4.2-0.2c19.7-0.7,37.3-7.9,53.4-15.5c9.8-4.6,14.7-12.7,15.5-25.4
			c0.2-3.3,0.2-6.6,0.3-9.8c-0.1-5.5,0.3-11.1,1-16.6c1.6-10.2,3.8-17.9,6.9-24.1c7.7-15.4,5.1-29-8.4-42.8
			c-14.8-15.2-30.8-25.6-48.9-31.8l-1.7-0.6c-13-4.5-26.5-9-37.5-18.1c-6-4.8-9.8-11.7-10.7-19.3c-0.4-3.1-0.8-6.2-1.1-9.3
			c-0.9-8.2-1.9-16.8-4.2-24.8c-5-17.5-16.8-24-35-19.3c-11.1,2.9-22.4,7.5-35.2,14.6l-0.7,0.4c-7.7,4.4-15.6,8.4-23.7,12
			c-16.5,6.9-27.3,18.9-33.1,36.7c-3.5,10.9-9.2,21-16.7,29.7c-9.5,11-22.6,18.5-36.9,21c-15.3,2.8-28.2,8.6-39.5,17.7
			c-10.1,8.1-22.2,13.6-35,15.8c-17,3.1-35.1,4.7-51.7-5c-7.4-4.3-14.4-9.7-21.2-15l-1.8-1.4c-9.3-7.2-18.7-14.7-27.8-21.9
			c-5.2-4.2-10.5-8.4-15.8-12.5c-10.8-8.4-18.6-17.3-23.7-27.1c-3.7-7-8.4-13.5-13.9-19.2v2.9c4.8,5.2,8.9,11,12.1,17.2
			c5.3,10,13.2,19.2,24.2,27.9c5.3,4.2,10.5,8.3,15.8,12.5c9.1,7.2,18.5,14.7,27.8,21.9l1.8,1.4c6.8,5.3,13.9,10.8,21.4,15.1
			c17.2,10,35.7,8.4,53.1,5.2c13.2-2.3,25.5-7.8,35.9-16.2c11-8.9,23.6-14.6,38.6-17.3c14.8-2.7,28.3-10.3,38.1-21.8
			c7.7-8.8,13.5-19.2,17.1-30.4c5.6-17.2,16.1-28.8,32-35.5c8.2-3.6,16.2-7.6,23.9-12.1l0.7-0.4c12.8-7,23.8-11.6,34.8-14.4
			c17.2-4.4,27.8,1.5,32.5,18c2.3,7.9,3.2,16.3,4.1,24.4c0.3,3.1,0.7,6.2,1.1,9.3c1,8.1,5.1,15.5,11.4,20.6
			c11.3,9.3,24.9,14,38.1,18.5l1.8,0.6c17.8,6.1,33.5,16.3,48.1,31.3c12.9,13.3,15.4,25.8,8,40.5c-3.2,6.5-5.5,14.3-7.1,24.7
			c-0.7,5.6-1.1,11.2-1,16.9c0,3.2-0.1,6.5-0.3,9.7c-0.7,11.9-5.3,19.4-14.4,23.7c-15.9,7.5-33.3,14.5-52.6,15.2l-4.1,0.2
			c-9.1,0.4-18.6,0.7-27.7-0.4c-12.1-1.5-19.3-8.5-21.1-20.9c-1.8-12-3-24.1-4-35.4c-0.9-11.5-4.2-22.7-9.7-32.9
			c-5.9-10.8-14.3-15.9-25.9-15.5c-13.3,0.4-26.1,3.9-38.6,7.2l-3.2,0.9l-7.3,1.9c-8.5,2.3-17.2,4.6-25.8,7.1
			c-3.6,1.1-7.3,2-10.9,2.8c-8.3,2-17,4-24.9,8.5c-12.9,7.4-18.3,19.2-15,33.3c1.7,7.5,5.6,13.9,9.4,20.1c0.6,1,1.3,2.1,1.9,3.2
			c5.1,8.6,8.2,16,6.7,24.3c-1,4.6-2.3,9.1-3.9,13.5c-0.7,1.9-1.3,3.9-1.9,5.9c-1.6,5.1-3.2,10.2-4.8,15.3l-2.4,7.2
			c-4.5,14.7-16.2,31.7-16.3,31.8l-0.1,0.1c-0.9,1.9-1.9,3.7-2.8,5.6c-2,4.1-4.1,8.3-6.2,12.4c-2,3.8-4,7.6-6,11.3
			c-3.1,5.8-6.4,11.8-9.4,17.8c-4.3,8.5-7.7,16.2-10.5,23.6c-4.2,10.9-11.2,20.2-18,29.2l-0.4,0.6c-3.2,4.1-5.9,8.5-8.1,13.2
			c-3,7.2-3.1,14.2-0.5,20.3c3,7,9.3,12.5,18.4,16.1c8.9,3.6,18.3,5.7,27.9,6.2c10.5,0.5,19.9-3.9,27.3-12.5l1.8-2.1
			c5.6-6.6,11.4-13.4,18.9-18.4c9-5.9,22.4-4.6,28.9,2.8l1.5,1.7c3.9,4.5,7.7,8.8,10.4,14.1c3.4,6.4,3.9,14,1.4,20.8
			c-2.5,6.7-3.9,13.7-4.3,20.8c-0.5,12.8,14.1,32.7,25.5,34.9c4,0.8,8.6,1.3,12-0.2c13.1-6,26.7-12.1,35.4-24.7
			c5.9-8.5,8.3-19,6.4-29.2c-2.5-15.6-4.1-30.8,3.8-44.8c3.9-6.8,8.6-15.3,14.4-22.3c17.8-21.4,39.6-39.1,64.1-52.3
			c9.2-5.1,19.9-7.1,30.4-5.6c7.7,1,15.5,1.5,23.1,1.9l2.9,0.2c12.5,0.7,24.3-3.2,35.2-11.7c0.9-0.7,1.9-1.4,3-2
			c0.5-0.3,1-0.6,1.5-1c2.1-1.5,4.7-2.1,7.3-1.7c6.3,1.2,11.1,8.3,11.2,8.5c4.8,5.8,7.3,12.8,9.8,19.7c1.1,3.2,2.3,6.4,3.7,9.6
			c2.5,5.6,5.5,11,8.5,16.3l0.5,0.8c2.4,4.2,4.9,8.4,7.3,12.5c2.9,4.9,5.8,10,8.7,15c10.2,18.3,0.6,35-10.7,43.8
			c-7.3,5.9-15.1,8.5-23.4,7.5c-18.4-2.1-33-20.7-33.1-20.9l-0.1-0.1c-8.6-8.5-24.5-9.5-34.8-2.1c-7.6,5.4-11.2,13.3-14.3,21l-0.4,1
			c-6.1,15.4-12.5,31.2-23.5,44.3c-8.7,10.3-20,20.7-37.2,19.7c-8.2-0.5-14-4-17.7-10.5c-2.8-4.8-4.1-10.5-4.3-18
			c-0.3-13.2-0.5-28.6,0.1-43.9c0.4-9.4,1.5-17.2,3.5-23.7C412,738.3,423.2,725,441,715c14.4-8.1,27.7-8.2,40.5-0.5
			c2.9,1.7,5.8,3.4,8.7,5c4.2,2.4,8.6,4.9,12.8,7.6l1.6,1c6,3.9,12.2,7.9,17.1,12.9l1.2,1.2c6.5,6.7,12.7,12.9,22.6,14.4h0.2
			c11.5,0,19.6-3.1,24-9.3c4.8-6.8,4.9-16.9,0.2-30c-8.6-24.3-22.6-22-24.3-21.7c-16.5-0.5-33.5-3.2-53.6-8.5
			c-17.6-4.7-30.8-4-42.7,2.2c-7.6,3.9-14.9,8.4-21.7,13.6c-15.5,12-25.5,22.8-32.4,35.2c-6.4,11.5-9.5,24.4-9.1,37.5
			c0.2,10.8,0.2,19.1,0,27c-0.3,15.4-3.7,30.5-10,44.5c-3.7,8.3-8.3,16.3-13.5,23.8c-9.6,13.5-24.7,19-38.3,22.6
			c-8.8,2.4-15.5,1.6-21.1-2.4c-3.4-2.4-7.2-5.2-9.7-8.8c-9-12.7-17.8-25.7-26.4-38.3c-3.2-4.7-6.4-9.4-9.7-14.2
			c-4.7-6.8-9.3-11-15-13.3c-1.7-0.7-3.5-1.1-5.4-1.1c-16-0.3-32.1-3.1-45.9-5.8c-10.1-2-19.6,0.4-26.7,6.7
			c-10.2,9-17.6,20.8-21.4,33.8c-4.9,16.3,0.3,31.2,6.1,43.7c7,15.2,18.8,25.3,35.1,29.9c11.9,3.4,24.7,3.5,39,0.3
			c10.5-2.5,21.1-4.3,31.9-5.4c8.8-0.8,17.4,2.5,26.2,10.1c2,1.8,4.1,3.6,6,5.4c3.5,3.2,7.2,6.6,11.1,9.5c8.5,6.3,16.4,8.8,24.2,7.7
			c15.3-2.3,26.4-10.4,32.7-24c4.2-8.5,7.8-17.2,11-26.1c3.7-11,11.5-17.1,25.4-19.8c12.7-2.5,27.6-5.4,42.5-8
			c14.5-2.5,26.6-10.4,37-24c6.4-8.3,12.5-17,18.4-25.3c2.4-3.4,4.8-6.8,7.2-10.1c7-9.7,20.7-19.3,65.9-6.8
			c40.8,11.3,45.1,36.1,45.1,36.4v0.1c1.5,4.8,2.9,9.6,4.3,14.3c2.2,7.4,4.4,15.1,6.8,22.6c0.5,1.6,1,3.3,1.5,4.9
			c2.2,7.2,4.5,14.6,8.2,21.2c11.6,20.8,37.2,29.8,61,21.5c14.2-4.9,28.1-10,41.5-15c5.9-2.2,12.1-4.9,19.6-8.5
			c28.6-13.5,45-44.2,40.1-75.5c-1.9-12.5-6.5-17.8-17.3-20.3c-1.7-0.3-3.4-0.5-5.2-0.5c-2.8-0.1-5.6-0.1-8.4-0.1
			c-5.4,0-11.1,0-16.5-0.5c-13.8-1.2-23.1-10.3-31.4-19.5c-5.3-5.9-11-12-17.8-16.5c-3.8-2.6-6.6-4-9.2-3.3c-2.5,0.6-4.6,2.8-7.5,8
			c-1.6,3-3,6-4.3,9.2c-1.2,2.8-2.4,5.6-3.8,8.3c-8.9,16.6-22,24-40,22.5c-4-0.3-6.6-2.9-6.5-6.5c0-3.5,0.7-6.9,1.9-10.1
			c1.9-4.5,4-9,6-13.3c2.2-4.6,4.4-9.4,6.3-14.3c5.4-13.1,5.3-26.5,0-38.7c-5.3-11.9-10.9-23.9-16.4-35.5
			c-3.1-6.6-6.3-13.4-9.4-20.1c-4.8-10.2-7.9-21.1-9.4-32.2c-0.5-3.7-0.9-7.3-1.4-11c-0.2-1.7-0.4-3.3-0.6-5
			c0.3-17.8-3-29.3-10.3-36.5c-5.9-5.8-14.3-8.5-25.6-8c-28.6,1-39.2,41.6-39.9,44.3c-5.8,13.4-19,19.7-36.4,17.4
			c-4.9-0.6-10.5-1.3-15.8-0.4c-9.9,1.6-19.6,5.9-30.5,13.5c-13.9,9.7-28.2,19.8-42.5,29.4c-4.1,2.8-8.4,5.5-12.6,8.2
			c-6.3,4-12.7,8.1-18.8,12.5c-4.8,3.5-9.3,7.5-13.7,11.4c-4.2,3.7-8.5,7.5-13,10.8c-9.5,7.1-19.4,8-29.4,2.6
			c-5.8-3.2-10.5-7.8-15-12.3c-1.5-1.5-3.1-3.1-4.8-4.6c-6.3-5.9-12.9-12-21.9-14.2c-4.2-1-8.5-2-12.8-3c-3.6-0.8-7.2-1.7-10.8-2.5
			c-8.9-2.1-13.6-6.5-15.4-14.2c-2.2-9.9-0.1-18.9,2.2-26.5c2-6.5,4.4-12.9,6.8-19.1c1-2.8,2.1-5.6,3.1-8.4
			c0.1-0.2,7.1-19,20.3-31.7c0,0,0.1-0.1,0.1-0.1c1.3-1.8,2.5-3.6,3.7-5.3c2.6-3.9,5.4-7.9,8.4-11.6c9-11.1,11.7-21.6,8.6-33
			c-2.4-8.9-7.3-16.3-11.7-22.3c-0.9-1.2-1.9-2.5-2.8-3.6c-2.3-2.7-4.3-5.7-6-8.8c-5.5-10.7-4.2-14.1,4.2-21.7
			c1-0.8,2.2-1.4,3.4-1.8l0.2-0.1c3.2-1.2,6.5-2.4,9.7-3.6c8.8-3.3,17.8-6.8,26.8-9.8c7.9-2.7,18.4-5.7,29.6-5.2
			c9.3,0.4,16.2,4.5,21.1,12.7c5.3,8.7,8,19,8.4,32.5c0,1.5,0.1,2.9,0.1,4.3c0,4.9,0.3,9.9,1,14.8c1,6,2.4,12.8,5.7,18.3
			c9,15.2,24.9,18.1,39.1,19.6c2.6,0.3,5.2,0.4,7.8,0.5c2.7,0.1,5.5,0.3,8.2,0.6c4,0.5,8,1,11.9,1.6c6,0.9,12.1,1.8,18.2,2.2
			c11.8,0.9,23.6-0.5,34.9-4.3c51.3-7.9,120.6-77.2,121.3-77.9l0.1-0.1c1-1.3,2-2.7,3-4c3.4-4.6,6.9-9.4,11-13.2
			c8.6-7.9,19.8-10.2,33.4-6.9c14.4,3.5,28.9,9.4,45.7,18.5c18.8,10.2,20.2,23.3,16.4,39.8c-3.4,15-11.1,28-18.2,38.7
			c-6.1,9.3-13.3,17.7-21.4,25.2c-1,0.8-2.1,1.4-3.3,1.8c-0.6,0.3-1.3,0.5-1.9,0.8l-0.1,0.1c-9.2,6.2-17.4,13.8-24.3,22.4
			c-14.4,18.2-17.8,37-9.7,54.3c8.8,19.4,27.1,32.9,48.2,35.7c21.7,2.7,43.4-6.3,58-24.1c5.7-7,8.2-13,7.6-18.5
			c-0.9-8-8-13.6-16.2-20.1c-13.2-10.4-28.1-22.3-21.7-48.2l8.7-23.7c6.9-18.8,13.8-37.5,20.7-56.3c3.9-10.5,5.3-20.1,4.5-29.4
			c-1.3-14.5-10-24.3-25.2-28.2c-4.4-1-8.8-1.8-13.3-2.2c-4.4-0.4-8.8-1.1-13.1-2.1c-8.9-2.5-17.7-5.4-26.3-8.8l-4.2-1.5
			c-11.5-4.2-21.7-5.8-32-4.8h-0.2c-0.1,0-11.3,2.9-28.7,0.7c-16-2-40.7-8.8-67.3-29.8l-0.1-0.1c-2.3-1.4-4.7-2.7-7.1-3.9
			c-5.1-2.7-10.3-5.5-14.6-9.2c-16.9-14.4-33.5-25.5-50.9-33.9c-12.1-5.9-20.3-15-25.1-28c-3.7-9.9-7.6-21.6-9.3-33.8
			c-2.2-15.8,2.1-23,15.8-26.7c10-2.7,18-7.3,24.4-13.9c1.7-1.7,3.4-3.5,5-5.3c5.6-6,11.4-11.6,17.6-17c14.5-12.3,28.9-20.3,44-24.4
			c68.3-16.5,97.9-68.4,99-70.4c9.2-13.2,13.5-25.1,13.7-37.5c0-3.8,0.3-7.8,0.5-11.5c0.2-3.4,0.4-7,0.5-10.5
			c0.2-9,3.6-14.1,11.4-17c22.3-8.3,45.1-19.8,71.7-36.1c9.7-5.9,18.9-7.8,28.3-5.8s15.7,7.8,18.7,17.3c0.8,2.5,1.5,5.2,2.1,7.8
			c0.7,3.1,1.5,6.2,2.6,9.2c5.8,16.3,20.2,23.4,38.6,19c4.4-1.1,8.6-3,12.3-5.6c4.6-3.3,7.2-7.2,7.8-11.7c0.7-5.4-1.6-11.5-6.7-17.6
			c-4.1-5-8.8-9.7-13.2-14.2c-2.7-2.7-5.5-5.6-8.2-8.4C818.1,16.9,814,8.8,812.4,0h-2c1.6,9.3,5.9,17.9,12.3,24.7
			c2.7,2.9,5.5,5.7,8.2,8.5c4.5,4.5,9,9.2,13.1,14.1c4.7,5.7,6.8,11.2,6.2,16c-0.5,3.9-2.9,7.4-7,10.3c-3.5,2.5-7.5,4.3-11.6,5.4
			c-17.3,4.1-30.8-2.6-36.2-17.8c-1-3-1.8-6-2.5-9c-0.6-2.6-1.3-5.3-2.1-7.9c-3.2-10-10.2-16.5-20.2-18.6c-9.8-2.1-19.8-0.1-29.7,6
			c-26.5,16.3-49.1,27.7-71.3,36c-8.6,3.2-12.5,9-12.7,18.9c-0.1,3.5-0.3,7-0.5,10.4c-0.2,3.8-0.4,7.8-0.5,11.6
			c-0.1,12-4.4,23.6-13.3,36.5c0,0,0,0.1-0.1,0.1c-0.3,0.5-29.3,53-97.8,69.5c-15.4,4.2-30,12.3-44.8,24.8
			c-6.2,5.4-12.1,11.2-17.6,17.2l-5,5.2c-6.3,6.5-13.7,10.7-23.5,13.4c-14.7,4-19.6,12.1-17.3,28.9c1.7,12.4,5.7,24.3,9.4,34.3
			c5,13.5,13.5,23,26.1,29.1c17.2,8.4,33.7,19.4,50.5,33.6c4.5,3.8,9.8,6.7,15,9.4c2.3,1.2,4.7,2.5,6.9,3.8
			c27,21.3,52.1,28.1,68.4,30.2c17.1,2.1,28.1-0.5,29.2-0.8c10-1,19.8,0.5,31,4.7l4.2,1.5c8.6,3.2,17.5,6.5,26.5,8.9
			c4.4,1,8.8,1.8,13.3,2.2c4.4,0.4,8.8,1.1,13.1,2.1c14.5,3.8,22.5,12.7,23.7,26.5c0.8,9-0.6,18.4-4.4,28.5
			c-6.9,18.8-13.8,37.5-20.7,56.3l-8.8,23.7c0,0,0,0.1,0,0.1c-6.8,27.2,9.4,40,22.4,50.3c7.9,6.2,14.7,11.6,15.4,18.8
			c0.5,4.9-1.8,10.5-7.2,17c-14.2,17.3-35.3,26-56.3,23.4c-20.5-2.7-38.2-15.7-46.7-34.5c-18.5-39.5,31.5-73,33.3-74.1
			c0.5-0.3,1.1-0.5,1.7-0.8c1.4-0.5,2.8-1.2,3.9-2.2c8.3-7.6,15.6-16.2,21.8-25.6c7.2-10.9,15-24.1,18.5-39.4
			c4.7-20.6-0.3-32.7-17.4-42s-31.6-15.1-46.2-18.7c-14.3-3.5-26.2-1-35.3,7.4c-4.3,4-7.8,8.8-11.3,13.5c-1,1.3-1.9,2.6-2.9,3.9
			c-2.2,2.2-70.2,69.7-120.3,77.3h-0.2c-11,3.7-22.6,5.1-34.2,4.2c-6-0.5-12.1-1.4-18-2.2c-3.9-0.6-7.9-1.2-11.9-1.6
			c-2.8-0.3-5.6-0.5-8.4-0.6c-2.5-0.1-5.1-0.2-7.6-0.5c-13.7-1.5-29-4.2-37.5-18.6c-3-5.1-4.4-11.8-5.4-17.6c-0.7-4.8-1-9.6-1-14.5
			c0-1.5-0.1-2.9-0.1-4.4c-0.5-13.8-3.2-24.4-8.7-33.4c-5.3-8.8-12.8-13.2-22.8-13.6c-11.5-0.5-22.3,2.5-30.3,5.3
			c-9,3-18.1,6.5-26.9,9.8c-3.2,1.2-6.4,2.4-9.6,3.6l-0.2,0.1c-1.5,0.4-2.9,1.2-4.1,2.1c-9,8.2-10.7,12.4-4.6,24.1
			c1.8,3.2,3.9,6.3,6.2,9.1c0.9,1.2,1.9,2.4,2.7,3.6c4.3,5.9,9,13,11.4,21.7c2.9,10.7,0.3,20.6-8.3,31.2c-3,3.7-5.8,7.8-8.4,11.7
			c-1.2,1.8-2.4,3.5-3.6,5.2c-13.5,13-20.6,32.2-20.7,32.4c-1,2.8-2.1,5.6-3.1,8.3c-2.4,6.3-4.8,12.7-6.8,19.2
			c-2.3,7.4-4.6,17.1-2.3,27.5c1.9,8.4,7.3,13.4,16.9,15.7c3.6,0.9,7.2,1.7,10.8,2.5c4.3,1,8.5,2,12.7,3c8.5,2.1,14.9,8,21,13.8
			c1.6,1.5,3.1,3,4.7,4.6c4.6,4.6,9.4,9.4,15.5,12.7c10.7,5.8,21.3,4.8,31.5-2.8c4.5-3.4,8.9-7.2,13.1-10.9
			c4.4-3.8,8.9-7.8,13.6-11.3c6-4.4,12.5-8.5,18.7-12.5c4.2-2.6,8.5-5.4,12.6-8.2c14.3-9.7,28.6-19.7,42.5-29.5
			c10.6-7.4,20-11.6,29.6-13.2c5-0.8,10.5-0.2,15.2,0.4c18.4,2.4,32.4-4.4,38.6-18.7c0,0,0-0.1,0-0.2c0.1-0.4,10.6-41.9,38.1-42.8
			c10.7-0.4,18.6,2.1,24.1,7.5c6.9,6.8,10,17.9,9.7,35.1v0.1l0.6,5c0.5,3.7,0.9,7.3,1.4,11c1.5,11.3,4.8,22.4,9.6,32.8
			c3.1,6.7,6.3,13.5,9.5,20.1c5.5,11.6,11.2,23.5,16.4,35.5s5.3,24.4,0,37.1c-2,4.8-4.2,9.5-6.3,14.2c-2,4.4-4.1,8.9-6,13.4
			c-1.3,3.5-2,7.1-2,10.8c-0.1,4.7,3.2,8.1,8.3,8.5c18.6,1.5,32.7-6.4,41.9-23.6c1.5-2.7,2.7-5.6,3.9-8.4c1.2-3.1,2.7-6.1,4.2-9
			c2.6-4.6,4.4-6.6,6.2-7s4.3,0.8,7.6,3.1c6.5,4.4,12.2,10.4,17.4,16.2c8.6,9.5,18.2,18.9,32.8,20.2c5.6,0.5,11.2,0.5,16.7,0.5
			c2.7,0,5.6,0,8.3,0.1c1.6,0,3.2,0.2,4.8,0.5c10,2.3,14,7,15.8,18.6c4.7,30.4-11.2,60.3-39,73.4c-7.4,3.5-13.6,6.2-19.4,8.4
			c-13.4,5-27.3,10.1-41.5,15c-22.8,8-47.5-0.7-58.6-20.6c-3.6-6.4-5.8-13.7-8-20.8c-0.5-1.7-1-3.3-1.5-5
			c-2.4-7.5-4.7-15.2-6.8-22.6c-1.4-4.7-2.8-9.5-4.2-14.3c-0.3-1.9-5.2-26.5-46.6-37.9c-36.2-10-57.2-7.7-68.1,7.5
			c-2.4,3.4-4.8,6.7-7.2,10.1c-5.9,8.4-12,17-18.4,25.3c-10.1,13.2-21.9,20.8-35.8,23.2c-14.9,2.6-29.8,5.5-42.5,8
			c-14.4,2.8-23,9.5-26.9,21.1c-3.1,8.8-6.8,17.5-10.9,25.9c-6.1,12.9-16.6,20.6-31.2,22.8c-7.3,1.1-14.7-1.3-22.7-7.3
			c-3.8-2.9-7.4-6.2-10.9-9.4c-2-1.8-4-3.7-6.1-5.5c-9.3-8-18.3-11.4-27.7-10.6c-10.8,1.1-21.5,2.9-32.1,5.5
			c-13.9,3.2-26.4,3.1-38-0.2c-15.7-4.5-27.1-14.2-33.9-28.8c-5.6-12.1-10.7-26.6-5.9-42.3c3.7-12.7,10.9-24.2,20.8-32.9
			c6.7-5.8,15.6-8,25-6.2c13.9,2.7,30,5.6,46.2,5.8c1.6,0,3.1,0.3,4.6,0.9c5.3,2.2,9.6,6.1,14.1,12.6c3.2,4.7,6.5,9.4,9.7,14.2
			c8.6,12.6,17.5,25.6,26.5,38.3c2.7,3.8,6.7,6.8,10.2,9.3c6,4.3,13.5,5.1,22.8,2.7c13.9-3.7,29.5-9.4,39.4-23.4
			c5.3-7.6,9.8-15.7,13.6-24.1c6.4-14.3,9.9-29.7,10.2-45.3c0.2-7.9,0.2-16.2,0-27c-0.4-12.8,2.7-25.4,8.9-36.5
			c6.8-12.1,16.6-22.8,31.9-34.6c6.7-5.1,13.8-9.6,21.3-13.4c11.4-6,24.1-6.6,41.2-2c20.3,5.4,37.6,8.1,54.2,8.6c0.1,0,0.2,0,0.3,0
			c0.6-0.1,13.8-3.1,22.1,20.4c4.4,12.5,4.4,22,0,28.2c-4,5.6-11.5,8.4-22.3,8.5c-9.2-1.4-15.1-7.5-21.4-13.8l-1.1-1.2
			c-5.1-5.2-11.4-9.2-17.4-13.2l-1.6-1c-4.2-2.7-8.6-5.2-12.9-7.6c-2.8-1.6-5.8-3.3-8.6-5c-13.5-8.2-27.5-8-42.6,0.4
			c-18,10.1-29.9,24.1-35.2,41.7c-2.1,6.7-3.2,14.6-3.6,24.2c-0.6,15.4-0.3,30.8-0.1,44c0.2,7.8,1.6,13.8,4.5,19
			c4,7.1,10.5,10.9,19.3,11.5c18.1,1.2,29.8-9.7,38.8-20.4c11.2-13.3,17.6-29.3,23.8-44.8l0.4-1c3-7.4,6.4-15,13.6-20.1
			c9.4-6.7,24.4-5.8,32.2,1.9c1.1,1.4,15.5,19.4,34.4,21.6c8.8,1,17.2-1.7,24.9-7.9c11.9-9.2,22-26.9,11.2-46.3
			c-2.8-5.1-5.8-10.1-8.7-15c-2.4-4.1-4.9-8.3-7.3-12.5l-0.5-0.9c-2.9-5.2-6-10.6-8.4-16.1c-1.4-3.1-2.5-6.3-3.6-9.4
			c-2.5-7-5.1-14.2-10-20.2c-0.2-0.3-5.4-7.9-12.5-9.2c-3.1-0.6-6.3,0.1-8.8,2l-1.4,0.9c-1,0.7-2.1,1.4-3.1,2.1
			c-10.6,8.3-21.7,12-33.8,11.3l-3-0.2c-7.6-0.4-15.4-0.9-23-1.9c-10.9-1.6-22,0.5-31.6,5.8c-24.7,13.3-46.7,31.2-64.7,52.8
			c-5.9,7.2-10.8,15.7-14.6,22.6c-8.2,14.6-6.6,30.1-4,46.1c1.8,9.7-0.4,19.7-6.1,27.7c-8.4,12.1-21.7,18.2-34.6,24
			c-2.9,1.3-7,0.7-10.8,0c-9.6-1.8-24.4-20.1-23.9-32.9c0.3-6.9,1.7-13.7,4.1-20.2c2.7-7.3,2.2-15.4-1.5-22.3
			c-2.8-5.6-6.8-10.1-10.6-14.5l-1.5-1.7c-7-8.1-21.8-9.6-31.5-3.2c-7.7,5.1-13.6,12-19.3,18.8l-1.8,2.1c-7,8.2-15.9,12.3-25.7,11.8
			c-9.3-0.5-18.6-2.5-27.2-6c-8.6-3.3-14.5-8.5-17.3-15c-2.4-5.6-2.2-12.1,0.5-18.8c2.1-4.6,4.7-8.9,7.8-12.8l0.4-0.6
			c6.9-9.1,13.9-18.6,18.2-29.7c2.8-7.3,6.2-15,10.4-23.4c3-6,6.2-11.9,9.3-17.7c2-3.7,4.1-7.5,6.1-11.3c2.1-4.1,4.2-8.3,6.3-12.4
			c0.9-1.9,1.8-3.7,2.7-5.5c0.8-1.1,12.1-17.8,16.6-32.3l2.2-7.2c1.6-5.1,3.2-10.2,4.8-15.3c0.6-2,1.3-3.9,1.9-5.9
			c1.7-4.5,3-9.1,3.9-13.8c1.8-9.9-2.6-18.5-6.9-25.7c-0.6-1.1-1.3-2.1-1.9-3.2c-3.8-6.3-7.5-12.3-9.1-19.5
			C227.8,495.2,232.8,484.2,244.9,477.3L244.9,477.3z"/>
		<path class="st1" d="M812.8,1005.8c1.8-11.5,8-19.9,18.6-25.1c13.6-6.7,25.4-16.5,35.7-25.1c4.1-3.3,8.7-5.9,13.7-7.8
			c3.8-1.5,7.3-1.6,10.1-0.3c3,1.4,5.4,4.3,7,8.6s2.8,8.7,4.1,13c0.6,2.2,1.3,4.3,2,6.5c2.5,8.1,8,12.8,14.9,12.8h0.1
			c5.2,0,10.5-2.9,15.3-5.4c3.4-1.9,6.6-4,9.7-6.3c1.9-1.4,3.9-2.8,5.9-4.1c7-4.5,15.1-6.9,23.5-6.9h19.5c8.2,0,16.4-0.3,24.9-1.1
			v-2c-8.3,0.8-16.6,1.2-24.9,1.1h-19c-8.9-0.1-17.6,2.4-25,7.2c-2.1,1.3-4.1,2.7-6,4.1c-3,2.3-6.2,4.3-9.5,6.2
			c-4.5,2.4-9.6,5.2-14.3,5.2h-0.1c-6,0-10.8-4.2-13-11.4c-0.7-2.1-1.3-4.3-1.9-6.5c-1.3-4.3-2.6-8.8-4.1-13.1
			c-1.7-4.8-4.5-8.2-8-9.8s-7.3-1.4-11.7,0.3c-5.1,2-9.9,4.7-14.2,8.2c-10.3,8.6-21.9,18.3-35.3,24.9c-11.2,5.5-17.8,14.5-19.7,26.6
			c-1,6.3-1.9,13-1.1,20.3c0.2,1.6,0.4,3.2,0.7,4.8h2c-0.3-1.7-0.6-3.3-0.7-5C811,1018.6,811.8,1012,812.8,1005.8z"/>
		<path class="st1" d="M7,679.7c10.9-0.6,21.8,0.7,32.3,2c3,0.4,6,0.8,9,1.1c14.3,1.6,26,1.2,36.8-1.1c15.1-3.2,30-9.8,46.8-20.7
			c11.5-7.5,18.5-17.7,20.9-30.5c10.2-21.1,8.1-31.7,8-32.1v-0.1c-0.1-0.3-0.2-0.7-0.4-1c-0.3-0.6-0.5-1.2-0.6-1.9
			c-2.9-15.8-12.1-25.7-27.3-29.3c-9.1-2.2-18.6-1.5-30,2.1c-11.8,3.9-24,6.6-36.3,8.1c-9,1-18.3,2.1-26.5,7.4
			c-3.3,2.1-6.7,4-10.1,5.9c-2.1,1.2-4.2,2.4-6.3,3.6c-2.7,1.6-4.6,2.1-6,1.6s-2.4-2.2-3.4-5.6c-1.9-6.6-3.2-13.4-4.1-20.3
			c-1.4-10.4-4.7-18.8-10-25.6v3.4c4.2,6.1,6.8,13.5,8.1,22.5c0.8,7,2.2,13.9,4.1,20.6c0.9,3,2.1,5.9,4.6,6.9c2,0.8,4.4,0.2,7.7-1.8
			c2.1-1.2,4.2-2.4,6.3-3.6c3.4-1.9,6.9-3.8,10.2-6c7.8-5.1,16.8-6.1,25.6-7.1c12.5-1.5,24.8-4.2,36.7-8.1c11-3.5,20.2-4.2,28.9-2.1
			c14.5,3.5,23,12.5,25.8,27.7c0.2,0.8,0.4,1.5,0.7,2.2c0.1,0.3,0.2,0.6,0.3,0.8c0.1,0.8,1.6,11.2-7.9,30.9c0,0.1-0.1,0.2-0.1,0.3
			c-2.3,12.3-9.1,22.1-20.1,29.3c-16.6,10.8-31.3,17.3-46.1,20.5c-10.7,2.3-22.2,2.6-36.2,1c-3-0.3-6-0.7-9-1.1
			c-10.6-1.3-21.6-2.7-32.7-2c-2.4,0.1-4.7,0.2-6.9,0.1v2C2.3,679.8,4.7,679.8,7,679.7z"/>
		<path class="st1" d="M136.8,908.9l2.9,6.2c6.1,13.1,18.5,17,29.6,19.7c19.3,4.6,39.1,4.3,58.3,3.9c2.8-0.1,5.7-0.1,8.5-0.2
			c12.5-0.2,23.7,3.9,34.3,12.5c4.5,3.6,8.8,7.5,13.1,11.3c3.6,3.2,7.3,6.5,11,9.6c10.9,9.1,23.1,13,36.2,11.7
			c16.8-1.7,30.2-9,39.6-21.9c10-13.5,19.6-27.7,28.6-41c10.8-16,25.2-25.9,43.9-30.1c15-3.4,27.9-11.9,38.1-25.3
			c2.8-3.6,4.8-6.5,6.7-9.3c2.5-3.6,4.9-7.1,8.6-11.6c0.2-0.2,21.5-22.8,58.6-8h0.1c0.4,0.1,40.5,11.1,55.3,68.6
			c4,15.2,13.4,28.4,26.5,37l5.1,3.4c7,4.8,14.3,9.7,21.4,14.6c8.3,5.8,16.3,6.4,24.6,2c1.7-0.9,3.4-1.8,5.1-2.7
			c4.8-2.5,9.7-5.1,14.4-7.8c5-2.8,10-5.8,14.9-8.6c6.1-3.6,12.4-7.3,18.7-10.8c3.3-1.8,6.7-3.5,10-5.2c5.7-2.6,11.2-5.7,16.4-9.1
			c9-6.2,17.8-13,26.3-19.5c4.9-3.7,9.9-7.6,14.9-11.3c7.4-5.5,15-11.6,19.2-20.5c3.1-6.8,5.7-13.7,8-20.7l0.1-0.3
			c2.8-8.1,7.7-14,14.3-17.1s14.6-3.2,22.4-0.2c7.4,2.8,13.9,7.9,20.1,15.6c1.9,2.4,3.8,4.8,5.7,7.2c5.6,7.1,11.4,14.4,17.4,21.3
			c5.2,5.9,12.8,9.5,22.1,10.4c10.5,1,21-0.8,31-2.5l6.2-1c9.5-1.5,17.8-3,25.5-4.5c2.6-0.5,5.3-1,8-1.6c3.1-0.6,6.2-1.2,9.3-1.8v-2
			c-3.2,0.7-6.5,1.3-9.7,1.9c-2.7,0.5-5.3,1-8,1.6c-7.7,1.5-16,3-25.5,4.5c-2.1,0.3-4.1,0.7-6.2,1c-10,1.7-20.3,3.4-30.5,2.5
			c-8.8-0.8-15.8-4.1-20.8-9.7c-6-6.9-11.8-14.2-17.4-21.2c-1.9-2.4-3.8-4.8-5.7-7.2c-6.4-8-13.3-13.3-21-16.2
			c-8.3-3.2-16.8-3.1-23.9,0.3s-12.4,9.6-15.4,18.3l-0.1,0.3c-2.3,7-4.9,13.8-7.9,20.5c-4,8.5-11.4,14.4-18.5,19.7
			c-5,3.7-10,7.6-14.9,11.3c-8.5,6.5-17.3,13.3-26.2,19.4c-5.1,3.4-10.5,6.4-16.1,9c-3.3,1.7-6.8,3.4-10.1,5.2
			c-6.3,3.5-12.6,7.2-18.7,10.8c-4.9,2.8-9.9,5.8-14.8,8.6c-4.7,2.7-9.6,5.3-14.4,7.8l-5.1,2.7c-7.5,4-14.8,3.4-22.5-1.9
			c-7.1-4.9-14.4-9.9-21.4-14.6l-5.1-3.4c-13.2-8.9-21.8-21-25.7-35.9c-7.9-30.6-22.9-48-34.1-57.2c-11.8-9.7-21.7-12.5-22.7-12.8
			c-38.5-15.3-60.6,8.3-60.8,8.6c-3.9,4.6-6.3,8.1-8.8,11.8c-1.9,2.8-3.9,5.7-6.7,9.3c-10,13-22.4,21.2-37,24.5
			c-19.3,4.4-34,14.5-45.1,31c-9,13.3-18.6,27.5-28.5,40.9c-9.1,12.4-22,19.5-38.2,21.1c-12.6,1.3-24.3-2.5-34.7-11.2
			c-3.7-3.1-7.4-6.4-11-9.5c-4.3-3.8-8.6-7.7-13.1-11.4c-11-8.9-22.6-13.1-35.6-13l-8.5,0.2c-19,0.3-38.7,0.7-57.8-3.8
			c-13.6-3.3-23.1-7.5-28.3-18.6l-2.9-6.2c-6.6-14.3-13.5-29-19.5-43.8c-7.4-18.1-18-31.2-32.6-39.9s-29.1-10.4-43.2-4.9
			c-7.5,2.9-14.5,7-20.7,12.1c-6.8,5.8-14.3,10.6-22.5,14.2v2.2c8.6-3.7,16.7-8.7,23.8-14.9c6-5,12.8-9,20.2-11.8
			c13.5-5.3,27.5-3.7,41.5,4.8s24.6,21.2,31.8,38.9C123.2,879.8,130.1,894.6,136.8,908.9z"/>
		<path class="st1" d="M271.1,1030.6c3.8-10.8,2.2-22.1-4.8-34.3c-9.5-16.6-24.9-26.3-47.1-29.7c-9.3-1.3-18.7-1.9-28.2-1.8h-0.3
			c-0.2,0-0.4,0-0.5,0c-1.4,0.4-2.8,0.7-4.2,1c-3.3,0.7-6.6,1.5-9.4,3.3c-5.9,3.9-12.5,8.6-17.2,14.7c-8.1,10.7-15.5,21.9-22.1,33.5
			c-2.4,4.1-4.1,8.6-5,13.3h2c0.9-4.3,2.5-8.5,4.7-12.3c6.6-11.5,13.9-22.6,22-33.2c4.5-5.8,10.9-10.5,16.7-14.2
			c2.4-1.6,5.5-2.3,8.7-3c1.4-0.3,2.9-0.7,4.3-1.1c0.1,0,0.2,0,0.2,0c9.3-0.1,18.6,0.5,27.9,1.8c21.6,3.3,36.5,12.7,45.7,28.8
			c6.8,12,8.3,22.9,4.4,33.4L271.1,1030.6z"/>
		<path class="st1" d="M46.1,930c6.8-5.8,13.1-12.7,12.9-23.3c-0.1-5.1-2.3-9.1-6.2-11.2c-4.2-2.3-9.7-5-15.3-5.6
			c-7.2-0.8-14.5-0.9-21.6-1c-2.9,0-5.9-0.1-8.9-0.2c-0.1,0-0.2,0-0.3,0c-0.2,0-0.3,0-0.5,0c-2,0.5-4.1,1-6.2,1.5H0v2.1l0.5-0.1
			c2.1-0.5,4.1-1,6.2-1.5h0.2c3,0.1,6,0.2,9,0.2c7.1,0.1,14.4,0.3,21.5,1c5.3,0.6,10.6,3.1,14.6,5.3c3.2,1.8,5.1,5.1,5.1,9.5
			c0.2,9.2-4.8,15.3-12.2,21.7s-16.2,10.8-27.2,13.7c-5.8,1.7-11.7,2.6-17.7,2.7v2c6.2-0.1,12.3-1.1,18.2-2.8
			C29.5,941,38.6,936.4,46.1,930L46.1,930z"/>
		<path class="st1" d="M208.7,846.8c-4-1-8-1.8-12.1-2.3c-1.8-0.3-3.6-0.5-5.4-0.8c-0.1,0-0.3,0-0.4,0c-0.2-0.1-0.4-0.1-0.6,0
			c-1.4,0.6-2.9,1.1-4.3,1.6c-3.3,1-6.4,2.4-9.3,4.1c-15.1,9.8-15.6,30.1-7.4,43.3c4.9,7.9,11.1,13.1,19,15.9
			c4.2,1.5,8.6,2.3,13.1,2.3c7.1,0,14.4-2,22.1-6c4.8-2.5,9.2-5.5,13.2-9.2c11.2-10.4,11.9-21.2,2.1-32.3
			C230,853.7,218.1,849.5,208.7,846.8L208.7,846.8z M235.2,894.4c-3.8,3.5-8.1,6.5-12.8,8.8c-12,6.2-23,7.4-33.7,3.5
			c-7.5-2.7-13.4-7.6-18-15.1c-7.7-12.4-7.3-31.4,6.8-40.5c2.8-1.6,5.8-3,8.9-3.9c1.4-0.5,2.9-1,4.3-1.6h0.1
			c1.8,0.3,3.7,0.6,5.5,0.8c4,0.5,8,1.2,11.9,2.2c9.1,2.6,20.7,6.7,29,16.1C246.4,875.3,245.8,884.6,235.2,894.4z"/>
		<path class="st1" d="M442,742.7c-0.1,0-0.2,0-0.3,0c-0.2,0-0.3,0-0.5,0c-15.5,4.1-19.5,17-22.1,28.8c-1.5,6.8-2.1,13.8-2,20.7
			c0,6.7,1,13.3,3,19.7c2.9,8.6,7.7,11.6,11.2,12.6c1.3,0.4,2.6,0.5,3.9,0.5c4.9-0.2,9.6-2.1,13.2-5.3c11.2-9.2,17.1-21.5,17.6-36.6
			c0.5-11-2.6-21.9-8.7-31.1C453.2,745.8,448.3,742.8,442,742.7L442,742.7z M464.1,783.2c-0.5,14.5-6.1,26.3-16.8,35.1
			c-5,4.1-10.7,5.7-15.3,4.4c-4.4-1.3-7.8-5.2-9.9-11.3c-1.9-6.2-2.9-12.7-2.9-19.2c-0.1-6.8,0.5-13.6,1.9-20.2
			c3-13.9,7.7-23.8,20.6-27.3c0.1,0,0.2,0,0.2,0c5.7,0.1,9.9,2.7,13.7,8.5C461.6,762,464.5,772.5,464.1,783.2L464.1,783.2z"/>
		<path class="st1" d="M6,790.3c7.5-3.1,16-4.3,24.2-5.5c6.3-0.9,12.8-1.6,19.1-2.3c7.7-0.8,15.6-1.7,23.4-3
			c7-1.2,16.7-3.9,20.3-14.5c2.5-7.5,1.2-15.4-3.7-22.8c-5.6-8.3-14.6-12.7-27.6-13.5c-13.5-0.8-26.3,2.6-39.3,6.6
			c-7.2,2.2-14.8,3-22.2,2.2v2c7.7,0.7,15.4-0.1,22.8-2.3c12.9-3.9,25.5-7.3,38.6-6.5c12.5,0.8,20.8,4.8,26.1,12.7
			c3.2,4.8,6.4,12.3,3.5,21c-2.5,7.4-8.3,11.4-18.7,13.2c-7.7,1.3-15.6,2.1-23.3,3c-6.3,0.7-12.8,1.4-19.2,2.3
			c-8.3,1.2-16.9,2.5-24.7,5.7l-2.7,1.1l-2.5,1v2.2l3.3-1.3L6,790.3z"/>
		<path class="st1" d="M143.3,702.6c1.1-2.3,1.1-4.4-0.1-5.9s-3.3-2.2-5.8-1.8c-4.1,0.7-10.2,1.8-15.3,4.6
			c-10.1,5.4-20.7,6.8-33.6,7.2c-6.2,0.2-12.6,0.1-18.7,0.1c-5.8,0-11.8-0.1-17.8,0c-7.4,0.2-15,0.5-22.3,0.8
			C20,708,9.9,708.4,0,708.5v2c10-0.1,20-0.5,29.8-0.9c7.3-0.3,14.8-0.6,22.2-0.8c5.9-0.1,11.9-0.1,17.7,0c6.2,0,12.5,0.1,18.8-0.1
			c13.2-0.4,24.1-1.8,34.5-7.4c4.8-2.6,10.7-3.8,14.6-4.4c1.8-0.3,3.2,0.1,3.9,1s0.6,2.3-0.1,3.9c-2.2,4.4-4.8,8.5-7.8,12.3
			c-8.8,11.3-13,24-12.6,37.7c0.2,5.6,0.6,11.4,1,16.9c0.4,5.3,0.7,10.7,0.9,16.1c0.2,7.2-5.5,13.8-13.1,15
			c-7.3,1.2-14.5,0.1-21.6-0.9c-1.6-0.2-3.1-0.5-4.6-0.7c-10.1-1.3-22-2.5-33.8-0.5c-14.6,2.5-29.1,8.3-44.4,17.8
			c-1.8,1.1-3.6,2.2-5.5,3.1v2.2c2.2-1.1,4.4-2.3,6.6-3.7c15.1-9.3,29.3-15,43.6-17.4c11.5-1.9,23.2-0.8,33.2,0.5
			c1.5,0.2,3.1,0.4,4.6,0.7c7.2,1.1,14.6,2.2,22.2,0.9c8.6-1.4,15-8.9,14.8-17.1c-0.2-5.4-0.6-10.9-0.9-16.2
			c-0.4-5.5-0.8-11.2-0.9-16.8c-0.4-13.2,3.7-25.5,12.2-36.4C138.3,711.3,141,707.1,143.3,702.6L143.3,702.6z"/>
		<path class="st1" d="M459.8,1021.7L459.8,1021.7c5.2,0.9,8.5,4,9.7,8.9h2c-1.3-6-5.2-9.8-11.4-10.9c-0.1,0-0.3,0-0.4,0
			c-0.2-0.1-0.4-0.1-0.6,0c-7,3-8.3,4.4-8.2,10.8h2C452.8,1025,453.6,1024.3,459.8,1021.7L459.8,1021.7z"/>
		<path class="st1" d="M40.8,1017.3c-8.7-7.5-18.5-7.8-27.8-7.6c-0.1,0-0.1,0-0.2,0c-0.2,0-0.3,0-0.5,0C8,1010.6,3.9,1012,0,1014
			v2.3c4-2.1,8.3-3.7,12.7-4.6h0.1c0.1,0,0.2,0,0.3,0c8.9-0.2,18.3,0.1,26.4,7.1c3.6,3.1,6.2,7.2,7.4,11.8h2.1
			C47.7,1025.4,44.8,1020.7,40.8,1017.3L40.8,1017.3z"/>
		<path class="st1" d="M43.9,995.7c-9.8-4.2-20.1-4.1-30-4H8.8c-0.2,0-0.3,0-0.5,0c-1.8,0.5-3.7,0.9-5.5,1.3L0,993.7v2l3.2-0.7
			c1.8-0.4,3.7-0.8,5.6-1.3c0.1,0,0.2,0,0.2,0h4.9c9.7-0.1,19.8-0.1,29.2,3.9c11.6,4.9,18.7,11.3,22.3,20.1c1.7,4.2,2.7,8.5,3,13h2
			c-0.4-4.7-1.4-9.3-3.2-13.7C63.5,1007.6,56.1,1000.9,43.9,995.7L43.9,995.7z"/>
		<path class="st1" d="M174.1,1026.5c-2.2-16.1,9-33,24.6-36.9h0.2c1.7,0.1,3.5,0.1,5.3,0.2c3.7-0.1,7.4,0.3,11.1,0.9
			c16,3.6,22.5,12.4,20.5,27.7c-0.5,4.1-1.5,8.2-2.8,12.1h2.1c1.3-3.8,2.2-7.8,2.7-11.8c2.1-16.3-5.1-26.1-22.1-29.9
			c-3.8-0.7-7.6-1.1-11.5-1c-1.7,0-3.5-0.1-5.2-0.2c-0.1,0-0.2,0-0.3,0c-0.2,0-0.3,0-0.5,0c-16.5,4.1-28.5,22-26.1,39.1
			c0.2,1.3,0.4,2.6,0.7,3.8h2C174.6,1029.3,174.3,1027.9,174.1,1026.5z"/>
		<path class="st1" d="M86.7,1006.6c-1.7-11.5-11.2-17.4-19.3-21.2c-13.2-6.3-27.8-9.4-44.4-9.7c-0.1,0-0.2,0-0.3,0
			c-0.1,0-0.3,0-0.4,0l-1.9,0.4c-1.3,0.3-2.7,0.5-4,0.6c-5.9,0.3-11.3,0.8-16.4,1.4v2c5.2-0.6,10.6-1.1,16.5-1.4
			c1.4-0.1,2.8-0.3,4.2-0.6c0.6-0.1,1.3-0.3,1.9-0.4h0.1c0.1,0,0.2,0,0.2,0c16.3,0.2,30.6,3.3,43.6,9.5c7.7,3.6,16.7,9.2,18.2,19.7
			c1.1,7.9,1.6,15.8,1.4,23.7h2C88.3,1022.6,87.9,1014.5,86.7,1006.6L86.7,1006.6z"/>
		<path class="st1" d="M414.2,1016.7c-0.3-13.7,5.4-25.4,16.9-34.7c10.3-8.3,20.9-13.3,32.6-15.3h0.2l7.5,1
			c9.2,1.2,16.5,5.7,22.4,13.6c5.5,7.4,6.3,16.3,7.1,24.9l0.1,0.7c0.4,4.8,0.6,9.6,0.7,14.3c0.1,3.1,0.2,6.3,0.4,9.5h2
			c-0.2-3.2-0.3-6.4-0.4-9.5c-0.1-4.8-0.3-9.7-0.7-14.5l-0.1-0.7c-0.8-8.9-1.6-18-7.5-25.9c-6.2-8.3-13.9-13-23.7-14.3l-7.5-1
			c-0.1,0-0.3,0-0.4,0c-0.1,0-0.3,0-0.4,0c-12,2.1-22.9,7.2-33.5,15.7c-12.1,9.7-18,21.9-17.7,36.3c0.1,4.7,1,9.4,2.5,13.9h2.1
			C415.2,1026.1,414.3,1021.4,414.2,1016.7z"/>
		<path class="st1" d="M809.6,765.2c4.5,8,11.8,12,21.8,11.7c7.1-0.2,14.3,0.1,21.3,1c7.4,1,14.6,4.8,21.4,11.2
			c12.2,11.7,23.2,22.8,33.5,33.9c11.3,12.3,23,24.9,41.2,28.2c4.6,0.8,9.2,1.4,13.8,1.9l5.3,0.6l1.5,0.2c2.5,0.3,5,0.7,7.6,0.8
			c14.9,0.9,28.5-1.3,41-6.7v-2.2c-12.5,5.4-26,7.7-40.9,6.8c-2.5-0.1-5-0.5-7.5-0.8l-1.5-0.2c-1.8-0.2-3.5-0.4-5.3-0.7
			c-4.5-0.5-9.1-1.1-13.6-1.9c-17.4-3.1-28.9-15.6-40-27.6c-10.3-11.2-21.3-22.3-33.6-34c-7.1-6.8-14.6-10.7-22.5-11.7
			c-7.2-0.9-14.4-1.2-21.6-1c-9.3,0.3-15.9-3.2-20-10.6c-5.6-10.1-11.4-20.5-16.4-31.4c-6.7-14.8-3.3-26.3,10.6-35.1
			c5.4-3.4,11.1-6.4,16.9-9c11.8-5.6,24.6-8,36.7-9.9c4.2-0.6,8.6-1,12.8-1.3c5.4-0.3,10.8-1,16.1-1.9c19.3-3.8,38.2-8.1,59-12.9
			c14-3.2,24.4-1.6,33.7,5.3c10.3,7.7,22.5,11.6,37,11.8v-2c-14-0.3-25.8-4-35.8-11.5c-9.7-7.2-21-9-35.4-5.7
			c-20.9,4.8-39.7,9.2-59,12.9c-5.3,0.9-10.6,1.6-16,1.9c-4.2,0.3-8.6,0.7-12.9,1.3c-12.2,1.9-25.2,4.4-37.3,10
			c-5.9,2.7-11.6,5.7-17.1,9.1c-14.6,9.3-18.4,22-11.3,37.6C798.1,744.6,803.9,755,809.6,765.2L809.6,765.2z"/>
		<path class="st1" d="M710.2,211.2c8.2,1.1,15.6,5.7,20.2,12.6c7.7,11.6,15.5,25.6,14.5,42.3c-0.1,1.6-0.2,3.2-0.3,4.8
			c-0.2,3.7-0.4,7.4-0.8,11.1c-1.4,14.8,5.2,25.7,20.5,34.5c2.4,1.4,4.9,2.7,7.3,4.1c7.8,4.3,15.8,8.7,22.9,14
			c5.9,4.4,11.2,9.9,16.3,15.3c1.9,2,3.8,4,5.7,5.9c6.5,6.5,14.5,11.4,24.4,14.8c2.7,0.9,5.4,2.1,8,3.1c2.3,1,4.6,1.9,7,2.8
			c13,4.7,20.9,14.9,28.4,25.7c5.2,7.5,10.1,15.3,14.4,23.4c6.2,11.5,4.7,21.1-4.7,30.3c-1.4,1.3-2.8,2.7-4.1,4
			c-6,5.8-12.2,11.8-17.8,18.1c-15.8,17.8-9.7,40.3,2.5,53.7c6.3,6.8,15.5,7.1,23.7,0.6c4.4-3.7,8.6-7.6,12.6-11.8
			c1.2-1.2,2.4-2.5,3.6-3.7c1.9-1.9,3.8-4,5.6-5.9c3.2-3.7,6.7-7.2,10.5-10.4c8-6.5,16.7-6.9,25.7-1.4c5.3,3.4,10.4,7,15.2,10.9
			c2.4,1.8,4.8,3.7,7.2,5.4c8.9,6.5,18.4,13.3,29,21c3.9,2.8,7.3,6.3,10,10.2v-3.4c-2.5-3.2-5.5-6.1-8.8-8.5
			c-10.6-7.7-20.1-14.5-29-21c-2.4-1.8-4.8-3.6-7.2-5.4c-5-3.9-10.1-7.6-15.5-11c-9.8-6-19.2-5.5-28,1.6c-3.8,3.2-7.4,6.8-10.7,10.6
			c-1.8,2-3.6,4-5.5,5.8c-1.2,1.2-2.4,2.4-3.6,3.7c-3.9,4.1-8,8-12.4,11.7c-7.3,5.8-15.5,5.7-21-0.3c-11.7-12.8-17.4-34.2-2.5-51
			c5.6-6.3,11.8-12.2,17.8-18c1.4-1.3,2.8-2.7,4.1-4c10-9.8,11.7-20.4,5.1-32.7c-4.4-8.1-9.3-16-14.6-23.6
			c-7.5-10.7-15.9-21.5-29.4-26.5c-2.3-0.8-4.6-1.8-6.9-2.7c-2.7-1.1-5.4-2.3-8.2-3.2c-9.6-3.3-17.3-8-23.6-14.3
			c-1.9-1.9-3.8-3.9-5.7-5.9c-5.2-5.4-10.5-11-16.6-15.5c-7.3-5.4-15.3-9.9-23.1-14.2c-2.4-1.3-4.9-2.7-7.3-4.1
			c-14.6-8.3-20.8-18.7-19.5-32.6c0.3-3.7,0.5-7.5,0.8-11.2c0.1-1.6,0.2-3.2,0.3-4.8c1.1-17.3-6.9-31.7-14.8-43.5
			c-4.9-7.4-12.8-12.3-21.6-13.4c-3.7-0.5-7.5-0.8-11.1-1c-3.9-0.3-7.9-0.6-11.8-1.2c-5.7-0.9-11.4-2.4-16.8-4.4
			c-8.9-3.4-13.7-10.6-13.7-20.4c0.1-6.5,2.4-13.5,7.2-21.5c2.5-4.2,5.2-8.4,7.7-12.5c3.1-4.9,6.2-10,9.2-15
			c11.4-19.5,27.7-34.8,49.7-46.6c1.4-0.7,2.9-1.1,4.5-1.4h0.3c2.7-0.6,4.8-0.3,6.1,0.7s2,2.8,2.1,5.4c0.3,6.7,0.2,13.4,0,18.4
			c-0.1,4.4,1.2,7,3.9,7.7c2.2,0.6,5.4-1.6,6.8-3.1c6.1-6.3,14.3-9.6,24.4-9.9c11.7-0.3,23.7,0.7,35.3,1.7l2.1,0.2
			c7.5,0.6,15.1,1.6,22.5,2.5c3.8,0.5,7.6,1,11.5,1.4c12.1,1.4,20.3,6.8,25.2,16.5c3.9,7.8,6.4,16.4,7.7,27.1
			c1.7,14.4-1.2,26.2-9,36.3c-7.3,9.4-16.7,17-25.7,24.4c-2.9,2.4-5.9,4.8-8.8,7.3c-5,4-10.2,7.7-15.7,11c-2.8,1.8-5.8,3.7-8.6,5.6
			c-7.3,5.1-10.3,11.4-8.8,18.5c1.8,8,5.2,13.6,10.5,17.1s11.6,4.5,17.7,5.2c7.9,0.9,16.8,1.9,24.6,6.4c3.6,2.1,7.2,4.3,10.7,6.5
			c2.4,1.5,4.9,3,7.3,4.5c8,4.8,15.8,7,23.1,6.4c3.9-0.3,7.8-0.8,11.7-1.2c7-1.1,14.2-1.7,21.3-1.8c11.2,0.2,20.7,2.5,29,7.1
			c5.1,2.8,10,6,14.9,9.2s9.7,6.3,14.8,9.1c9.6,5.2,18.4,11.9,25.9,19.9v-2.9c-7.3-7.4-15.7-13.7-24.9-18.7c-5-2.8-9.9-6-14.7-9
			s-9.8-6.4-15-9.2c-8.6-4.8-18.3-7.1-29.9-7.3c-7.2,0.1-14.4,0.6-21.5,1.6c-3.8,0.5-7.7,0.9-11.6,1.2c-6.9,0.5-14.3-1.5-21.9-6.1
			c-2.5-1.5-4.9-3-7.3-4.5c-3.5-2.1-7.1-4.4-10.7-6.5c-8.1-4.8-17.3-5.8-25.4-6.7c-20.8-2.3-24.4-11.1-26.5-20.7
			c-1.4-6.3,1.3-11.8,8-16.4c2.8-1.9,5.7-3.8,8.5-5.6c5.6-3.3,10.9-7.1,15.9-11.2c2.9-2.5,5.9-4.9,8.8-7.3
			c9.1-7.4,18.5-15.1,26-24.7c8.2-10.5,11.3-22.8,9.4-37.8c-1.3-10.9-3.8-19.7-7.9-27.8c-5.1-10.2-14.1-16.1-26.7-17.6
			c-3.8-0.4-7.6-0.9-11.5-1.4c-7.4-0.9-15-1.9-22.6-2.5l-2.1-0.2c-11.6-1-23.7-2-35.5-1.7c-10.6,0.3-19.3,3.8-25.8,10.5
			c-1.5,1.6-3.9,2.8-4.9,2.5c-0.6-0.2-2.6-0.7-2.4-5.7s0.3-11.8,0-18.6c-0.1-3.2-1.1-5.5-2.9-6.9s-4.4-1.8-7.8-1.1l-0.3,0.1
			c-1.7,0.3-3.4,0.8-5,1.6c-22.3,12-38.8,27.5-50.5,47.3c-3,5.1-6.1,10.1-9.2,15c-2.6,4.1-5.2,8.3-7.7,12.6
			c-4.9,8.3-7.4,15.6-7.4,22.5c-0.1,10.6,5.3,18.7,14.9,22.3c5.5,2.1,11.3,3.7,17.1,4.6c4,0.6,8.1,0.9,12,1.2
			C702.8,210.4,706.6,210.6,710.2,211.2L710.2,211.2z"/>
		<path class="st1" d="M697.1,1010c5.9-26,21.8-45,47.1-56.5c9.4-4.3,20-7.7,33.4-10.8c0.1,0,0.2,0,0.3,0h6c4,0.2,6.7,2.3,6.9,5.6
			c0.2,4.3,0,8.6-0.4,12.8c-0.6,6.4-1.4,14-2.5,21.4c-0.3,1.8-0.5,3.7-0.8,5.5c-1,7.9-2.4,15.7-4.3,23.4c-2.2,9-9.2,16-18.1,18.2
			c-1.3,0.3-2.6,0.7-3.9,1h7.4c8.3-3.1,14.5-10.1,16.6-18.7c1.9-7.8,3.3-15.7,4.3-23.6c0.3-1.8,0.5-3.7,0.8-5.5
			c1.1-7.5,1.9-15.1,2.5-21.5c0.5-4.4,0.6-8.8,0.4-13.2c-0.3-4.3-3.8-7.2-8.9-7.4c-1.4,0-2.8,0-4.2,0h-1.9c-0.1,0-0.2,0-0.3,0
			c-0.2,0-0.3,0-0.5,0c-13.5,3.2-24.2,6.6-33.7,11c-25.9,11.8-42.2,31.3-48.2,57.9c-1.3,5.6-1.8,13.6,2.5,21.1h2.4
			C695.4,1023.4,695.9,1015.5,697.1,1010z"/>
		<path class="st1" d="M984.6,910.4c-4.9,12.7-0.9,23.6,11.3,30.7c6.6,3.9,14.1,5.9,21.7,5.8h0.3v-2c-7.4,0.1-14.6-1.8-21-5.5
			c-11.4-6.6-15-16.4-10.4-28.3c2.7-7.1,8.7-12.2,18.3-15.4c4.3-1.4,8.7-2.5,13.1-3.5v-2c-4.5,1-9.2,2.1-13.7,3.6
			C994.1,897.2,987.5,902.8,984.6,910.4L984.6,910.4z"/>
		<path class="st1" d="M669.4,908.1c4.3-0.1,8.6-0.8,12.7-2.1c17.3-5.2,34.8-10.7,52-16.5c12.6-4.2,20-11.6,22.7-22.6
			c2.8-9.8-2.9-19.9-12.6-22.7c-0.5-0.2-1.1-0.3-1.7-0.4c-5.3-1.1-10.6-1.9-16-2.4c-2-0.2-4-0.5-6.1-0.7c-6.3-0.8-11.6-1.5-17-2
			c-3.4-0.3-6.8-0.5-10.1-0.7l-4.4-0.3c-0.1,0-0.2,0-0.3,0c-0.1,0-0.3,0-0.4,0c-11.1,2-21.8,5.8-31.8,11.1
			c-10.3,5.4-15.8,13.1-16.4,22.9c-0.9,14.8,4,25.6,14.4,32.3C658.9,906.7,664.1,908.2,669.4,908.1L669.4,908.1z M642,871.8
			c0.6-9.2,5.6-16.1,15.3-21.2c9.8-5.2,20.3-8.9,31.2-10.9h0.3l4.4,0.3c3.3,0.2,6.7,0.4,10,0.7c5.4,0.5,10.7,1.2,17,2
			c2,0.3,4.1,0.5,6.1,0.7c5.3,0.5,10.6,1.3,15.8,2.4c4.5,0.9,8.5,3.6,11,7.5c2.4,4,3,8.8,1.8,13.2c-2.5,10.3-9.5,17.2-21.4,21.2
			c-17.2,5.8-34.7,11.3-52,16.5c-10.5,3.2-19.1,2.5-26.1-1.9C645.7,896,641.1,885.8,642,871.8z"/>
		<path class="st1" d="M942.1,730.7c-0.2,0-0.3,0-0.5,0c-0.2-0.1-0.4-0.1-0.6,0c-9.5,3-11.9,7.7-9,17.2c3.5,11.6,9.5,20.4,17.8,26
			c5.2,3.3,11.6,4.1,17.4,1.9c4.5-1.6,8-5.3,9.1-9.9c1.9-7.3-1.9-12.6-6.3-17.8C962.9,739.4,953.1,733.3,942.1,730.7z M974.4,765.5
			c-1,4-4,7.2-7.9,8.5c-5.1,1.9-10.9,1.3-15.5-1.7c-8-5.4-13.6-13.6-17-24.9c-2.6-8.4-0.7-12,7.7-14.7c10.6,2.5,20,8.4,26.9,16.8
			C972.5,754.2,976,759,974.4,765.5z"/>
		<path class="st1" d="M970.9,719.5c-6.9-3.3-14.1-6.8-21.1-10.2c-6.3-3.1-13.3-4.8-22.9-5.6c-0.1,0-0.2,0-0.3,0c-0.2,0-0.3,0-0.5,0
			c-0.8,0.2-1.7,0.4-2.5,0.6c-1.9,0.4-3.7,0.9-5.6,1.5c-10.5,3.7-14.9,10.6-14.3,22.5c0.6,12.5,5.3,23.6,9.3,31.8
			c4.5,9.3,9.9,20,16.6,29.6c8,11.5,19.5,17.2,34.8,17.2c3.3,0,6.7-0.3,10-0.7c15.2-2.1,29.5-7.7,43.3-13.3v-2.2
			c-13.9,5.7-28.3,11.4-43.6,13.5c-19.6,2.7-33.7-2.4-42.9-15.7c-6.6-9.5-12-20.1-16.5-29.3c-3.9-8.1-8.5-18.9-9.2-31
			c-0.5-11,3.3-17.1,13-20.5c1.8-0.6,3.5-1,5.3-1.4c0.8-0.2,1.7-0.4,2.6-0.6h0.2c9.3,0.7,16.1,2.4,22.2,5.4
			c7,3.5,14.2,6.9,21.1,10.2s14.3,6.8,21.3,10.3c8.2,4.2,17.2,6.9,26.4,7.9v-2c-8.9-1-17.5-3.6-25.5-7.7
			C985.2,726.3,977.9,722.9,970.9,719.5L970.9,719.5z"/>
		<path class="st1" d="M969.2,697.9c-8.9-4.2-18.2-7.7-27.7-10.4c-4.6-1.3-9.5-1.4-14.3-1.5c-2.1-0.1-4.3-0.1-6.3-0.3
			c-0.1,0-0.2,0-0.3,0c-0.1,0-0.3,0-0.4,0c-1.3,0.3-2.7,0.5-4,0.7c-3,0.4-6.1,1.1-9,1.9l-3.3,1c-6.8,2.1-13.8,4.3-20.3,7.6
			c-10.1,5-21,8.4-32.3,9.8c-4.6,0.7-9.8,1.9-13.6,6.2c-2.4,2.8-3.4,5.8-2.7,8.4c0.5,1.8,1.9,4.2,6.2,5.6c5.3,1.8,9.3,2.2,12.5,1.4
			c11.6-3,20.7,1.3,27.8,12.9c4.7,7.7,8.8,16,12.8,24.1l2.3,4.7c7.1,14.4,16.2,30.9,30.2,44.3c9.2,8.8,20.2,13.5,33.7,14.2
			c1.5,0.1,3,0.2,4.5,0.3c5.1,0.3,10.3,0.7,15.5,0.7h0.5c12.8,0,25.5-3,36.9-8.8v-2.2c-11.4,6-24,9.1-36.9,9.1h-0.5
			c-5.1,0-10.4-0.4-15.4-0.7l-4.5-0.3c-13-0.8-23.6-5.2-32.4-13.7c-13.8-13.2-22.8-29.5-29.8-43.7c-0.8-1.6-1.5-3.2-2.3-4.7
			c-4-8.1-8-16.5-12.8-24.3c-6.1-9.9-13.5-14.7-22.6-14.7c-2.5,0-5,0.4-7.5,1c-2.7,0.7-6.4,0.2-11.3-1.4c-2.7-0.9-4.4-2.4-4.9-4.2
			s0.3-4.3,2.3-6.5c3.4-3.9,8.2-5,12.4-5.6c11.4-1.5,22.6-4.9,32.9-10c6.3-3.2,13.2-5.4,20-7.5l3.3-1c2.9-0.8,5.8-1.5,8.8-1.9
			c1.4-0.2,2.7-0.4,4.1-0.7h0.2c2.1,0.2,4.3,0.2,6.4,0.3c4.7,0.1,9.5,0.3,13.8,1.4c9.4,2.7,18.5,6.2,27.4,10.3
			c16.3,7.3,31.4,10.9,46.2,10.8h3.2v-2h-2.9C1000.2,708.6,985.3,705.1,969.2,697.9L969.2,697.9z"/>
		<path class="st1" d="M998.8,1030.6h2.5c4.4-5.8,10-10.7,16.5-14.3v-2.3C1010.3,1018.1,1003.8,1023.7,998.8,1030.6z"/>
		<path class="st1" d="M1009.3,998.2c2.8-1,5.7-1.8,8.5-2.5v-2c-3.1,0.7-6.2,1.6-9.3,2.7c-17.2,6.3-31.7,18.4-40.9,34.3h2.3
			C978.9,1015.7,992.8,1004.2,1009.3,998.2L1009.3,998.2z"/>
		<path class="st1" d="M761.8,993.2c0.2-3.3-0.1-6.6-1.1-9.8c-2.2-6.2-8-6-12.6-5.7h-0.3c-0.1,0-0.1,0-0.2,0c-0.2-0.1-0.4-0.1-0.7,0
			c-7.8,3.4-11.5,8.5-11.5,15.4c0.1,7,5.7,12.6,12.7,12.5c0.1,0,0.2,0,0.2,0C755.3,1005.7,761.5,999.9,761.8,993.2z M737.4,993.2
			c0-6.1,3.2-10.4,10.2-13.5c0.1,0,0.2,0,0.3,0h0.3c4.6-0.2,8.9-0.4,10.6,4.4c0.9,2.9,1.2,6,1,9.1c-0.2,5.5-5.7,10.5-11.4,10.5
			c-5.9,0.2-10.8-4.4-10.9-10.3C737.4,993.4,737.4,993.3,737.4,993.2L737.4,993.2z"/>
		<path class="st1" d="M982.3,989.2c10.5-4.5,21.8-7.4,35.5-9.1v-2c-14,1.7-25.6,4.7-36.3,9.3s-19.5,12.4-25.8,18.7
			c-8.8,8.9-18.3,17.1-28.4,24.5h3.4c9.4-7.1,18.2-14.8,26.5-23.1C963.3,1001.3,971.7,993.7,982.3,989.2z"/>
		<path class="st1" d="M542.5,934c1,0.1,2,0.2,3,0.2c8.7,0,14.5-5.7,15.8-11.7c0.7-3.4-0.6-7.4-3.4-10.7c-3.2-3.8-8-5.9-13-5.7
			c-9.3,0.4-10.8,5.3-12.1,9.2c-0.2,0.5-0.3,0.9-0.5,1.4c-1.3,3.9-0.9,8.1,1.1,11.7C535.4,931.5,538.8,933.6,542.5,934L542.5,934z
			 M534.3,917.3c0.2-0.5,0.3-1,0.5-1.4c1.2-3.8,2.4-7.5,10.3-7.8h0.6c4.2,0,8.1,1.9,10.8,5.1c2.4,2.8,3.5,6.2,2.9,9
			c-1.2,5.8-7.3,11.2-16.5,9.9c-3.1-0.3-5.9-2.1-7.6-4.7C533.5,924.3,533.1,920.7,534.3,917.3L534.3,917.3z"/>
		<path class="st1" d="M618.1,1030.6h2.8c0.8-0.7,1.6-1.3,2.5-1.8c1.2-0.6,2.6-0.9,3.9-0.9c2.2,0.1,4.3,0.6,6.2,1.7
			c0.6,0.3,1.3,0.7,1.9,1h3.7c-1.5-1.1-3-2-4.7-2.8c-4.4-2.2-8.4-2.5-11.9-0.8C620.8,1027.9,619.3,1029.1,618.1,1030.6L618.1,1030.6
			z"/>
		<path class="st1" d="M44.4,657.8c5.5,0,10.8-0.2,15.3-0.4c25.8-1.3,54.9-5.6,63.7-9.5c6.8-3,11-7.7,12.3-13.9
			c2.1-10-3.7-23.7-15.4-36.6c-15.8-17.3-73.2,8.2-75.7,9.3c-1.2,0.7-29.5,16.7-33.3,19.6c-5.6,4.4-9.3,8.4-11.2,12v9.9
			C5.6,656,26.3,657.8,44.4,657.8L44.4,657.8z M12.5,627.8c3.6-2.8,32.7-19.2,32.9-19.4c0.4-0.2,34-15.1,56.6-15.1
			c7.1,0,13.2,1.5,16.7,5.4c11.3,12.5,16.9,25.5,15,34.9c-1.2,5.5-4.9,9.7-11.1,12.5c-17.5,7.7-111.2,17.1-121.3,0.5
			C-1.3,642.1,2.4,635.8,12.5,627.8L12.5,627.8z"/>
		<path class="st1" d="M351.2,655.5c2.6,0,5.3-0.1,8.2-0.2c3.2-0.1,6.5-0.2,10-0.2c18.9,0,19.6-9.5,20.6-24
			c0.2-3.1,0.5-6.7,0.9-10.4c0.6-4.5-0.6-8-3.4-10.4c-8.6-7.4-29.9-1.5-30.8-1.2h-0.1c-4.7,2.2-9,4.9-13.1,8.1
			c-8.7,6.9-13.4,14.6-13.6,22.3c-0.1,5.2,1,8.9,3.6,11.4C337.3,654.7,343.4,655.5,351.2,655.5L351.2,655.5z M357.4,611
			c1.4-0.4,21.4-5.7,28.9,0.8c2.3,2,3.1,4.8,2.7,8.6s-0.7,7.3-0.9,10.5c-1,14.3-1.6,22.1-18.6,22.1c-3.5,0-6.9,0.1-10.1,0.2
			c-11.2,0.3-20.1,0.6-24.4-3.7c-2.1-2.1-3.1-5.4-3-10C332.4,622.9,356,611.7,357.4,611z"/>
		<path class="st1" d="M814.2,654c22.8,0,49.2-12.3,70.8-22.4l0.2-0.1c7.2-3.3,11.3-7.7,12.6-13.2c3.2-13-10.3-30.4-24.7-48.8
			c-7.7-10-15.7-20.3-21.5-30.3c-6-10.5-13.3-16.2-21.7-17.1c-16.2-1.8-32.8,14-46.8,29.6c-33.5,37.1-29.7,46.1-6.5,82.4
			C785.9,648.7,799.2,654,814.2,654z M784.4,553c8.3-9.2,27.8-30.8,45.2-28.9c7.8,0.8,14.6,6.3,20.2,16.1
			c5.8,10.2,13.9,20.6,21.7,30.6c14,18,27.2,35,24.3,47.1c-1.2,4.9-5,8.8-11.5,11.8l-0.2,0.1c-35.1,16.3-83.1,38.7-105.9,3.1
			C755.1,597,751.8,589.1,784.4,553z"/>
		<path class="st1" d="M755.4,451.8c20.3,8.6,44.6,14,64.9,14.3h1.3c14.1,0,23.4-3.4,28.3-10.3c8.5-11.9,2.5-31.7-4.3-51
			c-9.5-26.6-45.9-30.3-61.2-30.7h-0.7c-19.4-0.7-37.8,6.7-50.4,20.2c-8.5,9.2-13.3,20.3-12.3,29C722,432.4,734.5,442.9,755.4,451.8
			L755.4,451.8z M734.8,395.6c11.7-12.6,28.5-19.6,46.4-19.6h3.2c14.8,0.4,50.3,4,59.3,29.4c6.7,18.8,12.5,38.1,4.6,49.1
			c-4.7,6.6-13.9,9.7-28,9.5c-20.1-0.3-44.1-5.6-64.2-14.1c-19.9-8.4-32.3-18.5-33.2-26.9C722.1,414.8,726.6,404.3,734.8,395.6
			L734.8,395.6z"/>
		<path class="st1" d="M810.8,602.5c4.9,3.9,13,5.5,21.6,5.5c13.1,0,27.2-3.7,32.2-8.7c10.1-9.9,0.5-19.8-8.8-29.4
			c-1.9-2-3.9-4.1-5.8-6.1c-3.4-4.1-8.6-6.3-13.9-5.8c-8.5,0.7-17.8,7.5-24.3,17.8C802.2,590.7,806,598.6,810.8,602.5L810.8,602.5z
			 M813.5,576.8c6.2-9.8,15-16.3,22.8-16.9c4.7-0.4,9.3,1.5,12.3,5.2c1.9,2.1,3.9,4.2,5.8,6.2c9.4,9.7,17.5,18.1,8.9,26.6
			c-7,6.9-39.2,12.8-51.2,3C806,596,806.5,587.8,813.5,576.8z"/>
	</g>
</g>
</svg>
