<svg class="lds-spinner" width="120px"  height="120px"  xmlns="http://www.w3.org/2000/svg" xmlns:xlink="http://www.w3.org/1999/xlink" viewBox="0 0 100 100" preserveAspectRatio="xMidYMid" style="background: none;"><g transform="rotate(0 50 50)">
  <rect x="48" y="20" rx="6.72" ry="2.8000000000000003" width="4" height="12" fill="#878787">
    <animate attributeName="opacity" values="1;0" keyTimes="0;1" dur="1.2s" begin="-1.0909090909090908s" repeatCount="indefinite"></animate>
  </rect>
</g><g transform="rotate(32.72727272727273 50 50)">
  <rect x="48" y="20" rx="6.72" ry="2.8000000000000003" width="4" height="12" fill="#878787">
    <animate attributeName="opacity" values="1;0" keyTimes="0;1" dur="1.2s" begin="-0.9818181818181817s" repeatCount="indefinite"></animate>
  </rect>
</g><g transform="rotate(65.45454545454545 50 50)">
  <rect x="48" y="20" rx="6.72" ry="2.8000000000000003" width="4" height="12" fill="#878787">
    <animate attributeName="opacity" values="1;0" keyTimes="0;1" dur="1.2s" begin="-0.8727272727272727s" repeatCount="indefinite"></animate>
  </rect>
</g><g transform="rotate(98.18181818181819 50 50)">
  <rect x="48" y="20" rx="6.72" ry="2.8000000000000003" width="4" height="12" fill="#878787">
    <animate attributeName="opacity" values="1;0" keyTimes="0;1" dur="1.2s" begin="-0.7636363636363637s" repeatCount="indefinite"></animate>
  </rect>
</g><g transform="rotate(130.9090909090909 50 50)">
  <rect x="48" y="20" rx="6.72" ry="2.8000000000000003" width="4" height="12" fill="#878787">
    <animate attributeName="opacity" values="1;0" keyTimes="0;1" dur="1.2s" begin="-0.6545454545454544s" repeatCount="indefinite"></animate>
  </rect>
</g><g transform="rotate(163.63636363636363 50 50)">
  <rect x="48" y="20" rx="6.72" ry="2.8000000000000003" width="4" height="12" fill="#878787">
    <animate attributeName="opacity" values="1;0" keyTimes="0;1" dur="1.2s" begin="-0.5454545454545454s" repeatCount="indefinite"></animate>
  </rect>
</g><g transform="rotate(196.36363636363637 50 50)">
  <rect x="48" y="20" rx="6.72" ry="2.8000000000000003" width="4" height="12" fill="#878787">
    <animate attributeName="opacity" values="1;0" keyTimes="0;1" dur="1.2s" begin="-0.43636363636363634s" repeatCount="indefinite"></animate>
  </rect>
</g><g transform="rotate(229.0909090909091 50 50)">
  <rect x="48" y="20" rx="6.72" ry="2.8000000000000003" width="4" height="12" fill="#878787">
    <animate attributeName="opacity" values="1;0" keyTimes="0;1" dur="1.2s" begin="-0.3272727272727272s" repeatCount="indefinite"></animate>
  </rect>
</g><g transform="rotate(261.8181818181818 50 50)">
  <rect x="48" y="20" rx="6.72" ry="2.8000000000000003" width="4" height="12" fill="#878787">
    <animate attributeName="opacity" values="1;0" keyTimes="0;1" dur="1.2s" begin="-0.21818181818181817s" repeatCount="indefinite"></animate>
  </rect>
</g><g transform="rotate(294.54545454545456 50 50)">
  <rect x="48" y="20" rx="6.72" ry="2.8000000000000003" width="4" height="12" fill="#878787">
    <animate attributeName="opacity" values="1;0" keyTimes="0;1" dur="1.2s" begin="-0.10909090909090909s" repeatCount="indefinite"></animate>
  </rect>
</g><g transform="rotate(327.27272727272725 50 50)">
  <rect x="48" y="20" rx="6.72" ry="2.8000000000000003" width="4" height="12" fill="#878787">
    <animate attributeName="opacity" values="1;0" keyTimes="0;1" dur="1.2s" begin="0s" repeatCount="indefinite"></animate>
  </rect>
</g></svg>